<?xml version="1.0" encoding="UTF-8" standalone="no"?>
<svg
   xmlns:dc="http://purl.org/dc/elements/1.1/"
   xmlns:cc="http://creativecommons.org/ns#"
   xmlns:rdf="http://www.w3.org/1999/02/22-rdf-syntax-ns#"
   xmlns:svg="http://www.w3.org/2000/svg"
   xmlns="http://www.w3.org/2000/svg"
   xmlns:sodipodi="http://sodipodi.sourceforge.net/DTD/sodipodi-0.dtd"
   xmlns:inkscape="http://www.inkscape.org/namespaces/inkscape"
   inkscape:version="1.0 (4035a4fb49, 2020-05-01)"
   sodipodi:docname="opensource.svg"
   id="svg92"
   xml:space="preserve"
   style="enable-background:new 0 0 1000 356.9;"
   viewBox="0 0 1000 356.9"
   y="0px"
   x="0px"
   version="1.1"><metadata
   id="metadata98"><rdf:RDF><cc:Work
       rdf:about=""><dc:format>image/svg+xml</dc:format><dc:type
         rdf:resource="http://purl.org/dc/dcmitype/StillImage" /></cc:Work></rdf:RDF></metadata><defs
   id="defs96"><rect
     id="rect255"
     height="79.180764"
     width="152.72228"
     y="159.35404"
     x="639.54682" /><rect
     id="rect118"
     height="121.12323"
     width="236.25685"
     y="302.14257"
     x="413.94863" /><rect
     id="rect108"
     height="183.01587"
     width="506.45483"
     y="44.589322"
     x="170.37114" /></defs><sodipodi:namedview
   inkscape:current-layer="Calque_1"
   inkscape:window-maximized="1"
   inkscape:window-y="-8"
   inkscape:window-x="-8"
   inkscape:cy="244.04324"
   inkscape:cx="612.08221"
   inkscape:zoom="1.5026019"
   showgrid="false"
   id="namedview94"
   inkscape:window-height="745"
   inkscape:window-width="1304"
   inkscape:pageshadow="2"
   inkscape:pageopacity="0"
   guidetolerance="10"
   gridtolerance="10"
   objecttolerance="10"
   borderopacity="1"
   bordercolor="#666666"
   pagecolor="#ffffff" />
<style
   id="style2"
   type="text/css">
	.st0{fill:#FFE87B;}
	.st1{fill:#1E1E1C;}
	.st2{fill:#1E1E1C;stroke:#1E1E1C;stroke-width:0.25;stroke-miterlimit:10;}
	.st3{fill:#1E1E1C;stroke:#1E1E1C;stroke-width:0.15;stroke-miterlimit:10;}
	.st4{fill:#FFFFFF;}
	.st5{stroke:#1E1E1C;stroke-miterlimit:10;}
	.st6{fill:none;stroke:#1E1E1C;stroke-width:3;stroke-linecap:round;stroke-linejoin:round;stroke-miterlimit:10;}
	.st7{stroke:#000000;stroke-width:1.5;stroke-miterlimit:10;}
</style>
<g
   id="Calque_2">
	<g
   id="g6">
		<path
   id="path4"
   d="M227.8,149.1c-18.7,0-29.8,6.9-43.6,19.6c-8.7,8-15.8,20.7-10.6,31.3c1.6,3.4,4.4,6.2,7.1,8.8    c20.4,20,42.8,37.8,66.8,53.1c14.6,9.3,31.3,18,48.5,15.3c11-1.7,20.7-8,29.4-14.9c6.3-5,12.6-11,13.9-18.9    c1.9-11.4-7-21.3-14.8-29.8c-8.2-8.9-8.2-5.1-15.2-2.5L260.4,229l-7.1-0.8L227.8,149.1z"
   class="st0" />
	</g>
	<g
   id="g10">
		<path
   id="path8"
   d="M621.1,281.6c-0.1,0.2-0.5,0.5-0.7,1.2c-0.2,0.7,0.3,1.6,0.7,5.2c0.3,3.4,1.1,6.7,2.7,9.7    c5.6,10.4,19.3,13.7,31.1,12.3c18.2-2.2,34.5-13,47-26.5c10.9-11.8,16.3-14.5,16-28.9c0-1.6-5.1,7.7-9.4,7.9    c-6.6,0.3-18.8-24.1-18.8-24.1l-7.2,16.8l-17.2-16.8l-17.2,11.3c-2.3,7.3-1.3,31.1-1.3,31.1S622.5,279.9,621.1,281.6z"
   class="st0" />
	</g>
	<g
   id="g14">
		<path
   id="path12"
   d="M599.7,147.6c1-8.1,3.8-19.4-3.5-16.4c-2.6,1.1-17.3-1.6-20.1-1.8c-3.6-0.3-16.5,2.5-17.7-1    c-2-5.9-2.1-10.1,10.6-21.5s30.4-15.1,47.4-16.1c14.7-0.9,29.9,0.1,43.4,6.1c13.5,6,14.9,9.1,19.1,14.3    c0.8,0.9-20.2,17.3-20.9,18.3c-0.7,1-15-10.2-15.4-11.3l-9.7,23.1l-32.2-19L599.7,147.6z"
   class="st0" />
	</g>
</g>
<g
   id="Calque_1">
	<path
   id="path17"
   d="M541.5,77.8c-12.3-5-24.5-10.1-37-14.7c-10.9-4-21.9-7.4-33.1-10.2c-7.8-2-15.7-3.7-23.6-5.3c-1.2-0.3-2.3,0.5-2.4,1.8   c-0.7,11.3,4.3,21.9,8.4,32.2c-10.6,1.5-21.1,3.5-31.6,5.6c-16.7,3.3-33.4,6.7-50.1,10.2c-18.8,3.9-37.7,8-56.5,11.9   c-17.6,3.7-35.2,7.4-52.8,11c-13,2.6-26,5.3-39,7.5c-1.1,0.2-2.3,0.4-3.4,0.5c-0.3,0-0.6,0.2-0.8,0.4c-0.5,0.4-0.8,1-0.5,1.9   c3.4,9.2,6.3,18.5,9.3,27.8c3.8,11.8,7.4,23.6,11.2,35.4c3.1,9.6,6.1,19.3,9.5,28.8c1,2.8,2,5.9,4.9,7.3c3.3,1.6,7.2,0.6,10.4-0.5   c8.4-3,16.7-6.3,25-9.4c16.9-6.4,33.9-12.8,50.7-19.4c7.6-3,15.2-5.9,22.9-8.8c9.7-3.6,19.4-7.2,29.1-10.8   c10.9-4.1,21.8-8.1,32.7-12.2c10.3-3.8,20.5-7.7,30.7-11.7c7.8-3,15.6-6.1,23.3-9.4c0.8-0.3,1.6-0.7,2.3-1   c7.5,10.4,12.3,23.1,23.1,30.6c1.1,0.7,2.4-0.1,2.8-1.1c4.5-12.9,9.9-25.5,15.4-38c5.1-11.6,10.2-23.2,14.1-35.2   c2.5-7.5,4.6-15.2,6.3-23C543,79.1,542.5,78.2,541.5,77.8z M527,118c-4.7,11.7-10.1,23.2-15,34.8c-2.8,6.6-5.4,13.2-7.7,19.9   c-9.4-7.6-13.8-19.8-20.9-29.2c-0.6-0.8-1.6-1.2-2.6-0.7c-6.5,2.9-13.1,5.5-19.9,8.2c-9.6,3.8-19.3,7.5-29,11.1   c-10.8,4.1-21.5,8.1-32.3,12.1c-10.1,3.7-20.1,7.5-30.2,11.2c-7.6,2.8-15.2,5.7-22.7,8.6c-14.3,5.5-28.5,11.2-42.8,16.6   c-8.3,3.2-16.7,6.3-25,9.4c-4.1,1.6-8.3,3.1-12.4,4.7c-3,1.1-7.1,3.3-10.3,2.1c-2.4-0.8-3-4-3.8-6.2c-0.7-2-1.4-4-2.1-5.9   c-1.6-4.9-3.2-9.8-4.8-14.7c-3.7-11.5-7.3-23.1-11-34.7c-3.2-10.2-6.4-20.4-9.9-30.4c-0.4-1.1-0.8-2.2-1.2-3.3   c11.6-1.9,23.1-4.2,34.6-6.5c17.2-3.5,34.4-7.1,51.6-10.7c18.9-4,37.7-8,56.6-12c17.1-3.6,34.3-7.2,51.5-10.6   c12-2.4,24-4.8,36.1-6.5c0.5-0.1,1-0.1,1.5-0.2c0.1,0,0.2,0,0.4-0.1c0,0,0,0,0,0c0.2,0,0.5-0.1,0.7-0.1c0,0,0,0,0,0   c0.2,0,0.3,0,0.5-0.1c0.4-0.1,0.7-0.4,1-0.7c0,0,0.1-0.1,0.1-0.2c0,0,0.1-0.1,0.1-0.1c0,0,0-0.1,0.1-0.1c0.2-0.4,0.2-0.8,0.1-1.2   c-3.8-9.9-9.1-20.2-9.1-30.9c12.3,2.5,24.5,5.3,36.5,9c11.1,3.4,21.9,7.4,32.6,11.7c6.9,2.7,13.8,5.6,20.6,8.4   C535.9,93.5,531.9,105.9,527,118z" />
	
	<g
   id="g53">
		
		
		
		
		
		
		
		
		
		
		
		
		
		
		
		
	<g
   style="font-style:normal;font-variant:normal;font-weight:normal;font-stretch:normal;font-size:40px;line-height:1.25;font-family:DeeDeeStretch;-inkscape-font-specification:DeeDeeStretch;white-space:pre;shape-inside:url(#rect108);fill:#000000;fill-opacity:1;stroke:none"
   id="text106" /><g
   inkscape:transform-center-y="-4.7650214"
   inkscape:transform-center-x="3.019288"
   style="font-style:normal;font-weight:normal;font-size:50.7969px;line-height:1.25;font-family:sans-serif;fill:#000000;fill-opacity:1;stroke:none;stroke-width:1.26992"
   id="text114"
   transform="matrix(1.0405571,-0.33457261,0.32723587,0.8558068,0,0)"
   aria-label="KIRIM GAMBAR"><path
     id="path267"
     style="font-style:normal;font-variant:normal;font-weight:normal;font-stretch:normal;font-family:DeeDeeStretch;-inkscape-font-specification:DeeDeeStretch;stroke-width:1.26992"
     d="m 171.56301,267.7178 q 1.52391,3.09861 4.47013,11.58169 2.48905,7.11157 4.62252,11.02293 0.30478,0.55876 0.10159,1.16833 -0.15239,0.60956 -0.71115,0.91434 -0.50797,0.30478 -1.11753,0.10159 -0.60957,-0.15239 -0.91435,-0.66036 -2.23506,-4.06375 -4.8765,-11.58169 -2.48905,-7.06077 -3.3018,-8.94025 l -0.50797,1.98108 q -0.10159,0.40637 -0.40637,0.71115 -0.1016,4.57172 -0.1524,6.19722 0,1.01594 -0.10159,2.84463 -0.0508,1.77789 -0.10159,2.84463 0,1.06673 0.0508,2.53984 0.1016,1.47311 0.30479,2.69224 0.10159,0.60956 -0.30479,1.16833 -0.35557,0.50797 -0.96514,0.60956 -0.60956,0.10159 -1.16833,-0.30478 -0.50796,-0.35558 -0.60956,-0.96514 -0.25398,-1.7271 -0.30478,-3.50499 -0.0508,-1.77789 0.0508,-4.62252 0.10159,-2.89542 0.10159,-3.3018 0.0508,-1.82868 0.15239,-5.94323 0.1016,-4.11455 0.15239,-6.40041 0.0508,-2.33666 -0.10159,-5.63846 -0.15239,-3.35259 -0.55877,-6.09563 -0.0508,-0.60956 0.30478,-1.11753 0.35558,-0.50797 0.96514,-0.55877 0.66036,-0.10159 1.16833,0.25399 0.50797,0.35558 0.60957,1.01594 0.50797,3.70817 0.60956,8.33069 l 2.79383,-7.06077 q 0.25398,-0.60956 0.81275,-0.81275 0.60956,-0.25399 1.16833,0 0.60956,0.20319 0.81275,0.81275 0.25398,0.55877 0.0508,1.11753 -2.53985,6.29882 -3.50499,9.09265 0.25398,0.20318 0.40637,0.50797 z" /><path
     id="path269"
     style="font-style:normal;font-variant:normal;font-weight:normal;font-stretch:normal;font-family:DeeDeeStretch;-inkscape-font-specification:DeeDeeStretch;stroke-width:1.26992"
     d="m 182.14068,289.91604 q 2.48904,0.0508 4.47012,0.0508 0,-1.16833 0.35558,-16.50899 0.20319,-9.75301 -0.10159,-15.39147 -2.69224,0.0508 -4.9781,0.1016 -0.66036,0 -1.11753,-0.40638 -0.45717,-0.45717 -0.45717,-1.06673 0,-0.66036 0.45717,-1.11753 0.40637,-0.45718 1.01594,-0.45718 2.64144,-0.0508 5.94323,-0.10159 0.20319,-0.10159 0.45718,-0.10159 0.35557,0 0.66036,0.10159 h 5.43526 q 0.60957,0 1.06674,0.45717 0.45717,0.45717 0.45717,1.06674 0,0.60956 -0.45717,1.06673 -0.45717,0.45717 -1.06674,0.45717 h -4.36853 q 0.30478,5.74005 0.1016,15.49306 -0.35558,15.23907 -0.35558,16.3566 1.72709,-0.0508 3.35259,-0.15239 0.60957,-0.0508 1.06674,0.40638 0.50797,0.40637 0.55876,1.01593 0.0508,0.60957 -0.40637,1.11754 -0.40638,0.45717 -1.01594,0.50797 -4.62252,0.30478 -11.17532,0.15239 -0.60956,0 -1.06673,-0.45718 -0.40638,-0.45717 -0.40638,-1.06673 0,-0.66036 0.45717,-1.06674 0.45718,-0.45717 1.11754,-0.45717 z" /><path
     id="path271"
     style="font-style:normal;font-variant:normal;font-weight:normal;font-stretch:normal;font-family:DeeDeeStretch;-inkscape-font-specification:DeeDeeStretch;stroke-width:1.26992"
     d="m 202.40467,264.66998 q 0,2.89543 0.10159,8.43229 3.96216,-2.03188 6.45121,-4.8765 2.53984,-2.84463 2.53984,-6.29882 0,-2.79383 -0.91434,-3.65738 -0.40638,-0.35558 -0.81275,-0.40637 -0.35558,-0.1016 -1.37152,-0.0508 -2.53984,0.15239 -3.86056,1.87949 -1.26992,1.72709 -2.13347,4.97809 z m 2.94622,10.36257 q -1.16833,0.66036 -2.38746,1.26992 -0.20318,0.1016 -0.40637,0.15239 v 3.50499 q 0,2.43825 0,3.80977 0.0508,1.32072 0.15239,3.3018 0.10159,1.98107 0.35558,3.60658 0.0508,0.60956 -0.35558,1.11753 -0.35558,0.50797 -0.96514,0.60956 -0.60956,0.0508 -1.11753,-0.30478 -0.50797,-0.40638 -0.60957,-1.01594 -0.30478,-2.28586 -0.40637,-4.57172 -0.1016,-2.28586 -0.1016,-6.04483 v -4.47013 q -0.10159,-8.33069 -0.15239,-9.49902 -0.35557,-0.55877 -0.20318,-1.21913 l 0.20318,-0.96514 q 0,-3.80976 0.1016,-6.95917 0,-0.60956 0.45717,-1.01594 0.45717,-0.45717 1.11753,-0.45717 0.60956,0 1.01594,0.45717 0.45717,0.45717 0.45717,1.06674 2.18427,-2.43826 5.68926,-2.64144 0.76195,0 1.42231,0 0.66036,-0.0508 1.47311,0.30478 0.81275,0.30478 1.52391,0.96514 1.93028,1.72709 1.93028,5.89244 0,6.40041 -6.6036,11.37851 1.06674,2.94622 2.64144,9.04184 1.6255,6.29882 2.79383,9.29584 0.20319,0.60956 -0.0508,1.16833 -0.25398,0.60956 -0.86355,0.81275 -0.55876,0.20318 -1.16832,-0.0508 -0.55877,-0.25399 -0.76196,-0.81275 -1.21912,-3.20021 -2.89542,-9.65141 -1.42231,-5.53686 -2.28586,-8.07671 z" /><path
     id="path273"
     style="font-style:normal;font-variant:normal;font-weight:normal;font-stretch:normal;font-family:DeeDeeStretch;-inkscape-font-specification:DeeDeeStretch;stroke-width:1.26992"
     d="m 215.77378,289.91604 q 2.48905,0.0508 4.47013,0.0508 0,-1.16833 0.35558,-16.50899 0.20318,-9.75301 -0.1016,-15.39147 -2.69223,0.0508 -4.97809,0.1016 -0.66036,0 -1.11754,-0.40638 -0.45717,-0.45717 -0.45717,-1.06673 0,-0.66036 0.45717,-1.11753 0.40638,-0.45718 1.01594,-0.45718 2.64144,-0.0508 5.94324,-0.10159 0.20319,-0.10159 0.45717,-0.10159 0.35558,0 0.66036,0.10159 h 5.43527 q 0.60956,0 1.06673,0.45717 0.45718,0.45717 0.45718,1.06674 0,0.60956 -0.45718,1.06673 -0.45717,0.45717 -1.06673,0.45717 h -4.36853 q 0.30478,5.74005 0.10159,15.49306 -0.35558,15.23907 -0.35558,16.3566 1.7271,-0.0508 3.3526,-0.15239 0.60956,-0.0508 1.06673,0.40638 0.50797,0.40637 0.55877,1.01593 0.0508,0.60957 -0.40638,1.11754 -0.40637,0.45717 -1.01594,0.50797 -4.62251,0.30478 -11.17531,0.15239 -0.60957,0 -1.06674,-0.45718 -0.40637,-0.45717 -0.40637,-1.06673 0,-0.66036 0.45717,-1.06674 0.45717,-0.45717 1.11753,-0.45717 z" /><path
     id="path275"
     style="font-style:normal;font-variant:normal;font-weight:normal;font-stretch:normal;font-family:DeeDeeStretch;-inkscape-font-specification:DeeDeeStretch;stroke-width:1.26992"
     d="m 246.19715,256.79646 q 0,3.50499 -0.45717,22.29984 0,0.55877 -0.10159,3.04782 -0.1016,2.48904 -0.1016,3.50498 0,1.01594 0.1016,2.79383 0.15239,1.77789 0.45717,3.09861 0.15239,0.66036 -0.20319,1.16833 -0.30478,0.55877 -0.96514,0.66036 -0.60956,0.15239 -1.16833,-0.20319 -0.50797,-0.30478 -0.60956,-0.91434 -0.35558,-1.52391 -0.50797,-3.50499 -0.15239,-1.98108 -0.15239,-3.04781 0,-1.11753 0.10159,-3.70817 0.10159,-2.59065 0.10159,-2.99702 0,-0.66036 0.1524,-6.85758 0.20318,-6.24802 0.25398,-9.44823 -1.5747,6.5528 -2.79383,13.71517 -0.10159,0.60956 -0.66036,1.01593 -0.50797,0.35558 -1.11753,0.25399 -0.55877,-0.10159 -0.91435,-0.55877 -0.55876,0.15239 -1.11753,-0.15239 -0.50797,-0.30478 -0.66036,-0.91434 -0.81275,-2.84463 -1.42231,-6.34961 -0.40638,16.40739 -0.40638,20.97912 0,0.60956 -0.45717,1.06673 -0.45717,0.45717 -1.06673,0.45717 -0.60957,0 -1.06674,-0.45717 -0.45717,-0.45717 -0.45717,-1.06673 0,-5.53687 0.25399,-16.66139 0.30478,-11.12452 0.30478,-16.66138 0,-0.60956 0.40637,-1.06674 0.45717,-0.45717 1.11753,-0.45717 0.35558,-0.40637 0.91435,-0.50797 0.60956,-0.0508 1.11753,0.35558 0.50797,0.35558 0.60956,0.96514 l 0.45717,3.86057 q 0.35558,2.53984 0.50797,4.06375 0.20319,1.47311 0.55877,3.60658 0.35558,2.13347 0.76195,3.86056 1.42232,-7.67033 3.45419,-15.03588 0.15239,-0.60956 0.71116,-0.91434 0.55876,-0.30479 1.16833,-0.1524 0.0508,0 0.10159,0.0508 0.45717,-0.71115 1.26992,-0.71115 0.60957,0 1.06674,0.45717 0.45717,0.45717 0.45717,1.06673 z" /><path
     id="path277"
     style="font-style:normal;font-variant:normal;font-weight:normal;font-stretch:normal;font-family:DeeDeeStretch;-inkscape-font-specification:DeeDeeStretch;stroke-width:1.26992"
     d="m 271.43846,275.23574 q 1.21912,0 3.45418,0.0508 2.23507,0.0508 2.94622,0.0508 3.75898,0.0508 6.24802,-0.20319 0.60957,-0.0508 1.11754,0.35558 0.50796,0.40638 0.55876,1.01594 0.0508,0.60956 -0.35558,1.11753 -0.40637,0.50797 -1.01593,0.55877 -1.21913,0.10159 -2.28587,0.15239 -0.45717,5.18128 1.52391,12.64843 0.15239,0.60956 -0.15239,1.16833 -0.30478,0.55876 -0.91434,0.71115 -0.60957,0.15239 -1.16833,-0.15239 -0.55877,-0.30478 -0.71116,-0.91434 -0.30478,-1.06674 -0.50797,-2.08268 -2.48905,4.67332 -8.33069,4.21615 -3.75897,-0.30478 -5.74005,-2.89543 -1.16833,-1.5239 -1.98108,-3.75897 -0.81275,-2.28586 -1.11753,-3.80976 -0.25399,-1.57471 -0.60956,-3.96216 -0.35558,-3.3018 -0.40638,-6.70519 -0.0508,-3.45419 0.76195,-7.26396 0.86355,-3.80977 2.59065,-6.502 1.21912,-1.98108 3.35259,-3.14941 2.13347,-1.16833 4.41933,-1.32072 2.43825,-0.1016 4.47013,1.16833 2.03188,1.26992 2.79383,3.91136 0.15239,0.55876 -0.15239,1.11753 -0.30478,0.55877 -0.91435,0.76195 -0.55876,0.15239 -1.11753,-0.15239 -0.55876,-0.30478 -0.76195,-0.91434 -0.86355,-2.99702 -4.21614,-2.84463 -1.52391,0.1016 -2.99702,0.91435 -1.47311,0.81275 -2.33666,2.13347 -1.42231,2.28586 -2.18426,5.58766 -0.71116,3.30179 -0.66036,6.502 0.0508,3.14941 0.40637,6.34961 0.45717,3.45419 1.11753,5.89244 0.66036,2.48905 1.98108,4.21615 1.11753,1.47311 3.50499,1.67629 4.47013,0.35558 5.89244,-3.65737 1.16833,-3.3018 0.45717,-8.83866 h -0.55877 q -0.71115,0 -2.94622,-0.0508 -2.23506,-0.0508 -3.45418,-0.0508 -0.60957,0 -1.06674,-0.45717 -0.45717,-0.45717 -0.45717,-1.06674 0,-0.60956 0.45717,-1.06673 0.45717,-0.45717 1.06674,-0.45717 z" /><path
     id="path279"
     style="font-style:normal;font-variant:normal;font-weight:normal;font-stretch:normal;font-family:DeeDeeStretch;-inkscape-font-specification:DeeDeeStretch;stroke-width:1.26992"
     d="m 298.03142,269.90206 2.69224,-0.50797 -0.45717,-3.91136 -0.1524,-1.5747 -0.86354,2.33666 z m -9.753,22.35064 q 3.91136,-14.62951 8.1275,-27.02395 l 2.43825,-7.16237 v -0.10159 q 0,-0.10159 -0.0508,-0.25398 0,-0.20319 0,-0.30478 0,-0.60957 0.20318,-1.01594 0.20319,-0.55877 0.71116,-0.81275 0.50797,-0.30478 1.11753,-0.25399 0.71116,0.1016 1.11753,0.76196 0.1016,0.15239 0.15239,0.30478 0.1016,0.20318 0.15239,0.45717 0.0508,0.35558 0.1524,0.96514 0.15239,0.96514 0.35557,2.74303 0.0508,0.20319 0.55877,4.62252 l 0.76195,6.29882 0.76196,6.70519 q 0.30478,2.64144 0.60956,6.24802 0.30478,3.55578 0.40637,6.60359 0,0.60957 -0.45717,1.11754 -0.40637,0.45717 -1.01594,0.45717 -0.60956,0 -1.11753,-0.40638 -0.45717,-0.45717 -0.45717,-1.06673 -0.20319,-6.40041 -1.72709,-18.69326 -2.38746,0.45717 -4.11455,0.66036 -2.74304,8.68627 -5.74005,19.96318 -0.15239,0.60956 -0.71116,0.91434 -0.55877,0.30479 -1.16833,0.15239 -0.60956,-0.15239 -0.91434,-0.71115 -0.30478,-0.55877 -0.15239,-1.16833 z" /><path
     id="path281"
     style="font-style:normal;font-variant:normal;font-weight:normal;font-stretch:normal;font-family:DeeDeeStretch;-inkscape-font-specification:DeeDeeStretch;stroke-width:1.26992"
     d="m 322.59093,256.79646 q 0,3.50499 -0.45717,22.29984 0,0.55877 -0.10159,3.04782 -0.1016,2.48904 -0.1016,3.50498 0,1.01594 0.1016,2.79383 0.15239,1.77789 0.45717,3.09861 0.15239,0.66036 -0.20319,1.16833 -0.30478,0.55877 -0.96514,0.66036 -0.60956,0.15239 -1.16833,-0.20319 -0.50797,-0.30478 -0.60956,-0.91434 -0.35558,-1.52391 -0.50797,-3.50499 -0.15239,-1.98108 -0.15239,-3.04781 0,-1.11753 0.10159,-3.70817 0.1016,-2.59065 0.1016,-2.99702 0,-0.66036 0.15239,-6.85758 0.20319,-6.24802 0.25398,-9.44823 -1.5747,6.5528 -2.79383,13.71517 -0.10159,0.60956 -0.66036,1.01593 -0.50796,0.35558 -1.11753,0.25399 -0.55876,-0.10159 -0.91434,-0.55877 -0.55877,0.15239 -1.11753,-0.15239 -0.50797,-0.30478 -0.66036,-0.91434 -0.81275,-2.84463 -1.42232,-6.34961 -0.40637,16.40739 -0.40637,20.97912 0,0.60956 -0.45717,1.06673 -0.45718,0.45717 -1.06674,0.45717 -0.60956,0 -1.06673,-0.45717 -0.45718,-0.45717 -0.45718,-1.06673 0,-5.53687 0.25399,-16.66139 0.30478,-11.12452 0.30478,-16.66138 0,-0.60956 0.40638,-1.06674 0.45717,-0.45717 1.11753,-0.45717 0.35558,-0.40637 0.91434,-0.50797 0.60956,-0.0508 1.11753,0.35558 0.50797,0.35558 0.60957,0.96514 l 0.45717,3.86057 q 0.35558,2.53984 0.50797,4.06375 0.20318,1.47311 0.55876,3.60658 0.35558,2.13347 0.76196,3.86056 1.42231,-7.67033 3.45419,-15.03588 0.15239,-0.60956 0.71115,-0.91434 0.55877,-0.30479 1.16833,-0.1524 0.0508,0 0.1016,0.0508 0.45717,-0.71115 1.26992,-0.71115 0.60956,0 1.06673,0.45717 0.45717,0.45717 0.45717,1.06673 z" /><path
     id="path283"
     style="font-style:normal;font-variant:normal;font-weight:normal;font-stretch:normal;font-family:DeeDeeStretch;-inkscape-font-specification:DeeDeeStretch;stroke-width:1.26992"
     d="m 328.43893,260.91101 q 0.25399,4.9273 0.40638,11.68329 0.71116,-0.81275 2.23506,-2.38746 2.74304,-2.84462 3.75897,-4.01295 4.06376,-4.72411 3.91137,-8.12751 -0.1524,-3.04781 -1.37152,-3.96215 -0.91435,-0.66036 -2.59064,-0.1016 -1.93029,0.66036 -3.65738,2.48905 -1.77789,1.82869 -2.33666,3.80977 -0.10159,0.35558 -0.35558,0.60956 z m 9.9054,5.79085 q 1.7271,0.10159 3.3018,1.21912 1.82869,1.26993 3.09861,3.55579 1.32072,2.23506 1.93028,4.9273 1.32072,6.14642 -1.16833,10.81974 -3.04781,5.63845 -10.36256,6.04483 -2.03188,0.10159 -3.50499,-0.1016 -1.42231,-0.20318 -2.79383,-1.06673 -0.40638,0.50797 -1.06674,0.50797 -0.66035,0 -1.11753,-0.40638 -0.45717,-0.45717 -0.45717,-1.06673 -0.10159,-3.96216 -0.25398,-10.92134 -0.15239,-6.95917 -0.30479,-12.75002 -0.15239,-5.79085 -0.45717,-10.87054 -0.0508,-0.66036 0.35558,-1.11753 0.45717,-0.45717 1.06674,-0.50797 0.81275,-0.0508 1.26992,0.55877 2.53984,-3.251 5.89244,-4.41933 3.2002,-1.06674 5.43527,0.55877 2.38745,1.77789 2.59064,6.29881 0.15239,4.01296 -3.45419,8.73707 z m -4.67331,5.18128 -0.40638,0.40638 q -2.23506,2.38745 -3.14941,3.55578 -0.45717,0.60956 -1.21912,0.60956 0.20318,9.60062 0.30478,11.98807 0.20319,0.1016 0.35558,0.25399 1.01593,1.11753 2.13347,1.37151 1.11753,0.25399 3.251,0.15239 5.63845,-0.30478 7.87352,-4.47012 1.98108,-3.65738 0.86355,-8.68627 -0.45718,-2.23507 -1.47312,-4.01296 -1.01593,-1.77789 -2.28586,-2.64144 -2.48904,-1.72709 -5.07969,1.01594 -0.45717,0.45717 -1.16832,0.45717 z" /><path
     id="path285"
     style="font-style:normal;font-variant:normal;font-weight:normal;font-stretch:normal;font-family:DeeDeeStretch;-inkscape-font-specification:DeeDeeStretch;stroke-width:1.26992"
     d="m 359.34487,269.90206 2.69223,-0.50797 -0.45717,-3.91136 -0.15239,-1.5747 -0.86355,2.33666 z m -9.75301,22.35064 q 3.91136,-14.62951 8.12751,-27.02395 l 2.43825,-7.16237 v -0.10159 q 0,-0.10159 -0.0508,-0.25398 0,-0.20319 0,-0.30478 0,-0.60957 0.20319,-1.01594 0.20319,-0.55877 0.71116,-0.81275 0.50796,-0.30478 1.11753,-0.25399 0.71115,0.1016 1.11753,0.76196 0.10159,0.15239 0.15239,0.30478 0.10159,0.20318 0.15239,0.45717 0.0508,0.35558 0.15239,0.96514 0.15239,0.96514 0.35558,2.74303 0.0508,0.20319 0.55877,4.62252 l 0.76195,6.29882 0.76195,6.70519 q 0.30478,2.64144 0.60957,6.24802 0.30478,3.55578 0.40637,6.60359 0,0.60957 -0.45717,1.11754 -0.40638,0.45717 -1.01594,0.45717 -0.60956,0 -1.11753,-0.40638 -0.45717,-0.45717 -0.45717,-1.06673 -0.20319,-6.40041 -1.7271,-18.69326 -2.38745,0.45717 -4.11455,0.66036 -2.74303,8.68627 -5.74005,19.96318 -0.15239,0.60956 -0.71115,0.91434 -0.55877,0.30479 -1.16833,0.15239 -0.60957,-0.15239 -0.91435,-0.71115 -0.30478,-0.55877 -0.15239,-1.16833 z" /><path
     id="path287"
     style="font-style:normal;font-variant:normal;font-weight:normal;font-stretch:normal;font-family:DeeDeeStretch;-inkscape-font-specification:DeeDeeStretch;stroke-width:1.26992"
     d="m 373.745,264.66998 q 0,2.89543 0.10159,8.43229 3.96216,-2.03188 6.45121,-4.8765 2.53985,-2.84463 2.53985,-6.29882 0,-2.79383 -0.91435,-3.65738 -0.40637,-0.35558 -0.81275,-0.40637 -0.35558,-0.1016 -1.37152,-0.0508 -2.53984,0.15239 -3.86056,1.87949 -1.26992,1.72709 -2.13347,4.97809 z m 2.94622,10.36257 q -1.16833,0.66036 -2.38745,1.26992 -0.20319,0.1016 -0.40638,0.15239 v 3.50499 q 0,2.43825 0,3.80977 0.0508,1.32072 0.15239,3.3018 0.1016,1.98107 0.35558,3.60658 0.0508,0.60956 -0.35558,1.11753 -0.35558,0.50797 -0.96514,0.60956 -0.60956,0.0508 -1.11753,-0.30478 -0.50797,-0.40638 -0.60956,-1.01594 -0.30479,-2.28586 -0.40638,-4.57172 -0.10159,-2.28586 -0.10159,-6.04483 v -4.47013 q -0.1016,-8.33069 -0.15239,-9.49902 -0.35558,-0.55877 -0.20319,-1.21913 l 0.20319,-0.96514 q 0,-3.80976 0.10159,-6.95917 0,-0.60956 0.45717,-1.01594 0.45717,-0.45717 1.11753,-0.45717 0.60957,0 1.01594,0.45717 0.45717,0.45717 0.45717,1.06674 2.18427,-2.43826 5.68926,-2.64144 0.76195,0 1.42231,0 0.66036,-0.0508 1.47311,0.30478 0.81275,0.30478 1.52391,0.96514 1.93028,1.72709 1.93028,5.89244 0,6.40041 -6.6036,11.37851 1.06674,2.94622 2.64144,9.04184 1.6255,6.29882 2.79383,9.29584 0.20319,0.60956 -0.0508,1.16833 -0.25398,0.60956 -0.86354,0.81275 -0.55877,0.20318 -1.16833,-0.0508 -0.55877,-0.25399 -0.76196,-0.81275 -1.21912,-3.20021 -2.89542,-9.65141 -1.42231,-5.53686 -2.28586,-8.07671 z" /></g></g>
	<path
   d="m 392.23828,177.77539 c -0.9375,0.025 -1.8875,0.62422 -1.9375,1.82422 -1,23.8 -0.60156,47.60078 1.39844,71.30078 0.5,5.9 1.00117,11.79961 1.70117,17.59961 0.3,2.6 0.30039,5.39961 1.90039,7.59961 1.4,2 3.49961,3.20078 5.59961,4.30078 9.4,4.8 20.00039,6.30039 30.40039,6.90039 23.3,1.4 46.69844,0.79844 69.89844,-1.10156 11.8,-0.9 23.50078,-2.39844 35.30078,-3.89844 11.6,-1.4 23.09922,-2.00039 34.69922,-1.40039 22.6,1.1 45.3,5.10039 68,2.40039 2.8,-0.3 5.60039,-0.80078 8.40039,-1.30078 0.8,-0.2 1.40039,-1.00078 1.40039,-1.80078 0.2,-10 0.39961,-20.09961 0.59961,-30.09961 0,-2.4 -3.69883,-2.4 -3.79883,0 -0.18959,9.47959 -0.38072,19.04426 -0.57031,28.5332 -21.56417,3.81257 -43.58828,0.63326 -65.23047,-0.93359 -11.2,-0.8 -22.49922,-1.19922 -33.69922,-0.19922 -11.5,1 -23,2.9 -34.5,4 -23.1,2.3 -46.30039,3.10039 -69.40039,2.40039 -10.4,-0.3 -21,-0.6 -31,-3.5 -2.4,-0.7 -4.7,-1.49961 -7,-2.59961 -2,-0.9 -4.50039,-1.90117 -5.90039,-3.70117 -0.7,-0.9 -0.9,-2.09922 -1,-3.19922 -0.2,-1.5 -0.3,-3 -0.5,-4.5 -0.3,-2.9 -0.60039,-5.69961 -0.90039,-8.59961 -2.2,-23.2 -2.89883,-46.50078 -2.29883,-69.80078 0.1,-2.9 0.19883,-5.69961 0.29883,-8.59961 0,-1.1 -0.92383,-1.65 -1.86133,-1.625 z"
   id="path55" />
	<g
   id="g61">
		<path
   id="path57"
   d="M526.4,126.5c18.4,1.1,36.9,2.2,55.3,3.2c6.4,0.3,12.9,0.7,18.9,2.7"
   class="st4" />
		<path
   id="path59"
   d="M526.4,128.4c19.4,1.2,38.9,2.2,58.4,3.3c5.2,0.3,10.4,0.9,15.4,2.5c2.3,0.7,3.3-2.9,1-3.6c-9-2.9-18.8-2.7-28.2-3.3    c-9.9-0.5-19.8-1.1-29.6-1.7c-5.6-0.3-11.3-0.7-16.9-1C524,124.5,524,128.3,526.4,128.4L526.4,128.4z" />
	</g>
	
	<path
   d="m 686.53711,100.67969 c -0.46875,0.0328 -0.93633,0.21953 -1.23633,0.51953 L 657.80078,127.5 643.09961,116 c -0.5,-0.3 -1.19883,-0.50078 -1.79883,-0.30078 -0.6,0.1 -1.10078,0.60117 -1.30078,1.20117 l -8,21.5 -30.19922,-19.09961 c -0.6,-0.4 -1.4,-0.50156 -2,-0.10156 -0.6,0.4 -1,1.10078 -1,1.80078 v 39.30078 l -25.90039,6.29883 c -0.8,0.2 -1.3,0.8 -1.5,1.5 -0.1,0.7 0.0992,1.5 0.69922,2 L 597.40039,190.90039 579,202.80078 c -0.6,0.4 -1.00039,1.09844 -0.90039,1.89844 0.1,0.8 0.60078,1.40117 1.30078,1.70117 l 28,10.09961 -8.40039,18 c -0.3,0.7 -0.19922,1.49961 0.30078,2.09961 0.5,0.6 1.3,0.90117 2,0.70117 l 22.5,-5.30078 4.89844,27.09961 c 0.1,0.7 0.50156,1.2 1.10156,1.5 0.6,0.3 1.29844,0.20037 1.89844,-0.0996 L 665,240.5 l 15.19922,16.40039 c 0.5,0.5 1.20039,0.69961 1.90039,0.59961 0.7,-0.1 1.3,-0.60078 1.5,-1.30078 l 4.80078,-14.09961 18.59961,23 c 0.4,0.4 0.9,0.70117 1.5,0.70117 0.6,0 1.1,-0.20156 1.5,-0.60156 l 22.5,-22.89844 9.40039,22.29883 c 0.3,0.7 0.89883,1.20117 1.79883,1.20117 0.7,0 1.40039,-0.40117 1.40039,-1.20117 l 13.09961,-24.29883 19.5,19.79883 c 0.5,0.5 1.10078,0.69961 1.80078,0.59961 0.7,-0.2 1.2,-0.59922 1.5,-1.19922 l 13.5,-31 25.90039,5.5 c 0.8,0.2 1.5,-0.0992 2,-0.69922 0.5,-0.6 0.59883,-1.40156 0.29883,-2.10156 l -15.09961,-32.59961 30.20117,-18.29883 c 0.6,-0.4 0.99844,-1.2 0.89844,-2 -0.1,-0.8 -0.59844,-1.50117 -1.39844,-1.70117 L 812,168.90039 820.90039,151 c 0.4,-0.7 0.29883,-1.59922 -0.20117,-2.19922 -0.5,-0.6 -1.29961,-0.90117 -2.09961,-0.70117 l -22.5,6 v -15.69922 c 0,-0.7 -0.4,-1.30117 -1,-1.70117 -0.6,-0.4 -1.4,-0.4 -2,0 l -14,8.40039 L 775.30078,114 c 0,-0.6 -0.4,-1.2 -1,-1.5 -0.5,-0.3 -1.20078,-0.3 -1.80078,0 l -33.59961,16.80078 -4.09961,-17.10156 c -0.1,-0.6 -0.60117,-1.19844 -1.20117,-1.39844 -0.6,-0.2 -1.29883,-0.20078 -1.79883,0.19922 L 704,129.40039 688.40039,101.69922 c -0.3,-0.5 -0.80039,-0.9 -1.40039,-1 -0.15,-0.025 -0.30664,-0.0305 -0.46289,-0.0195 z M 686.40039,106 l 15.40039,27.40039 c 0.3,0.5 0.69883,0.9 1.29883,1 0.6,0.1 1.09961,-7.8e-4 1.59961,-0.30078 l 27.20117,-18 4,16.80078 c 0.1,0.6 0.49961,1.10039 1.09961,1.40039 0.5,0.3 1.19922,0.3 1.69922,0 L 772,117.59961 775.80078,149 c 0.1,0.7 0.49961,1.29961 1.09961,1.59961 0.6,0.3 1.30039,0.20037 1.90039,-0.0996 L 792.5,142.30078 v 14.79883 c 0,0.6 0.30078,1.19961 0.80078,1.59961 0.5,0.3 1.09922,0.50078 1.69922,0.30078 l 20.69922,-5.59961 -8,16 c -0.2,0.5 -0.2,1.19922 0,1.69922 0.3,0.5 0.70078,0.89961 1.30078,1.09961 l 23.19922,7 -27.89844,16.90039 c -0.9,0.6 -1.20078,1.69961 -0.80078,2.59961 l 14.19922,30.60156 -23.59961,-5 c -0.9,-0.2 -1.79922,0.29922 -2.19922,1.19922 l -13,29.80078 -19.30078,-19.60156 c -0.4,-0.5 -1.09922,-0.69961 -1.69922,-0.59961 -0.7,0.1 -1.2,0.4 -1.5,1 l -12.40039,23 -8.90039,-21.19922 c -0.3,-0.6 -0.8,-1.10117 -1.5,-1.20117 -0.7,-0.1 -1.29883,0.10156 -1.79883,0.60156 l -23,23.39844 -19.40039,-24.09961 c -0.4,-0.4 -0.99961,-0.69922 -1.59961,-0.69922 -0.2,0 -0.30078,-3.7e-4 -0.30078,0.0996 -0.7,0.1 -1.3,0.60078 -1.5,1.30078 L 681.09961,251.69922 667,236.59961 c -0.7,-0.7 -1.7,-0.90039 -2.5,-0.40039 l -32.19922,19.40039 -4.70117,-26.29883 c -0.1,-0.5 -0.40039,-1.00078 -0.90039,-1.30078 -0.5,-0.3 -1.09961,-0.40078 -1.59961,-0.30078 l -3.4668,0.82812 c -0.0123,0.004 -0.0172,0.0128 -0.0312,0.0156 -0.0445,0.009 -0.0431,0.008 -0.0879,0.0176 h -0.002 c -0.002,0.002 -0.005,0.004 -0.008,0.006 -0.005,0.003 -0.009,0.006 -0.0137,0.008 -0.0273,0.0266 -0.0679,0.0469 -0.13476,0.0469 -0.0379,0 -0.0466,-0.002 -0.0801,0.01 -0.0139,0.005 -0.0251,0.0205 -0.041,0.0215 -0.0263,0.002 -0.0537,-0.001 -0.0801,-0.002 0.008,8.1e-4 0.0184,-1.1e-4 0.0234,0.006 0.008,0.009 -0.0236,0.003 -0.0352,0.004 -0.026,0.003 -0.0521,0.003 -0.0781,0.004 l -0.0391,0.01 c -0.007,6.9e-4 -0.007,0.006 -0.0312,0.01 -0.004,6.7e-4 0.008,-8.4e-4 0.0117,0 0.002,10e-4 -0.002,0.002 -0.004,0.002 -0.0171,0.003 -0.0224,0.004 -0.0312,0.004 0.001,0.006 -0.0106,0.006 -0.0156,0.008 -0.002,0.001 -0.005,0.003 -0.008,0.004 -0.0173,0.006 -0.0304,0.004 -0.043,0.006 -0.006,8.8e-4 -0.0148,7.6e-4 -0.0215,0.002 l -0.0469,0.0117 c -0.005,0.002 -0.009,0.004 -0.0137,0.006 -0.008,0.003 -0.017,0.002 -0.0254,0.004 l -0.16797,0.0391 -16.0293,3.83203 7.59961,-16.29883 c 0.2,-0.5 0.2,-1.10156 0,-1.60156 -0.2,-0.5 -0.69922,-0.89961 -1.19922,-1.09961 l -26.19922,-9.5 17.29883,-11.19922 c 0.5,-0.4 0.90039,-0.99961 0.90039,-1.59961 0.1,-0.7 -0.19922,-1.30117 -0.69922,-1.70117 l -24.30078,-20 23.5,-5.69922 C 602.40042,163.70051 603,162.9 603,162 v -37.19922 l 29.19922,18.5 c 0.5,0.3 1.10117,0.39922 1.70117,0.19922 0.5,-0.2 0.99922,-0.59922 1.19922,-1.19922 L 643,121.09961 l 13.90039,10.70117 c 0.8,0.6 1.89961,0.59844 2.59961,-0.10156 z"
   id="path81" />
	
	
	
	
<g
   style="font-style:normal;font-weight:normal;font-size:40px;line-height:1.25;font-family:sans-serif;white-space:pre;shape-inside:url(#rect118);fill:#000000;fill-opacity:1;stroke:none"
   id="text116"
   transform="matrix(1.3016032,0,0,2.3022345,-118.66917,-525.11349)"
   aria-label="WA BUSINESS"><path
     id="path122"
     style="font-style:normal;font-variant:normal;font-weight:normal;font-stretch:normal;font-family:DeeDeeStretch;-inkscape-font-specification:DeeDeeStretch"
     d="m 417.42922,311.26258 q 0,2.28 0.2,5.08 0.2,2.76 0.36,4.24 0.16,1.44 0.64,5.28 0.52,3.84 0.6,4.56 0,0.12 0.16,1.72 0.28,-1.52 0.64,-4.08 l 0.32,-2.48 0.2,-1.56 0.08,-0.52 v -0.16 -0.04 -0.04 l 0.04,-0.04 v -0.08 q 0,-0.04 0.04,-0.12 0.2,-0.48 0.64,-0.68 0.24,-0.08 0.48,-0.08 0.56,0 0.92,0.44 0.12,0.08 0.2,0.24 0.04,0.12 0.12,0.28 0.04,0.24 0.16,0.6 0.12,0.52 0.4,1.6 0.72,3.08 0.88,3.68 0.28,1.04 1.28,4.24 l 0.24,-1.8 q 0.36,-2.56 0.56,-5.16 0.28,-2.84 0.4,-4.56 0.12,-1.76 0.32,-5.44 0.2,-3.68 0.28,-4.8 0.04,-0.48 0.4,-0.8 0.36,-0.36 0.84,-0.32 0.52,0.04 0.84,0.4 0.36,0.36 0.32,0.88 -0.08,1.04 -0.32,4.8 -0.2,3.76 -0.32,5.48 -0.12,1.72 -0.4,4.64 -0.24,2.88 -0.52,5.2 -0.68,5.04 -0.72,5.6 v 0.08 q 0,0.04 0,0.2 0.04,0.12 0.08,0.36 0.08,1.12 -0.6,1.76 -0.68,0.56 -1.44,0.12 -0.24,-0.16 -0.4,-0.36 -0.08,-0.16 -0.2,-0.36 -0.12,-0.28 -0.28,-0.8 l -0.92,-2.88 -0.8,-2.68 q -0.64,-2 -0.92,-3.08 -0.68,4.4 -1.6,7.04 0,0.04 -0.04,0.24 -0.08,0.36 -0.12,0.52 -0.16,0.48 -0.4,0.76 -0.64,0.72 -1.56,0.4 -0.4,-0.12 -0.64,-0.52 -0.08,-0.12 -0.16,-0.28 -0.04,-0.16 -0.08,-0.36 -0.08,-0.32 -0.16,-0.84 -0.12,-0.76 -0.28,-2.32 -0.08,-0.76 -0.16,-1.6 -0.08,-0.88 -0.12,-1.44 -0.04,-0.56 -0.08,-0.68 -0.08,-0.68 -0.6,-4.56 -0.48,-3.88 -0.64,-5.36 -0.16,-1.52 -0.36,-4.36 -0.2,-2.88 -0.2,-5.2 0,-0.48 0.36,-0.84 0.36,-0.36 0.84,-0.36 0.48,0 0.84,0.36 0.36,0.36 0.36,0.84 z" /><path
     id="path124"
     style="font-style:normal;font-variant:normal;font-weight:normal;font-stretch:normal;font-family:DeeDeeStretch;-inkscape-font-specification:DeeDeeStretch"
     d="m 439.68484,321.42258 2.12,-0.4 -0.36,-3.08 -0.12,-1.24 -0.68,1.84 z m -7.68,17.6 q 3.08,-11.52 6.4,-21.28 l 1.92,-5.64 v -0.08 q 0,-0.08 -0.04,-0.2 0,-0.16 0,-0.24 0,-0.48 0.16,-0.8 0.16,-0.44 0.56,-0.64 0.4,-0.24 0.88,-0.2 0.56,0.08 0.88,0.6 0.08,0.12 0.12,0.24 0.08,0.16 0.12,0.36 0.04,0.28 0.12,0.76 0.12,0.76 0.28,2.16 0.04,0.16 0.44,3.64 l 0.6,4.96 0.6,5.28 q 0.24,2.08 0.48,4.92 0.24,2.8 0.32,5.2 0,0.48 -0.36,0.88 -0.32,0.36 -0.8,0.36 -0.48,0 -0.88,-0.32 -0.36,-0.36 -0.36,-0.84 -0.16,-5.04 -1.36,-14.72 -1.88,0.36 -3.24,0.52 -2.16,6.84 -4.52,15.72 -0.12,0.48 -0.56,0.72 -0.44,0.24 -0.92,0.12 -0.48,-0.12 -0.72,-0.56 -0.24,-0.44 -0.12,-0.92 z" /><path
     id="path126"
     style="font-style:normal;font-variant:normal;font-weight:normal;font-stretch:normal;font-family:DeeDeeStretch;-inkscape-font-specification:DeeDeeStretch"
     d="m 462.53547,314.34258 q 0.2,3.88 0.32,9.2 0.56,-0.64 1.76,-1.88 2.16,-2.24 2.96,-3.16 3.2,-3.72 3.08,-6.4 -0.12,-2.4 -1.08,-3.12 -0.72,-0.52 -2.04,-0.08 -1.52,0.52 -2.88,1.96 -1.4,1.44 -1.84,3 -0.08,0.28 -0.28,0.48 z m 7.8,4.56 q 1.36,0.08 2.6,0.96 1.44,1 2.44,2.8 1.04,1.76 1.52,3.88 1.04,4.84 -0.92,8.52 -2.4,4.44 -8.16,4.76 -1.6,0.08 -2.76,-0.08 -1.12,-0.16 -2.2,-0.84 -0.32,0.4 -0.84,0.4 -0.52,0 -0.88,-0.32 -0.36,-0.36 -0.36,-0.84 -0.08,-3.12 -0.2,-8.6 -0.12,-5.48 -0.24,-10.04 -0.12,-4.56 -0.36,-8.56 -0.04,-0.52 0.28,-0.88 0.36,-0.36 0.84,-0.4 0.64,-0.04 1,0.44 2,-2.56 4.64,-3.48 2.52,-0.84 4.28,0.44 1.88,1.4 2.04,4.96 0.12,3.16 -2.72,6.88 z m -3.68,4.08 -0.32,0.32 q -1.76,1.88 -2.48,2.8 -0.36,0.48 -0.96,0.48 0.16,7.56 0.24,9.44 0.16,0.08 0.28,0.2 0.8,0.88 1.68,1.08 0.88,0.2 2.56,0.12 4.44,-0.24 6.2,-3.52 1.56,-2.88 0.68,-6.84 -0.36,-1.76 -1.16,-3.16 -0.8,-1.4 -1.8,-2.08 -1.96,-1.36 -4,0.8 -0.36,0.36 -0.92,0.36 z" /><path
     id="path128"
     style="font-style:normal;font-variant:normal;font-weight:normal;font-stretch:normal;font-family:DeeDeeStretch;-inkscape-font-specification:DeeDeeStretch"
     d="m 482.71234,310.94258 q 0,0.36 -0.52,6.32 -0.4,5.04 -0.4,8.44 -0.08,4.8 0.56,7.76 0.68,3.16 2.08,3.88 0.44,0.24 0.72,0.28 0.28,0.04 1.16,0.04 1.56,0 2.16,-0.84 0.44,-0.68 0.92,-3.08 0.6,-3.36 0.68,-7.56 0.08,-4.24 -0.12,-7.24 -0.2,-3.04 -0.68,-7.76 -0.04,-0.48 0.28,-0.88 0.32,-0.4 0.8,-0.44 0.48,-0.04 0.88,0.28 0.4,0.32 0.44,0.8 0.48,4.76 0.68,7.84 0.2,3.04 0.12,7.48 -0.08,4.32 -0.76,7.96 -0.52,2.88 -1.28,3.96 -1.28,1.88 -4.12,1.88 h -0.32 -0.32 -0.28 q -0.24,0 -0.36,-0.04 -0.08,0 -0.28,-0.04 -0.2,0 -0.36,-0.08 -0.12,-0.04 -0.32,-0.12 -0.2,-0.04 -0.4,-0.12 -0.16,-0.08 -0.36,-0.16 -2.36,-1.28 -3.28,-5.52 -0.72,-3.24 -0.64,-8.28 0,-3.12 0.44,-8.6 0.48,-5.96 0.48,-6.24 0.04,-0.52 0.4,-0.84 0.36,-0.36 0.84,-0.32 0.52,0.04 0.84,0.4 0.36,0.36 0.32,0.84 z" /><path
     id="path130"
     style="font-style:normal;font-variant:normal;font-weight:normal;font-stretch:normal;font-family:DeeDeeStretch;-inkscape-font-specification:DeeDeeStretch"
     d="m 503.42484,314.98258 q -1.4,-2.56 -3,-3.16 -1.16,-0.44 -2.28,0.28 -1.16,0.76 -1.76,2.24 -0.6,1.48 -0.2,2.68 0.16,0.52 0.6,0.8 0.48,0.28 1.56,0.56 0.08,0.04 0.6,0.16 0.56,0.12 0.8,0.2 0.24,0.04 0.72,0.24 0.52,0.16 0.84,0.32 0.36,0.16 0.76,0.44 0.44,0.28 0.76,0.56 3.8,3.68 3.24,13.2 -0.16,2.6 -1.56,4.36 -1.36,1.76 -4,2.2 -0.88,0.12 -1.76,0.12 -1.44,0 -2.2,-0.44 -1.96,-1.12 -2.2,-4.24 -0.04,-0.88 0,-2.2 0.08,-1.6 0.08,-1.76 0,-0.48 0.36,-0.84 0.36,-0.36 0.84,-0.36 0.48,0 0.84,0.36 0.36,0.36 0.36,0.84 0,0.2 -0.08,1.88 -0.04,1.16 0,1.92 0.16,1.84 1,2.32 0.2,0.12 1,0.12 0.72,0 1.36,-0.12 3.36,-0.52 3.56,-4.32 0.48,-8.4 -2.52,-11.28 -0.16,-0.16 -0.36,-0.28 -0.16,-0.16 -0.4,-0.24 -0.24,-0.12 -0.4,-0.2 -0.16,-0.08 -0.52,-0.16 -0.32,-0.12 -0.52,-0.16 -0.16,-0.04 -0.6,-0.16 -0.44,-0.12 -0.6,-0.16 -0.64,-0.16 -1.12,-0.32 -0.44,-0.16 -1.04,-0.48 -0.6,-0.32 -1.04,-0.84 -0.44,-0.56 -0.68,-1.32 -0.64,-2 0.24,-4.24 0.92,-2.24 2.76,-3.4 2.12,-1.4 4.4,-0.52 2.44,0.92 4.24,4.28 0.24,0.44 0.08,0.92 -0.12,0.44 -0.56,0.68 -0.44,0.24 -0.92,0.12 -0.44,-0.16 -0.68,-0.6 z" /><path
     id="path132"
     style="font-style:normal;font-variant:normal;font-weight:normal;font-stretch:normal;font-family:DeeDeeStretch;-inkscape-font-specification:DeeDeeStretch"
     d="m 507.09859,337.18258 q 1.96,0.04 3.52,0.04 0,-0.92 0.28,-13 0.16,-7.68 -0.08,-12.12 -2.12,0.04 -3.92,0.08 -0.52,0 -0.88,-0.32 -0.36,-0.36 -0.36,-0.84 0,-0.52 0.36,-0.88 0.32,-0.36 0.8,-0.36 2.08,-0.04 4.68,-0.08 0.16,-0.08 0.36,-0.08 0.28,0 0.52,0.08 h 4.28 q 0.48,0 0.84,0.36 0.36,0.36 0.36,0.84 0,0.48 -0.36,0.84 -0.36,0.36 -0.84,0.36 h -3.44 q 0.24,4.52 0.08,12.2 -0.28,12 -0.28,12.88 1.36,-0.04 2.64,-0.12 0.48,-0.04 0.84,0.32 0.4,0.32 0.44,0.8 0.04,0.48 -0.32,0.88 -0.32,0.36 -0.8,0.4 -3.64,0.24 -8.8,0.12 -0.48,0 -0.84,-0.36 -0.32,-0.36 -0.32,-0.84 0,-0.52 0.36,-0.84 0.36,-0.36 0.88,-0.36 z" /><path
     id="path134"
     style="font-style:normal;font-variant:normal;font-weight:normal;font-stretch:normal;font-family:DeeDeeStretch;-inkscape-font-specification:DeeDeeStretch"
     d="m 520.93547,338.14258 q -0.04,-1.6 -0.24,-5.24 -0.16,-3.64 -0.2,-5.56 v -7.48 -5.36 q 0,-0.16 -0.04,-0.36 -0.04,-0.24 -0.12,-0.6 -0.04,-0.36 -0.08,-0.72 -0.08,-0.76 0.04,-1.2 0.2,-0.68 0.84,-0.96 0.6,-0.24 1.2,0.08 0.36,0.16 0.56,0.52 0.08,0.12 0.16,0.32 0.12,0.24 0.2,0.6 0.16,0.56 0.36,1.44 0.16,0.72 0.44,2.36 0.24,1.2 1.28,8.08 0.76,5.04 1.52,7.88 l 0.08,0.32 q 0,-7.52 -0.44,-21 0,-0.48 0.32,-0.84 0.36,-0.4 0.84,-0.4 0.48,0 0.84,0.36 0.4,0.32 0.4,0.8 0.44,13.68 0.44,21.28 0,0.92 -0.08,2.64 -0.04,1.72 -0.04,2.4 v 0.04 q 0,0.04 0,0.08 0.04,0 0.04,0.12 0.04,0.12 0.08,0.32 0.28,1.36 -0.76,1.88 -0.8,0.44 -1.48,-0.2 -0.16,-0.16 -0.28,-0.4 -0.16,-0.24 -0.32,-0.68 -0.32,-0.72 -0.72,-1.96 -0.72,-2.24 -1.24,-4.12 -0.84,-3.16 -1.6,-8.16 l -0.04,-0.52 q -0.04,1.88 0,3.36 0.04,2.32 0.24,5.56 0.16,3.64 0.2,5.24 0,0.52 -0.36,0.88 -0.32,0.36 -0.84,0.36 -0.48,0 -0.84,-0.32 -0.36,-0.36 -0.36,-0.84 z" /><path
     id="path136"
     style="font-style:normal;font-variant:normal;font-weight:normal;font-stretch:normal;font-family:DeeDeeStretch;-inkscape-font-specification:DeeDeeStretch"
     d="m 532.89984,309.54258 q 1.56,-0.04 5.28,-0.04 0.48,0 0.84,0.36 0.36,0.36 0.36,0.84 0,0.48 -0.36,0.84 -0.36,0.36 -0.84,0.36 -3.28,0 -4.56,0.04 -0.08,4.36 -0.04,11.96 0.84,0.04 2.2,0 0.52,0 0.88,0.36 0.36,0.32 0.36,0.84 0,0.48 -0.36,0.84 -0.32,0.36 -0.8,0.36 -1.48,0.04 -2.28,0 0.04,3.28 0.04,5.32 v 0.56 q 0,0.48 -0.04,1.24 0,0.76 0,1.4 -0.04,1.28 -0.04,1.96 v 0.08 0.08 q 0.24,0.04 0.56,0.08 1,0.12 2.72,0.16 h 2.92 q 1.68,-0.04 2.12,0 0.48,0.04 0.8,0.4 0.36,0.36 0.32,0.88 -0.04,0.48 -0.4,0.8 -0.36,0.36 -0.88,0.32 -0.36,-0.04 -1.92,0 h -3 q -1.84,-0.04 -2.96,-0.2 -0.72,-0.08 -1.2,-0.2 -0.76,-0.24 -1.16,-0.64 -0.16,-0.2 -0.24,-0.44 0,-0.08 -0.04,-0.16 v -0.16 q 0,-0.12 -0.04,-0.28 v -0.72 q 0,-0.72 0.04,-2 0,-0.64 0,-1.4 0.04,-0.76 0.04,-1.2 v -0.56 q 0,-2.08 -0.04,-6.44 -0.04,-4.4 -0.04,-7.76 0.04,-3.4 0.12,-6.48 0,-0.4 0.24,-0.72 0.28,-0.32 0.68,-0.4 0.32,-0.28 0.72,-0.28 z" /><path
     sodipodi:nodetypes="cccccccccccscccccccccscccsccccsccccccccccccccccccccccccccccccccccccccccsccscccccccsccsccccccccccccccscccccccsccccccsscccccccccsccccsccccscsccccccccccccccccccccccccsscscccccsscsccccccccccccccccsscccccccccccccccscccccscccccccccccccccccccccscccccccsscscscscccscscccsscccssscsscccscccccccccccccccccscssccccccccscccssssscccsccccccccccccsccccccccccccccscccccscscccccccccccccsccccccccscscccccccccccccccccsccccccsccccsccscccsscscccccscccscccccccccsccccccccccccscccccccccccccccsccccscccccccccsccccscccccccccccccsccccccccccccc"
     d="m 597.27344,186.83203 v 0.002 0.002 c -1.20399,-0.024 -2.3815,0.63554 -3.53125,1.97851 -1.59664,1.7804 -2.79348,4.39012 -3.5918,7.82813 -0.33041,1.48761 -0.52942,2.93922 -0.61133,4.35742 0.0187,-0.0243 0.0367,-0.0493 0.0566,-0.0723 0.0508,-0.0428 0.0241,-0.0263 0.0586,-0.0449 0.007,-0.004 0.0125,-0.007 0.0195,-0.01 0.002,0 -9.1e-4,0.002 -0.002,0.004 -0.005,0.007 -0.005,0.009 -0.01,0.0195 0.0206,-0.0331 0.0266,-0.0499 0.0566,-0.0723 0.0151,-0.0113 0.0304,-0.0203 0.0469,-0.0293 0.006,-0.004 0.0185,-0.0136 0.0195,-0.008 10e-4,0.003 -0.0581,0.0362 0.006,-0.004 0.0292,-0.0171 0.06,-0.0318 0.0879,-0.0508 0.007,-0.005 0.0204,-0.0171 0.0312,-0.0234 0.0178,-0.0126 0.0369,-0.0291 0.0586,-0.0351 -0.0108,0.0105 -7.6e-4,9.6e-4 0.0137,-0.01 0.006,-0.004 0.0116,-0.01 0.0176,-0.0137 0.0339,-0.0225 0.0682,-0.044 0.10742,-0.0566 -0.0146,0.0312 -0.075,0.1086 -0.0449,0.0918 0.0416,-0.0232 0.0556,-0.0749 0.084,-0.11328 l 0.002,-0.002 c 0.0151,-0.009 -0.0129,0.01 0.043,-0.0273 0.0374,-0.024 0.0744,-0.0448 0.11523,-0.0625 0.009,-0.004 0.0164,-0.007 0.0254,-0.01 0.002,0 0.004,7.5e-4 0.006,0 0.01,-0.004 0.0183,-0.009 0.0273,-0.0137 -0.006,0.0164 10e-4,-0.004 0.041,-0.0215 0.0126,-0.005 0.0258,-0.01 0.0391,-0.0137 0.007,-0.002 0.0145,-0.005 0.0215,-0.006 -0.005,0.006 -0.01,0.0106 -0.0156,0.0156 0.0144,-0.0111 0.0274,-0.0242 0.043,-0.0332 0.035,-0.0209 0.0279,-0.0115 0.0547,-0.0195 0.0247,-0.007 0.0493,-0.0127 0.0742,-0.0176 l -0.002,-0.004 c 10e-4,-2.7e-4 0.003,2.1e-4 0.004,0 l 0.002,-0.002 c 0.009,-0.008 0.0181,-0.0157 0.0274,-0.0234 0.0115,-0.006 0.0353,-0.0194 0.0469,-0.0234 10e-4,-5.4e-4 0.003,-6e-5 0.004,0 0.004,-0.003 0.0106,-0.005 0.0156,-0.008 0.005,-0.004 0.01,-0.008 0.0137,-0.0117 0.0273,-0.0265 0.0119,-0.0154 0.0664,-0.0508 v 0.002 c 0.007,-0.004 0.0145,-0.008 0.0215,-0.0117 0.008,-0.004 0.0154,-0.0107 0.0234,-0.0117 0.004,0 -0.004,0.009 -0.006,0.0117 0.003,-0.003 0.0194,-0.0185 0.0234,-0.0215 0.0294,-0.0205 0.0615,-0.0353 0.0918,-0.0547 -0.0722,0.0741 0.009,-0.01 0.0117,-0.0117 0.0124,-0.008 0.0268,-0.0113 0.041,-0.0156 0.003,-0.005 0.004,-0.01 0.008,-0.0137 0.0341,-0.0365 0.056,-0.0537 0.10157,-0.0664 -10e-4,0.005 -10e-4,0.003 0.008,0 -0.001,0.004 -0.005,0.006 -0.008,0.01 -10e-4,0.001 -0.003,0.007 -0.002,0.006 0.0537,-0.0602 0.017,-0.0316 0.0664,-0.0645 0.009,-0.004 0.0248,-0.0105 0.0371,-0.0156 0.002,-0.002 0.004,-0.002 0.006,-0.004 0.005,-0.004 0.0104,-0.009 0.0156,-0.0137 0.009,-0.007 0.0164,-0.0145 0.0254,-0.0215 0.0175,-0.011 0.005,-6.8e-4 0.0391,-0.0254 0.007,-0.004 0.0145,-0.009 0.0215,-0.0117 0.003,-0.002 0.007,-0.004 0.01,-0.006 0.009,-0.005 0.0183,-0.0106 0.0273,-0.0156 0.0168,-0.007 0.0351,-0.0134 0.0508,-0.0234 0.005,-0.004 0.0101,-0.008 0.0156,-0.01 10e-4,-8.2e-4 0.003,-0.003 0.004,-0.004 0.008,-0.009 0.0158,-0.0166 0.0234,-0.0254 0.0187,-0.0154 0.0488,-0.0391 0.0664,-0.0508 0.0335,-0.0224 0.0707,-0.0405 0.10742,-0.0566 0.003,0.006 4.4e-4,0.002 0.0117,-0.006 0.0133,-0.01 0.0252,-0.0203 0.0391,-0.0293 0.023,-0.0148 0.0513,-0.0237 0.0781,-0.0293 0.003,0 -0.004,0.007 -0.002,0.006 0.027,-0.0191 0.0447,-0.0355 0.0742,-0.0469 -10e-4,0.003 -0.006,0.01 -0.004,0.008 0.008,-0.007 0.0135,-0.0164 0.0215,-0.0234 0.0249,-0.0226 0.0512,-0.0383 0.0801,-0.0547 -0.003,0.004 -0.0116,0.0147 -0.008,0.0117 0.0389,-0.031 0.0304,-0.0383 0.0664,-0.0527 0.005,-0.002 -0.0136,0.0157 -0.01,0.0117 0.01,-0.008 0.0183,-0.0164 0.0273,-0.0254 0.0149,-0.008 0.0293,-0.0164 0.0449,-0.0234 0.002,-8.6e-4 0.003,-7e-4 0.006,-0.002 0.008,-0.006 0.0151,-0.0138 0.0254,-0.0215 0.005,-0.002 0.0102,-0.004 0.0156,-0.006 0.006,-0.003 0.0116,-0.009 0.0176,-0.0117 0.006,-0.002 0.007,0.001 0.0117,-0.004 0.007,-0.006 0.0135,-0.0135 0.0195,-0.0195 0.0249,-0.0214 0.0279,-0.0235 0.0449,-0.0332 0.003,-0.002 0.033,-0.0234 0.043,-0.0254 9.9e-4,0 3.5e-4,0.003 0,0.004 -0.003,0.005 -0.009,0.0106 -0.01,0.0156 -0.001,0.004 0.005,-0.007 0.008,-0.01 0.0195,-0.027 0.0378,-0.0494 0.0625,-0.0723 0.009,-0.009 0.0193,-0.0154 0.0293,-0.0234 0.0317,-0.0235 0.0588,-0.0364 0.0898,-0.0508 l 0.004,-0.004 c 10e-4,-0.001 0.002,-6.5e-4 0.004,-0.002 0.0189,-0.0262 0.048,-0.039 0.0742,-0.0566 v -0.002 c 0.004,-0.003 0.008,-0.006 0.0117,-0.008 -0.002,7.2e-4 -0.004,9.6e-4 -0.006,0.002 0.007,-0.009 0.012,-0.0172 0.0195,-0.0254 0.003,-0.003 0.0292,-0.0243 0.0332,-0.0274 0.0264,-0.019 0.033,-0.0281 0.0586,-0.0371 10e-4,-3.9e-4 0.003,-7e-5 0.004,0 0.0125,-0.007 0.0246,-0.0145 0.0371,-0.0215 0.002,-9.2e-4 0.009,-0.004 0.008,-0.002 -0.008,0.0129 -0.0193,0.0235 -0.0293,0.0352 0.0198,-0.034 0.01,-0.0169 0.0488,-0.0547 0.0154,-0.0128 0.0306,-0.0244 0.0488,-0.0332 0.0154,-0.0101 0.0325,-0.02 0.0469,-0.0312 0.0102,-0.008 0.0207,-0.0184 0.0312,-0.0254 0.009,-0.006 0.0164,-0.009 0.0254,-0.0137 0.003,-0.001 0.0106,-0.006 0.01,-0.004 0.003,-0.003 0.007,-0.005 0.01,-0.008 0.0131,-0.0105 0.0268,-0.0203 0.041,-0.0293 0.004,-0.003 0.009,-0.01 0.0117,-0.006 0.001,0.005 -0.0106,0.0196 -0.008,0.0156 0.008,-0.01 0.0115,-0.0233 0.0215,-0.0312 0.021,-0.0169 0.0305,-0.0144 0.041,-0.0195 l 0.002,-0.002 c 0.0384,-0.0302 0.0281,-0.0256 0.0606,-0.041 0.002,-0.001 0.003,-2.4e-4 0.006,-0.002 0.005,-0.005 0.005,-0.007 0.0293,-0.0273 0.006,-0.004 0.0145,-0.005 0.0215,-0.008 -0.003,-0.008 -0.006,-0.0154 -0.006,-0.0273 1.6e-4,-0.0121 -1.6e-4,-0.0231 0,-0.0352 9e-4,-0.0703 0.0238,-0.11059 0.0547,-0.13672 0.5204,-2.24987 1.2792,-3.95626 2.27929,-5.11523 0.97187,-1.10507 1.96023,-1.31986 2.9668,-0.64454 0.49741,0.32993 0.98362,0.86008 1.45898,1.57618 0.0293,-0.0293 0.054,-0.0618 0.0996,-0.0801 0.0251,-0.0101 0.0508,-0.0186 0.0762,-0.0274 0.0111,-0.0122 0.0244,-0.0222 0.0371,-0.0332 0.0269,-0.0233 0.042,-0.0312 0.0625,-0.043 10e-4,-3.8e-4 0.003,-0.002 0.004,-0.002 0.0361,-0.0102 0.07,-0.0246 0.10547,-0.0371 -0.0274,0.007 -0.0548,0.0135 -0.082,0.0215 l -0.002,0.002 c -0.003,0.002 -0.007,0.004 -0.006,0.002 0.003,-0.005 0.008,-0.009 0.0117,-0.0117 0.0154,-0.0119 0.0279,-0.0372 0.0469,-0.0332 0.0177,0.004 -0.0273,0.0234 -0.041,0.0352 0.0645,-0.0157 0.12886,-0.0312 0.19336,-0.0469 -0.0398,-0.0696 -0.078,0.0103 -0.11523,0 -0.009,-0.002 0.0154,-0.0106 0.0234,-0.0156 0.0148,-0.008 0.0301,-0.0144 0.0449,-0.0234 0.003,-0.001 0.003,-0.004 0.006,-0.006 0.01,-0.007 0.0212,-0.0125 0.0312,-0.0195 0.0131,-0.007 0.0262,-0.0154 0.0391,-0.0234 0.004,-0.003 0.008,-0.005 0.0117,-0.008 l 0.002,-0.002 h 0.002 c 0.0159,-0.0164 0.0242,-0.0361 0.0293,-0.041 0.008,-0.007 0.0154,-0.0135 0.0234,-0.0195 0.0143,-0.01 0.0279,-0.0194 0.043,-0.0274 0.0212,-0.0119 0.0559,-0.027 0.0781,-0.0449 0.003,-0.004 0.004,-0.01 0.008,-0.0137 0.0554,-0.0606 0.0188,-0.0114 0.125,-0.0684 0.0207,-0.0112 -0.0429,0.0224 -0.0664,0.0234 -0.0119,6e-4 0.0183,-0.0145 0.0273,-0.0215 0.0401,-0.0346 0.0856,-0.0642 0.13477,-0.084 0.005,-0.002 3.4e-4,-3e-4 0.006,-0.002 0.0655,-0.0379 0.0673,-0.0302 0.0879,-0.0352 0.002,-0.002 0.005,-0.002 0.008,-0.004 0.0168,-0.012 0.0336,-0.0238 0.0508,-0.0351 0.0209,-0.0131 0.055,-0.0268 0.0859,-0.0508 0.0107,-0.007 0.0226,-0.0145 0.0332,-0.0215 0.0217,-0.0144 0.0161,-0.0159 0.0469,-0.0312 0.0101,-0.005 0.0207,-0.008 0.0312,-0.0117 l 0.002,-0.002 c 0.011,-0.0102 0.0231,-0.0205 0.0352,-0.0293 0.049,-0.035 0.0362,-0.0211 0.0723,-0.0449 l 0.004,-0.004 c 0.005,-0.003 0.009,-0.005 0.0137,-0.008 0.006,-0.006 0.006,-0.01 0.01,-0.0137 0.022,-0.0144 0.0444,-0.0286 0.0664,-0.043 -0.005,0.002 -0.0186,0.01 -0.0156,0.006 0.009,-0.01 0.0211,-0.0154 0.0312,-0.0234 0.019,-0.0189 0.0461,-0.0245 0.0684,-0.0371 0.004,-0.003 -0.0177,0.008 -0.0137,0.006 0.0177,-0.0103 0.0354,-0.0182 0.0527,-0.0293 10e-4,-0.001 -0.005,-9.6e-4 -0.004,-0.002 0.009,-0.009 0.0212,-0.0174 0.0312,-0.0254 0.0253,-0.0152 0.0554,-0.0255 0.0723,-0.0508 10e-4,-0.003 -5e-5,-0.008 0.002,-0.01 0.0126,-0.0157 0.0277,-0.0299 0.041,-0.0449 0.0654,-0.0573 0.002,-0.009 0.10742,-0.0664 0.013,-0.007 -0.0259,0.0106 -0.0391,0.0176 -0.004,0.002 -0.0177,0.0138 -0.0137,0.01 0.0335,-0.0335 0.0384,-0.0358 0.0703,-0.0606 0.0217,-0.006 0.0436,-0.0259 0.0664,-0.041 -0.002,-0.001 0.0302,-0.0253 0.0352,-0.0293 -0.004,0.004 -0.004,0.007 -0.01,0.0137 0.0136,-0.0154 0.0249,-0.0336 0.0488,-0.0547 0.026,-0.0272 0.0346,-0.0336 0.0801,-0.0625 -0.0491,-0.002 -0.004,-0.006 0.0137,-0.0117 0.003,-0.004 0.003,-0.008 0.006,-0.0117 0.008,-0.0122 0.0174,-0.0252 0.0254,-0.0371 0.0211,-0.0175 0.0424,-0.0364 0.0645,-0.0527 0.0102,-0.007 0.0224,-0.0116 0.0332,-0.0176 0.003,-0.002 0.005,-0.004 0.008,-0.006 -10e-4,2.7e-4 -0.005,8.4e-4 -0.004,0 0.004,-0.004 0.0418,-0.0311 0.0527,-0.0391 0.1381,-0.0762 -0.001,0.007 0.0469,-0.0332 0.0171,-0.0143 0.0351,-0.0255 0.0527,-0.0391 0.0203,-0.0142 0.0298,-0.0179 0.041,-0.0234 0.003,-0.006 0.01,-0.0124 0.0156,-0.0176 0.0188,-0.0158 0.0388,-0.0286 0.0586,-0.043 0.0321,-0.0292 0.014,-0.0162 0.0898,-0.0586 0.008,-0.005 -0.0224,0.0188 -0.0254,0.01 -0.003,-0.009 0.0154,-0.0116 0.0234,-0.0176 0.0114,-0.009 0.0204,-0.0148 0.0254,-0.0176 0.0101,-0.0123 0.0226,-0.0232 0.0352,-0.0332 0.0214,-0.0167 0.0557,-0.0366 0.0801,-0.0527 0.002,-0.001 0.002,-0.004 0.004,-0.006 v -0.002 c 0.004,-0.006 0.009,-0.0106 0.0137,-0.0156 0.007,-0.007 0.0113,-0.0112 0.0156,-0.0156 0.002,-0.005 0.002,-0.008 0.004,-0.0117 0.008,-0.0169 0.0333,-0.0646 0.0469,-0.082 0.009,-0.0119 0.0211,-0.022 0.0312,-0.0332 0.002,-0.008 0.0261,-0.0327 0.0449,-0.0527 -0.004,0.003 0.004,-0.008 0.006,-0.0117 0.004,-0.004 0.009,-0.008 0.0137,-0.0117 0.0196,-0.0187 0.039,-0.038 0.0586,-0.0566 -0.006,0.003 -0.0106,0.0108 -0.0176,0.01 -0.002,0.002 -0.003,0.006 -0.006,0.006 -0.006,-7e-4 0.007,-0.0126 0.01,-0.0176 0.009,-0.0134 0.0183,-0.026 0.0273,-0.0391 0.001,-0.002 0.002,-0.006 0.004,-0.008 v -0.002 -0.002 c -1.6e-4,-0.0179 -0.0127,-0.0343 -0.008,-0.0469 0.004,-0.009 0.0105,-0.0169 0.0156,-0.0254 -1.03746,-2.0634 -2.16632,-3.52268 -3.38867,-4.33789 -0.74191,-0.50649 -1.47292,-0.76881 -2.19531,-0.7832 z m 4.54883,6.16406 c -10e-4,0.002 -0.003,2.4e-4 -0.004,0.002 -0.0147,0.0185 -0.0345,0.0455 -0.0273,0.0332 0.0133,-0.0227 0.0225,-0.0253 0.0312,-0.0352 z m -0.9336,0.66211 c 0.009,-0.002 0.007,-0.005 0.0273,-0.0117 0.002,-4.6e-4 -0.002,-0.003 -0.004,-0.002 -0.008,0.004 -0.0188,0.011 -0.0234,0.0137 z m 1.6836,-0.86914 c 8.2e-4,-6.5e-4 0.0126,-0.009 0.0176,-0.0137 0.003,-0.003 0.0108,-0.0128 0.008,-0.01 -0.025,0.0239 -0.025,0.0219 -0.0254,0.0234 z m -2.23829,1.73242 c -0.004,0.002 -0.007,0.004 -0.0117,0.006 0.004,-0.002 0.004,-1.9e-4 0.008,-0.002 l 0.004,-0.004 z m -0.19921,0.0566 c -0.002,0.004 -0.005,0.008 -0.008,0.0117 0.004,-4e-4 0.005,-0.003 0.008,-0.004 5.5e-4,-0.002 -3.8e-4,-0.006 0,-0.008 z m -7.04883,4.17383 c -0.0121,0.0285 -0.0301,0.0558 -0.0293,0.0859 2.4e-4,0.006 0.008,0.006 0.0117,0.0156 0.006,-0.0339 0.0121,-0.0681 0.0176,-0.10157 z m -1.03907,0.71485 c -0.002,7.9e-4 -0.004,8.5e-4 -0.006,0.002 -0.006,0.004 -0.0177,0.0197 -0.0137,0.0137 0.005,-0.008 0.0137,-0.0103 0.0195,-0.0156 z m -2.35938,1.72656 c 0.003,6.1e-4 0.004,8.5e-4 0.006,0.002 v -0.002 c -0.002,-3.4e-4 -0.004,4e-4 -0.006,0 z m 0.10352,4.55664 c -0.005,0.004 -0.0105,0.006 -0.0156,0.01 0.01,-1.8e-4 0.0195,0.002 0.0293,0.002 -0.004,-0.003 -0.008,-0.007 -0.0117,-0.01 z m -0.0332,0.14062 0.002,0.008 0.002,0.01 0.002,0.01 0.002,0.01 c 0.025,0.15855 0.0438,0.31899 0.0723,0.47657 0.20826,1.16646 0.50296,2.17956 0.88477,3.03906 0.3818,0.79811 0.83287,1.44245 1.35351,1.93359 0.52064,0.49115 0.97171,0.8599 1.35352,1.10547 0.41651,0.24557 0.90168,0.49076 1.45703,0.73633 0.13884,0.0614 0.39945,0.18496 0.78125,0.36914 0.3818,0.18418 0.64241,0.3058 0.78125,0.36719 0.17355,0.0614 0.40006,0.18496 0.67773,0.36914 0.31239,0.12278 0.53695,0.24635 0.67578,0.36914 l 0.52149,0.45898 c 0.20826,0.12279 0.38069,0.30717 0.51953,0.55274 0.17355,0.18418 0.32991,0.39896 0.46875,0.64453 2.60321,4.42029 3.69776,13.07624 3.28125,25.96875 -0.17355,5.83233 -1.71917,9.14916 -4.63477,9.94726 -0.55535,0.18423 -1.14476,0.2754 -1.76953,0.2754 -0.69419,0 -1.12918,-0.0912 -1.30273,-0.2754 -0.7289,-0.73671 -1.16194,-2.51772 -1.30078,-5.34179 -0.0347,-1.16647 -0.0347,-2.63953 0,-4.41992 0.0694,-2.57851 0.10351,-4.02116 0.10351,-4.32813 0,-0.73671 -0.15636,-1.38106 -0.46875,-1.93359 -0.31238,-0.55254 -0.67528,-0.83008 -1.09179,-0.83008 -0.41652,0 -0.78137,0.27754 -1.09375,0.83008 -0.31239,0.55253 -0.46875,1.19688 -0.46875,1.93359 0,0.24557 -0.0341,1.59507 -0.10352,4.05078 -0.0347,2.02597 -0.0347,3.71576 0,5.06641 0.20826,4.78865 1.16252,8.04076 2.86328,9.75976 0.65948,0.67533 1.61374,1.01368 2.86328,1.01368 0.76361,0 1.52741,-0.0912 2.29102,-0.27539 2.29082,-0.67533 4.02496,-2.36512 5.20508,-5.06641 1.21483,-2.70129 1.89241,-6.04657 2.03125,-10.03711 0.48593,-14.61151 -0.91941,-24.74052 -4.2168,-30.38867 -0.27768,-0.42975 -0.60843,-0.85931 -0.99023,-1.28906 -0.3471,-0.42975 -0.6759,-0.7681 -0.98829,-1.01368 -0.27767,-0.24557 -0.64252,-0.49075 -1.09375,-0.73632 -0.41651,-0.30697 -0.72924,-0.49135 -0.9375,-0.55274 -0.18394,-0.10845 -0.51937,-0.2498 -0.91992,-0.40625 -0.003,-8.2e-4 -0.007,-0.003 -0.008,-0.004 -0.002,4.6e-4 -0.004,-0.003 -0.006,-0.002 v -0.002 h -0.002 c -0.0116,-1e-4 -0.0236,9.5e-4 -0.0352,0 -0.0298,-0.003 -0.0458,-0.01 -0.0723,-0.0195 -0.002,-1.6e-4 -0.002,1.3e-4 -0.004,0 -0.0409,-0.003 -0.0387,-0.002 -0.082,-0.0176 -0.006,-0.002 -0.0116,-0.007 -0.0176,-0.01 -0.007,-0.004 -0.0145,-0.005 -0.0215,-0.01 -10e-4,-10e-4 0.005,-8e-4 0.004,-0.002 -0.008,-0.002 -0.0154,-0.003 -0.0234,-0.004 0.0323,4e-4 -0.005,-7.5e-4 -0.0547,-0.0156 -0.006,-0.002 -0.0106,-0.007 -0.0156,-0.01 -10e-4,-10e-4 -7.5e-4,-0.003 -0.002,-0.004 -0.0272,-0.0135 -0.0365,-0.009 0.0117,-0.0117 -0.0261,0.003 -0.0453,0.007 -0.0762,0.002 -0.0947,-0.0162 0.008,-0.0184 -0.0547,-0.0254 -0.0336,-0.006 -0.0501,-0.008 -0.084,-0.0195 -0.009,-0.003 -0.0183,-0.01 -0.0273,-0.0137 -10e-4,-0.001 -0.003,-8e-4 -0.004,-0.002 -0.0759,-0.0375 0.008,0.007 -0.0527,-0.0254 -0.005,-0.002 -0.007,-0.007 -0.0156,-0.01 h -0.002 c -0.0294,-0.002 -0.0475,-0.009 -0.0723,-0.0215 -0.006,-0.003 -0.0116,-0.009 -0.0176,-0.0117 -10e-4,-0.001 -0.004,2.4e-4 -0.004,-0.002 0,-0.001 0.004,-0.002 0.006,-0.002 -0.01,-0.002 -0.0197,-0.005 -0.0293,-0.008 -0.003,1.4e-4 -0.003,-1.3e-4 -0.006,0 -0.0128,-0.003 -0.0265,-0.008 -0.0391,-0.0117 -0.0197,-0.005 -0.0452,-0.0214 -0.0703,-0.0352 -0.002,1.7e-4 -0.002,-1.3e-4 -0.004,0 -0.001,-7e-4 -0.002,-8.1e-4 -0.004,-0.002 -0.0275,0.001 -0.0416,5e-4 -0.0684,-0.01 -0.006,-0.003 -0.0116,-0.005 -0.0176,-0.008 -0.002,-0.002 -0.009,-0.005 -0.0117,-0.006 -0.012,-0.004 -0.0249,-0.005 -0.0371,-0.008 -0.009,-0.002 -0.042,-0.0127 -0.0508,-0.0156 -0.0621,-0.0178 -0.12204,-0.0413 -0.18164,-0.0664 -0.0143,-0.007 -0.0286,-0.0125 -0.043,-0.0195 -0.036,-0.0174 -0.0693,-0.0395 -0.10547,-0.0566 -0.0302,-0.0117 -0.037,-0.0175 -0.0215,-0.0215 -0.0376,0.004 -0.0655,0.006 -0.10352,-0.0156 -0.003,-0.002 -0.0107,-0.004 -0.0117,-0.008 -0.001,-0.002 0.01,6.6e-4 0.008,0 -0.0128,-0.004 -0.0263,-0.007 -0.0391,-0.01 -0.007,-0.002 -0.0399,-0.0125 -0.0527,-0.0215 -0.0165,-0.004 -0.0256,-0.008 -0.0449,-0.0156 -0.0277,-0.0115 -0.0505,-0.0301 -0.0801,-0.0371 -0.0174,-0.004 -0.0271,-0.005 -0.0469,-0.0117 -0.0217,-0.008 -0.0475,-0.0242 -0.0684,-0.0332 -0.009,-0.004 -0.0174,-0.005 -0.0254,-0.01 -0.002,-0.002 0.006,-0.005 0.008,-0.006 -0.0235,-0.006 -0.0478,-0.007 -0.0703,-0.0156 -0.0123,-0.005 -0.0208,-0.0154 -0.0312,-0.0234 l -0.002,-0.002 v -0.002 c -0.008,-0.003 -0.0156,-0.007 -0.0234,-0.01 -0.0161,-0.006 -0.0327,-0.0116 -0.0488,-0.0176 10e-4,-0.001 0.005,-0.002 0.004,-0.002 -0.009,-0.003 -0.0164,-0.007 -0.0254,-0.01 -0.02,-0.007 -0.0494,-0.0244 -0.0644,-0.0332 -0.005,-0.002 -0.007,-0.002 -0.0254,-0.01 -0.0406,-0.0163 -0.0883,-0.0248 -0.12305,-0.0527 -0.004,-0.002 -0.01,-0.002 -0.0117,-0.006 -5.5e-4,-0.002 0.002,-6.1e-4 0.004,0 0.005,-8.2e-4 0.0177,-0.002 0.0137,-0.002 -0.0753,-0.006 -0.0238,0.006 -0.0898,-0.0137 -0.0319,-0.0142 -0.0644,-0.0285 -0.0977,-0.0391 -0.0127,-0.004 -0.0245,-0.008 -0.0371,-0.0117 -0.004,-0.001 -0.009,-0.005 -0.0117,-0.006 -0.0149,-0.003 -0.0297,-0.006 -0.0449,-0.008 -0.001,-7.6e-4 -0.002,-8.2e-4 -0.004,-0.002 -0.005,-10e-4 -0.007,-8e-4 -0.01,-0.002 -0.0434,-0.009 -0.0862,-0.0212 -0.125,-0.043 -0.0304,-0.0161 -0.0585,-0.033 -0.0918,-0.043 -0.013,-0.004 -0.10733,-0.0255 -0.11133,-0.0273 -0.006,-0.002 -0.0104,-0.005 -0.0156,-0.008 -0.003,-8.2e-4 -0.005,-0.003 -0.008,-0.004 -0.047,-0.0102 -0.0953,-0.0125 -0.14257,-0.0215 -0.009,-0.003 -0.0166,-0.005 -0.0254,-0.008 -10e-4,-4.1e-4 -0.003,5e-4 -0.004,0 -0.0119,-0.002 -0.0241,-0.005 -0.0332,-0.008 -0.065,-0.0188 -0.0451,-0.0114 -0.0918,-0.0352 -0.01,-0.005 -0.0193,-0.01 -0.0293,-0.0137 l -0.0176,-0.01 c -0.0203,-0.004 -0.0413,-0.005 -0.0606,-0.0137 -0.0336,-0.006 -0.0688,-0.0105 -0.10156,-0.0195 -0.0149,-0.004 -0.0305,-0.0116 -0.0449,-0.0176 -0.005,-0.002 -0.0117,-0.002 -0.0137,-0.008 -10e-4,-0.004 0.0157,0.001 0.0117,0 -0.0155,-0.004 -0.0312,-0.007 -0.0469,-0.01 -0.0148,-0.006 -0.0301,-0.0135 -0.0449,-0.0195 -0.0122,-0.007 -0.0226,-0.0135 -0.0351,-0.0195 -0.0475,-0.0221 -0.0985,-0.0327 -0.14844,-0.0469 -0.0449,-0.0188 -0.0917,-0.0338 -0.13477,-0.0566 -0.003,-0.002 -0.0117,-0.002 -0.0117,-0.006 0,-0.003 0.0139,10e-4 0.0117,0 -0.0103,-0.004 -0.0208,-0.005 -0.0312,-0.008 -0.0307,-0.009 -0.0547,-0.0254 -0.0879,-0.0273 -0.0229,-0.009 -0.0316,-0.005 -0.0605,-0.01 -0.0354,-0.006 -0.0672,-0.0191 -0.0996,-0.0332 -0.0393,-0.018 -0.0787,-0.0329 -0.11719,-0.0527 -0.005,-0.003 -0.009,-0.005 -0.0156,-0.008 -0.007,-0.001 -0.0145,-5.2e-4 -0.0215,-0.002 -0.0111,-0.002 -0.0208,-0.006 -0.0312,-0.01 -0.0307,-0.0114 -0.0601,-0.0255 -0.0898,-0.0391 -0.009,-0.002 -0.0244,7.4e-4 -0.0274,-0.008 -0.0271,9e-4 -0.0548,-0.002 -0.0801,-0.0117 -0.0453,-0.015 -0.0402,-0.013 -0.0762,-0.0332 -0.0102,-0.006 -0.0213,-0.01 -0.0293,-0.0176 -10e-4,-0.001 0.0677,0.0235 -0.008,0 -0.0267,-0.008 -0.0403,-0.0115 -0.0684,-0.0234 -0.008,-0.003 -0.0164,-0.005 -0.0234,-0.01 -0.001,-8.8e-4 0.008,5.4e-4 0.006,0 -0.0886,-0.0316 -0.005,0.005 -0.0684,-0.0234 -0.0293,-0.0133 -0.0598,-0.0274 -0.0879,-0.043 -0.002,-9.1e-4 -0.007,-0.004 -0.01,-0.006 -0.0194,-0.003 -0.0397,-0.006 -0.0586,-0.0117 -0.0146,-0.004 -0.0274,-0.0105 -0.041,-0.0176 -0.007,1.9e-4 -0.0119,8.9e-4 -0.0215,0 -0.0265,-0.003 -0.0239,-0.007 -0.041,-0.0117 -0.0615,-0.0166 -0.0308,-0.004 -0.084,-0.0273 -0.0314,-0.0159 -0.0637,-0.0323 -0.0957,-0.0469 -0.0617,-0.0282 -0.1254,-0.049 -0.1875,-0.0762 -0.008,-0.004 -0.0139,-0.006 -0.0215,-0.01 -0.0108,-0.003 -0.0211,-0.01 -0.0332,-0.008 -0.0109,-0.002 -0.0242,7e-4 -0.0332,-0.006 -0.0302,-0.0176 -0.0508,-0.0385 -0.0703,-0.0605 -0.0198,-0.005 -0.04,-0.007 -0.0586,-0.0176 -0.0113,-4e-4 -0.022,1.8e-4 -0.0332,-0.002 -0.004,-0.001 -0.0119,-7.6e-4 -0.0156,-0.002 l -0.002,-0.002 c -0.0428,-0.004 -0.0314,8.1e-4 -0.0742,-0.0117 -0.0146,-0.004 -0.0327,-0.004 -0.043,-0.0156 -0.007,-3.6e-4 -0.0127,-8e-5 -0.0215,-0.002 -0.006,-0.001 -0.0132,-0.002 -0.0195,-0.004 -10e-4,1.6e-4 -0.003,-1.4e-4 -0.004,0 -0.0342,-0.009 -0.0262,-0.004 -0.0547,-0.0156 -0.007,-0.003 -0.0145,-0.007 -0.0215,-0.01 -0.007,-0.003 -0.0135,-0.005 -0.0195,-0.008 l 0.002,-0.004 c -0.0115,-6.2e-4 -0.0217,0.004 -0.0332,0.004 -0.042,-0.007 -0.0497,-0.017 -0.0605,-0.0234 -0.007,-0.004 -0.008,-0.001 -0.0371,-0.0156 -0.004,-0.002 0.006,0.006 0.0117,0.01 -0.004,-9.9e-4 -0.009,-7.2e-4 -0.0137,-0.002 -0.0268,-0.01 -0.0265,-0.012 -0.0586,-0.0312 -0.003,-6.8e-4 -0.007,-0.002 -0.008,-0.002 -0.0355,-0.006 -0.0485,-0.0183 -0.0606,-0.0234 h -0.002 c 0.005,0.005 -0.0457,-0.01 -0.0391,-0.008 0.0242,-4e-4 -0.004,9.3e-4 -0.0449,-0.0117 -0.007,-0.002 -0.0116,-0.009 -0.0176,-0.0117 -10e-4,-0.001 -0.002,-0.005 -0.004,-0.006 -0.008,-0.004 -0.0154,-0.009 -0.0234,-0.0117 -0.007,-0.003 -0.013,-0.007 -0.0195,-0.01 -0.004,-0.002 -0.009,-0.004 -0.0137,-0.006 -0.0121,-0.0131 -0.0324,-0.016 -0.0469,-0.0273 0.0206,0.0173 0.0487,0.0483 0.0606,0.0332 0.004,-0.005 0.008,-0.013 0.004,-0.0391 0.0396,-0.018 -0.0153,0.007 -0.0293,0.008 -0.054,0.003 -0.0813,-0.0176 -0.11523,-0.0488 -0.0319,0.0105 -0.0694,0.0162 -0.11719,0.002 -0.029,-0.009 -0.0564,-0.0201 -0.084,-0.0332 -0.006,-0.004 -0.0145,-0.007 -0.0195,-0.0117 -0.002,-0.001 -0.003,-0.003 -0.006,-0.004 0.004,0.001 0.0157,0.006 0.0117,0.004 -0.007,-0.004 -0.0141,-0.008 -0.0215,-0.0117 -0.0187,-0.003 -0.0349,-0.0102 -0.0527,-0.0156 z m 0.18555,0.006 c -0.004,0.003 -0.008,0.005 -0.0117,0.008 0.002,-6e-5 0.004,6e-5 0.006,0 0.004,0 0.009,-0.01 0.006,-0.008 z m 5.16406,1.69141 c -0.003,0 -0.01,0.002 -0.008,0.002 0.0367,0.003 0.0268,0.006 0.041,0.006 -0.005,-0.003 -0.0104,-0.005 -0.0156,-0.008 -0.006,2.3e-4 -0.0117,-2.5e-4 -0.0176,0 z m 0.63281,0.4082 c -0.01,0.003 -0.0196,0.008 -0.0293,0.0117 0.008,1.4e-4 -0.004,1.1e-4 0.0176,-0.004 0.004,-0.001 0.0157,-0.009 0.0117,-0.008 z"
     transform="matrix(0.7682833,0,0,0.43436062,91.171541,228.08862)"
     style="font-style:normal;font-variant:normal;font-weight:normal;font-stretch:normal;font-family:DeeDeeStretch;-inkscape-font-specification:DeeDeeStretch;stroke-width:1.73107"
     id="path138" /><path
     sodipodi:nodetypes="ccsccsccccsccccsscccccscccscccscsccsccscscccscccccccccccccscccssssscccsccccccccc"
     d="m 623.16992,228.31641 c -0.0221,0.002 -0.0442,0.003 -0.0664,0.006 -0.0577,0.007 -0.11393,0.0291 -0.16993,0.043 -0.0978,0.0242 -0.13119,0.0267 -0.18164,0.0332 -0.0276,0.0228 -0.0499,0.0541 -0.082,0.0703 -0.0983,0.0501 -0.216,0.0233 -0.31836,0.008 -10e-4,-6e-5 -0.002,7e-5 -0.004,0 -0.0293,0.0122 -0.0454,0.0194 -0.082,0.0352 -0.14765,0.0592 -0.30115,-0.005 -0.44921,0.008 -0.056,0.003 -0.11197,0.002 -0.16797,0.002 -0.0169,0.007 -0.0262,0.0173 -0.0469,0.0215 -0.0445,0.009 -0.0431,0.008 -0.0879,0.0176 h -0.002 c -0.002,0.002 -0.005,0.004 -0.008,0.006 -0.005,0.003 -0.009,0.006 -0.0137,0.008 -0.0273,0.0266 -0.0679,0.0469 -0.13476,0.0469 -0.0379,0 -0.0466,-0.002 -0.0801,0.01 -0.0139,0.005 -0.0251,0.0205 -0.041,0.0215 -0.0263,0.002 -0.0537,-10e-4 -0.0801,-0.002 0.008,8.1e-4 0.0184,-1.1e-4 0.0234,0.006 0.008,0.009 -0.0236,0.003 -0.0352,0.004 -0.0286,0.004 -0.0573,0.004 -0.0859,0.004 -0.01,0.005 -0.0142,0.0138 -0.0625,0.0215 -0.004,6.7e-4 0.008,-8.4e-4 0.0117,0 0.002,0.001 -0.002,0.002 -0.004,0.002 -0.0266,0.005 -0.0204,0.003 -0.0488,0.004 0.006,-8e-5 0.0166,-0.006 0.0176,0 0.001,0.006 -0.0106,0.004 -0.0156,0.006 -0.002,0.001 -0.005,0.003 -0.008,0.004 -0.0173,0.006 -0.0304,0.004 -0.043,0.006 -0.009,10e-4 -0.0208,0.003 -0.0312,0.004 -8.1e-4,2.1e-4 -0.006,0.002 -0.006,0.002 -0.12331,-0.003 -0.0274,0.004 -0.0234,0.002 0.006,-0.003 0.0649,-0.0323 0.004,0.002 -0.008,0.005 -0.0174,0.008 -0.0254,0.0117 -0.037,0.0145 -0.0723,0.0167 -0.11133,0.0137 -10e-4,0 -0.003,1.1e-4 -0.004,0 -0.0257,0.0106 -0.0506,0.0236 -0.0781,0.0293 -0.0115,0.002 -0.0235,0.003 -0.0352,0.004 -10e-4,0 -0.003,3e-5 -0.004,0 -0.006,0.003 -0.0128,0.005 -0.0195,0.006 -0.0142,0.002 -0.0285,0.003 -0.043,0.004 -0.007,0.008 -0.007,0.007 -0.0254,0.01 -10e-4,0.002 -0.004,0.003 -0.006,0.004 -0.0103,0.003 -0.0205,0.007 -0.0312,0.008 -0.01,0.001 -0.0197,0.004 -0.0293,0.004 -0.027,0.0146 -0.0332,0.0182 -0.084,0.0215 0.005,0.001 0.0126,-0.002 0.0156,0.002 0.002,0.004 -0.0119,0.003 -0.0156,0.004 -0.007,0.001 -0.0106,9.1e-4 -0.0176,0.002 -0.01,7.7e-4 -0.0196,1.4e-4 -0.0293,0 -0.005,0.002 -0.0104,0.004 -0.0156,0.006 -0.004,0.001 -0.0156,0.006 -0.0117,0.004 -0.009,0.003 -0.0181,0.007 -0.0273,0.01 -0.003,2.9e-4 -0.008,0.002 -0.0117,0.002 0.0241,0.1626 0.0492,0.32841 0.0684,0.48047 0.54673,4.32821 0.18684,6.53811 -0.0215,12.98437 -0.17354,5.83232 -1.71918,9.14916 -4.63477,9.94727 -0.55535,0.18419 -1.14476,0.27539 -1.76953,0.27539 -0.69418,0 -1.12724,-0.0912 -1.30078,-0.27539 -0.7289,-0.73671 -1.1639,-2.51772 -1.30274,-5.3418 -0.0348,-1.16648 -0.0348,-2.63954 0,-4.41992 0.0694,-2.57851 0.10352,-4.02117 0.10352,-4.32813 0,-0.73671 -0.15636,-1.38106 -0.46875,-1.93359 -0.31238,-0.55254 -0.67529,-0.83008 -1.0918,-0.83008 -0.41652,0 -0.78137,0.27754 -1.09375,0.83008 -0.31239,0.55253 -0.46875,1.19688 -0.46875,1.93359 0,0.24558 -0.0341,1.59506 -0.10351,4.05079 -0.0348,2.02597 -0.0348,3.71574 0,5.0664 0.20826,4.78865 1.16252,8.04076 2.86328,9.75977 0.65948,0.67532 1.61374,1.01367 2.86328,1.01367 0.76361,0 1.5274,-0.0912 2.29102,-0.27539 2.29082,-0.67532 4.0269,-2.36513 5.20703,-5.06641 1.21482,-2.70128 1.89044,-6.04658 2.02929,-10.03711 0.17975,-5.4051 0.0977,-10.19255 -0.24023,-14.37109 z m -2.26758,0.38086 c -4.4e-4,-0.005 0.003,0.0147 0.002,0.008 -2.5e-4,-0.003 2.5e-4,-0.005 0,-0.008 z"
     transform="matrix(0.7682833,0,0,0.43436062,91.171541,228.08862)"
     style="font-style:normal;font-variant:normal;font-weight:normal;font-stretch:normal;font-family:DeeDeeStretch;-inkscape-font-specification:DeeDeeStretch;stroke-width:1.73107"
     id="path140" /></g></g>
<g
   style="font-style:normal;font-weight:normal;font-size:40px;line-height:1.35;font-family:sans-serif;letter-spacing:3.09499px;word-spacing:0.154996px;white-space:pre;shape-inside:url(#rect255);fill:#000000;fill-opacity:1;stroke:none"
   id="text253"
   transform="matrix(1.6992786,0,0,2.2043024,-427.99863,-220.4413)"
   aria-label="NOW"><path
     id="path259"
     style="font-style:normal;font-variant:normal;font-weight:normal;font-stretch:normal;font-family:DeeDeeStretch;-inkscape-font-specification:DeeDeeStretch;baseline-shift:baseline"
     d="m 642.62688,197.35352 q -0.04,-1.6 -0.24,-5.24 -0.16001,-3.64 -0.20001,-5.56 v -7.48 -5.36 q 0,-0.16 -0.04,-0.36 -0.04,-0.24 -0.12,-0.6 -0.04,-0.36 -0.08,-0.72 -0.08,-0.76 0.04,-1.2 0.19999,-0.68 0.83999,-0.96 0.6,-0.24 1.20001,0.08 0.36,0.16 0.55999,0.52 0.08,0.12 0.16001,0.32 0.12,0.24 0.19999,0.6 0.16,0.56 0.36,1.44 0.16,0.72 0.44001,2.36 0.24,1.2 1.28,8.08 0.75999,5.04 1.51999,7.88 l 0.08,0.32 q 0,-7.52 -0.44001,-21 0,-0.48 0.32001,-0.84 0.36,-0.4 0.83999,-0.4 0.48,0 0.84,0.36 0.4,0.32 0.4,0.8 0.44001,13.68 0.44001,21.28 0,0.92 -0.08,2.64 -0.04,1.72 -0.04,2.4 v 0.04 q 0,0.04 0,0.08 0.04,0 0.04,0.12 0.04,0.12 0.08,0.32 0.27999,1.36 -0.76,1.88 -0.80001,0.44 -1.48001,-0.2 -0.15999,-0.16 -0.27999,-0.4 -0.16001,-0.24 -0.32001,-0.68 -0.31999,-0.72 -0.72,-1.96 -0.71999,-2.24 -1.24,-4.12 -0.83999,-3.16 -1.59999,-8.16 l -0.04,-0.52 q -0.04,1.88 0,3.36 0.04,2.32 0.24,5.56 0.16001,3.64 0.20001,5.24 0,0.52 -0.36001,0.88 -0.32,0.36 -0.84,0.36 -0.48,0 -0.83999,-0.32 -0.36,-0.36 -0.36,-0.84 z" /><path
     id="path261"
     style="font-style:normal;font-variant:normal;font-weight:normal;font-stretch:normal;font-family:DeeDeeStretch;-inkscape-font-specification:DeeDeeStretch;baseline-shift:baseline"
     d="m 662.88624,169.63352 q 0.4,-0.16 0.8,-0.04 0.44,0.12 0.68,0.48 1.4,2.12 2.24,5.08 0.88,2.96 1.16,6.08 0.28,3.12 0.2,6.04 -0.04,2.88 -0.36,5.44 -0.32,2.24 -1.32,3.92 -0.96,1.68 -2.52,2.36 -1.72,0.72 -3.48,-0.08 -1.76,-0.8 -3.2,-2.88 -2.44,-3.4 -2.6,-10.04 -0.12,-5.56 1.16,-10.12 1,-3.48 2.4,-5.2 1.2,-1.48 2.64,-1.6 1.12,-0.12 2.2,0.56 z m -0.6,2.64 q -0.8,-0.88 -1.36,-0.84 -0.48,0.04 -1.04,0.72 -1.08,1.36 -1.92,4.36 -1.2,4.24 -1.08,9.4 0.12,5.92 2.12,8.76 2.04,2.84 3.84,2.08 0.8,-0.32 1.44,-1.44 0.68,-1.16 0.92,-2.92 0.36,-3.16 0.4,-6.52 0.08,-3.4 -0.6,-7.08 -0.64,-3.68 -1.92,-6.16 -0.48,-0.04 -0.8,-0.36 z" /><path
     id="path263"
     style="font-style:normal;font-variant:normal;font-weight:normal;font-stretch:normal;font-family:DeeDeeStretch;-inkscape-font-specification:DeeDeeStretch;baseline-shift:baseline"
     d="m 674.52935,170.47352 q 0,2.28 0.2,5.08 0.2,2.76 0.36,4.24 0.16,1.44 0.64,5.28 0.52,3.84 0.6,4.56 0,0.12 0.16,1.72 0.28,-1.52 0.64,-4.08 l 0.32,-2.48 0.2,-1.56 0.08,-0.52 v -0.16 -0.04 -0.04 l 0.04,-0.04 v -0.08 q 0,-0.04 0.04,-0.12 0.2,-0.48 0.64,-0.68 0.24,-0.08 0.48,-0.08 0.56,0 0.92,0.44 0.12,0.08 0.2,0.24 0.04,0.12 0.12,0.28 0.04,0.24 0.16,0.6 0.12,0.52 0.4,1.6 0.72,3.08 0.88,3.68 0.28,1.04 1.28,4.24 l 0.24,-1.8 q 0.36,-2.56 0.56,-5.16 0.28,-2.84 0.4,-4.56 0.12,-1.76 0.32,-5.44 0.2,-3.68 0.28,-4.8 0.04,-0.48 0.4,-0.8 0.36,-0.36 0.84,-0.32 0.52,0.04 0.84,0.4 0.36,0.36 0.32,0.88 -0.08,1.04 -0.32,4.8 -0.2,3.76 -0.32,5.48 -0.12,1.72 -0.4,4.64 -0.24,2.88 -0.52,5.2 -0.68,5.04 -0.72,5.6 v 0.08 q 0,0.04 0,0.2 0.04,0.12 0.08,0.36 0.08,1.12 -0.6,1.76 -0.68,0.56 -1.44,0.12 -0.24,-0.16 -0.4,-0.36 -0.08,-0.16 -0.2,-0.36 -0.12,-0.28 -0.28,-0.8 l -0.92,-2.88 -0.8,-2.68 q -0.64,-2 -0.92,-3.08 -0.68,4.4 -1.6,7.04 0,0.04 -0.04,0.24 -0.08,0.36 -0.12,0.52 -0.16,0.48 -0.4,0.76 -0.64,0.72 -1.56,0.4 -0.4,-0.12 -0.64,-0.52 -0.08,-0.12 -0.16,-0.28 -0.04,-0.16 -0.08,-0.36 -0.08,-0.32 -0.16,-0.84 -0.12,-0.76 -0.28,-2.32 -0.08,-0.76 -0.16,-1.6 -0.08,-0.88 -0.12,-1.44 -0.04,-0.56 -0.08,-0.68 -0.08,-0.68 -0.6,-4.56 -0.48,-3.88 -0.64,-5.36 -0.16,-1.52 -0.36,-4.36 -0.2,-2.88 -0.2,-5.2 0,-0.48 0.36,-0.84 0.36,-0.36 0.84,-0.36 0.48,0 0.84,0.36 0.36,0.36 0.36,0.84 z" /></g></svg>
