<?xml version="1.0" encoding="UTF-8" standalone="no"?>
<svg
   xmlns:dc="http://purl.org/dc/elements/1.1/"
   xmlns:cc="http://creativecommons.org/ns#"
   xmlns:rdf="http://www.w3.org/1999/02/22-rdf-syntax-ns#"
   xmlns:svg="http://www.w3.org/2000/svg"
   xmlns="http://www.w3.org/2000/svg"
   xmlns:sodipodi="http://sodipodi.sourceforge.net/DTD/sodipodi-0.dtd"
   xmlns:inkscape="http://www.inkscape.org/namespaces/inkscape"
   inkscape:version="1.0 (4035a4fb49, 2020-05-01)"
   sodipodi:docname="plastictypesoverview.svg"
   xml:space="preserve"
   style="enable-background:new 0 0 1000 666;"
   viewBox="0 0 1000 666"
   y="0px"
   x="0px"
   id="Calque_1"
   version="1.1"><metadata
   id="metadata2493"><rdf:RDF><cc:Work
       rdf:about=""><dc:format>image/svg+xml</dc:format><dc:type
         rdf:resource="http://purl.org/dc/dcmitype/StillImage" /></cc:Work></rdf:RDF></metadata><defs
   id="defs2491"><rect
     id="rect3961"
     height="203.69079"
     width="125.47353"
     y="73.328686"
     x="246.05848" /><rect
     id="rect2843"
     height="77.402502"
     width="181.69219"
     y="526.33701"
     x="403.30777" /><rect
     id="rect2837"
     height="116.51113"
     width="289.24093"
     y="531.22559"
     x="134.43592" /><rect
     id="rect2825"
     height="93.697765"
     width="140.13927"
     y="237.09608"
     x="754.4707" /><rect
     id="rect2725"
     height="88.723183"
     width="205.67647"
     y="255.79931"
     x="459.74741" /><rect
     id="rect2702"
     height="68.558824"
     width="197.61073"
     y="254.64706"
     x="281.72491" /><rect
     id="rect2652"
     height="70.884396"
     width="103.47492"
     y="234.6518"
     x="134.43592" /><rect
     id="rect2497"
     height="44.1"
     width="51"
     y="236.1"
     x="148.6" /></defs><sodipodi:namedview
   inkscape:current-layer="g2486"
   inkscape:window-maximized="1"
   inkscape:window-y="-8"
   inkscape:window-x="-8"
   inkscape:cy="359.93232"
   inkscape:cx="368.70222"
   inkscape:zoom="0.59007236"
   showgrid="false"
   id="namedview2489"
   inkscape:window-height="745"
   inkscape:window-width="1304"
   inkscape:pageshadow="2"
   inkscape:pageopacity="0"
   guidetolerance="10"
   gridtolerance="10"
   objecttolerance="10"
   borderopacity="1"
   bordercolor="#666666"
   pagecolor="#ffffff"
   inkscape:document-rotation="0" />
<style
   id="style2373"
   type="text/css">
	.st0{fill:#1E1E1C;}
	.st1{fill:#1E1E1C;stroke:#1E1E1C;stroke-width:0.25;stroke-miterlimit:10;}
	.st2{fill:#1E1E1C;stroke:#1E1E1C;stroke-width:0.15;stroke-miterlimit:10;}
</style>
<g
   id="g2439">
	<g
   id="Calque_1_1_">
		<path
   id="path2375"
   d="M643.2,139c0-3.6-0.6-7.2-1.8-10.5c-0.8-1.4-2.6-1.9-4-1.1c-1,0.4-2,0.9-3,1.4c-4.5-8.1-8.9-16.1-13.4-24.2    c-3.3-6.1-8.4-16-16.7-15.7c-7.5,0.4-12.3,10.1-15.9,15.5c-5.2,7.8-9.8,15.9-13.7,24.4c-1.9,3.8,4,7.4,5.7,3.3    c3.1-6.7,6.5-13.1,10.4-19.3c2-3.3,4.1-6.4,6.3-9.6c1.6-2.2,4-7.1,7-7.7c3-0.6,6.4,4.5,8,6.8c2.1,3.2,3.8,6.5,5.6,9.8l11.2,20.2    l-1.2,0.8c-1.2,0.4-2.1,1.3-2.6,2.5c-0.7,1.8,0.1,3.9,1.8,4.8c3.2,2.5,6.6,4.9,10,7.2c1.7,1.1,4.2,2.2,5.9,0.3    C644.6,146,643.4,141.4,643.2,139z"
   class="st0" />
		<path
   id="path2377"
   d="M670.3,192.4c-3.8-8.9-8.5-17.3-12.7-25.9c-1.9-3.8-7.6-0.5-5.7,3.3c3.4,6.8,6.8,13.7,10.1,20.5    c1.8,3.1,3.2,6.5,4.1,10c0.5,1.6,0.5,3.3,0,4.9c-0.8,1.6-2.6,1.8-4.2,2.2c-12.4,3.2-25.2,5-38,5.4c-0.1,0-0.3,0-0.4,0l-0.2-2.5    c0.3-1.3-0.1-2.6-0.9-3.6c-1.3-1.5-3.5-1.9-5.2-0.9c-4.2,1.5-8.3,3.3-12.2,5.4c-1.7,0.9-3.5,2.7-2.5,4.9c1,2.1,5.9,4,8.3,5.1    c3,1.7,6.2,3,9.6,3.6c2,0,2.7-1.2,3-3c0.1-0.8,0.2-1.7,0.2-2.5h0.2c7.7-0.1,15.3-0.8,22.9-2c3.7-0.7,7.4-1.4,11.1-2.3    c3.9-0.4,7.7-1.6,11.1-3.4C675.3,207.4,672.8,198.1,670.3,192.4z"
   class="st0" />
		<path
   id="path2379"
   d="M572.8,209.8c-6.7,0.1-13.4-0.4-20-1.5c-3-0.3-5.9-0.8-8.9-1.5c-3.2-0.9-3.3-3-2.1-5.7c2.8-5.6,6-11,9.5-16.2    c3.4-5.7,6.7-11.3,10.1-16.9l1.5,0.6c0.9,0.7,2.1,1,3.3,0.9c2.3-0.3,3.2-2,3.4-4.1c0.3-4.1,0.3-8.2,0.2-12.3c0-1.9-0.3-4.4-2.6-5    c-2.3-0.5-5.2,2.3-7,3.7c-3.3,2.2-6.2,4.9-8.7,8c-0.9,1.2-0.7,3,0.6,3.9c0.1,0.1,0.3,0.2,0.4,0.3c0.8,0.6,1.7,1.1,2.6,1.5    c-4.1,6.9-8.2,13.7-12.3,20.7c-3.2,5.4-9.3,12.5-8.5,19.4s8.1,7.9,13.7,8.9c8.1,1.5,16.3,2.2,24.5,2.2    C576.9,216.3,577,209.7,572.8,209.8z"
   class="st0" />
		<path
   id="path2381"
   d="M610.6,164.6c-0.6-0.6-1.9-1.8-3.8-3.4l-1.3-1.1l-0.8-0.7l0.8-0.9c2.5-3,3.8-6.8,3.7-10.6    c0-1.1-0.1-2.3-0.3-3.4c-0.2-3.3-2-6.2-4.8-7.8c-1.2-0.5-2.5-0.8-3.8-0.8c-0.7,0-1.4,0.1-2.1,0.3c-1.7,0.6-2.6,1.6-2.6,2.8    c0,0.6,0.3,1.2,0.9,1.5c0.7,0.4,1.6,0.5,2.5,0.3c0.6-0.2,1.3-0.3,1.9-0.3c0.9,0,3.5,0,3.5,7.4c0.1,1.4,0,2.9-0.4,4.3    c-0.6,2-1.9,3.8-3.7,4.9c-1.6,1-2.3,1.9-2.3,3c0,1,1,2,3.4,3.3c5.1,2.1,8.4,7.1,8.3,12.6c0.4,5-2.8,9.7-7.7,11.1    c-1.3,0.3-2.6,0.5-4,0.4c-2.6,0-3.3,0.3-3.7,0.7c-0.8,0.8-0.9,2-0.1,2.8c0,0,0.1,0.1,0.1,0.1c0.6,0.7,1.4,1.2,2.3,1.2h2.6    c1.6,0,3.2-0.4,4.6-1.1h0.1c3-1.3,5.6-3.2,7.7-5.7c1.8-2.7,2.6-5.8,2.4-9C614.6,172.1,613.3,167.9,610.6,164.6z"
   class="st1" />
		
		
		
	</g>
	<g
   id="Calque_1_3_">
		<path
   id="path2390"
   d="M400.7,185c-3.2-0.7-6.4-1-9.6-0.8c-1.7,0-5.9,0-8-0.2c3.5-4.9,6.7-10.1,9.7-15.4c3.1-4.4,5.9-9.1,8.3-14    c0.7-2.3,1-4.8,1.1-7.2v-1.2c0-5.6-2.2-9.4-6.5-11.1c-1.4-0.6-3-0.8-4.5-0.7c-2.5-0.1-4.9,0.4-7.1,1.6l0,0c-0.6,0.4-1,1.1-1.1,1.8    c0,0.7,0.3,1.7,2.5,1.7c0.7,0,1.4-0.1,2.1-0.4c0.4-0.2,0.8-0.3,1.3-0.3c0.4,0,0.8-0.1,1.1-0.4h0.4c1,0,2,0.1,3,0.4    c1.2,0.2,2.3,0.9,3,2c0.9,1.8,1.3,3.9,1.2,5.9c0,2.4-0.4,4.7-1.1,6.9c-2.8,5.7-6.1,11.1-9.8,16.3c-10.2,15.2-10.2,15.5-10.2,15.9    c-0.1,1.2,0.7,2.2,1.9,2.5c0.7,0.2,4.3,0.3,11.8,0.5h3h5.7c0.8,0.1,1.6,0,2.3-0.3c0.3-0.2,1.4-0.8,1.3-1.8S401.2,185.2,400.7,185z    "
   class="st1" />
		<path
   id="path2392"
   d="M363.3,207.2c-6.5,0.1-13-0.2-19.4-0.9c-3.4-0.4-6.7-0.9-10.1-1.5c-2.3-0.4-3,0-2.3-2.4    c0.4-1.5,0.9-2.9,1.4-4.3c4.2-10,8.9-19.7,14.1-29.1c1.8,0.7,3.6,1.2,5.5,1.6c1,0.2,2-0.4,2.3-1.4c0-0.1,0-0.3,0.1-0.4    c0.2-4.5,0-9.1-0.3-13.6c-0.2-2.4-0.2-6.2-3-7.3c-2.7-1.1-4.1,1.6-5.4,3.3c-0.7,0.9-1.4,1.8-2,2.7s-2.3,2.6-3.4,3.9    c-1.1,1.2-2,2.5-2.7,3.9c-0.4,0.6-0.5,1.3-0.2,2c0.5,0.6,1.1,1.1,1.7,1.5l1.5,1c-2.7,5.1-5.3,10.2-7.7,15.3    c-3.3,6.7-7.7,14-8.9,21.5c-1.2,8.1,7.6,8.2,13.5,9.1c8.3,1.2,16.7,1.8,25.1,1.7c1.8-0.1,3.2-1.7,3.1-3.5    C366.1,208.7,364.9,207.4,363.3,207.2z"
   class="st0" />
		<path
   id="path2394"
   d="M455.4,192c-3-7.3-5.9-14.5-8.9-21.8c-1.6-3.9-8-2.2-6.4,1.8l6.8,16.8c1.1,2.7,2.2,5.3,3.2,8    c0.5,1.4,2.5,6.3,1.1,7.6c-1.2,0.4-2.4,0.7-3.6,0.7l-4.2,0.7c-3.5,0.5-6.9,0.9-10.4,1.2c-5.7,0.4-11.5,0.6-17.2,0.4    c-0.2-2.3,0-5.7-2.1-7.2c-2.1-1.6-4.6-0.2-6.7,0.9c-3.9,2.2-7.7,4.5-11.3,7.1c-0.4,0.2-3.9,2-1.3,5c2.3,1.4,4.7,2.7,7.1,3.8    c3.5,2,7.2,3.4,11,4.4c1.7,0.3,3.4-0.8,3.7-2.6c0,0,0,0,0-0.1c0.2-1.5,0.3-3.1,0.1-4.6c7.2,0.2,14.4-0.1,21.5-0.9    c3.6-0.4,7.2-0.9,10.8-1.6c2.9-0.1,5.7-1.1,7.9-3C460.5,204,457.2,196.3,455.4,192z"
   class="st0" />
		<path
   id="path2396"
   d="M434.6,140.6c-0.5-3.9-1.6-7.8-3.3-11.3c-0.7-1.4-2.3-1.9-3.7-1.2c-0.2,0.1-0.4,0.3-0.6,0.4    c-0.4,0.2-0.7,0.6-1.1,0.9c-0.4,0-0.8,0.1-1.2,0.2c-4.8-8.7-9.8-17.2-15.1-25.6c-4.3-6.6-10-19.9-19.9-13.9    c-6.4,3.9-11,11.8-14.9,18c-4.5,7.1-8.7,14.4-12.7,21.8c-2.1,3.7,3.6,7.1,5.7,3.3c6.5-11.8,13.1-24.5,22.2-34.5    c1-1.2,2.7-3.2,4.4-3.5c2.2-0.4,3.7,3.2,4.7,4.7c2.6,3.8,5.1,7.7,7.6,11.6c4.5,7.2,8.7,14.4,12.8,21.8c-1.6,1.4-2.7,3.4-3,5.5    c-0.8,2.4,1.4,4,3.2,5.3c2.7,2.1,12.3,9.5,15.5,5.1C436.6,147.2,435.1,142.9,434.6,140.6z"
   class="st0" />
		
		
		
		<path
   d="m 424.43555,234.32422 c -0.30548,0.0556 -0.562,0.39342 -0.78516,0.87695 0.24977,0.0224 0.51319,0.0452 0.79297,0.0801 0.2168,-0.23383 0.44725,-0.44877 0.67969,-0.66797 -0.24972,-0.2394 -0.47898,-0.327 -0.6875,-0.28906 z"
   id="path2404" />
	</g>
	<g
   id="Calque_1_4_">
		<path
   id="path2407"
   d="M786.3,209.7c-6.7,0.3-13.4,0-20.1-0.9c-4.9-0.6-15.6,0-13.3-7.9c1.2-2.9,2.7-5.7,4.5-8.3    c1.6-2.7,3.2-5.5,4.7-8.2c2.5-4.6,4.9-9.4,7.2-14.1c1.8,0.8,3.8,0.9,5.7,0.5c2.5-0.9,2.7-3,2.8-5.3c0.3-4,0.8-8.1,0.8-12    c0.1-1.3-0.4-2.5-1.2-3.5c-0.2-0.6-0.6-1-1.2-1.1c-3-0.8-5.3,1.6-7.4,3.3c-2.8,2.1-5.5,4.3-7.9,6.8c-1.4,1.5-3.4,3.6-2.3,5.9    c1.1,1.6,2.7,2.7,4.5,3.3c-3,5.9-5.8,11.6-8.9,17.2c-3.1,5.6-9.3,12.7-8,20.1c1.3,7.4,7.7,8.5,13.7,9.3c8.8,1.4,17.7,1.9,26.6,1.7    C790.5,216.1,790.5,209.5,786.3,209.7z"
   class="st0" />
		<path
   id="path2409"
   d="M850.4,134.6c0-1.9-0.2-3.8-0.7-5.7c0-0.3,0-0.6-0.2-0.9c-1.5-3.1-4.3-1.9-6.7-0.6c-2.7-6.8-6-13.5-9.8-19.8    c-3.5-5.9-8-15.1-14.8-17.7c-7.5-3-12.4,4.2-16.1,9.5c-5.5,7.4-9.8,15.7-14.5,23.7c-0.8,1.6-0.2,3.6,1.4,4.5    c1.5,0.8,3.3,0.3,4.3-1.1c3.6-6.3,7.1-12.6,11-18.8c1.7-2.8,3.6-5.6,5.7-8.2c2.2-3,4.2-5.1,7.6-2.3c4.7,3.9,8.1,10.9,11.1,16.1    c3.2,5.6,6,11.4,8.4,17.4c-1.9,1-3.5,2.5-4.6,4.3c-1.6,3.3,1.8,5.7,4,7.5c1.7,1.5,3.6,2.9,5.5,4.2c1.4,1.3,3,2.2,4.8,2.6    c3.4,0.2,3.8-4.7,3.9-7.1C850.7,139.7,850.6,137.1,850.4,134.6z"
   class="st0" />
		<path
   id="path2411"
   d="M881.5,190.9c-3.2-7.4-6.9-14.6-11.2-21.5c-1-1.5-3.1-1.9-4.6-0.9c-1.4,0.9-1.9,2.8-1.1,4.3    c3.4,5.5,6.5,11.3,9.3,17.1c1.3,2.9,2.4,5.8,3.4,8.9c0.6,2.1,2.7,7.3,1,9c-1.7,1.8-6.4,1.2-8.3,1.3c-3.3,0.2-6.7,0.5-10,0.7    c-6.9,0.4-13.8,0.4-20.7,0c0.5-2.6-0.2-5.2-2-7.2c-2.7-2-7.2,1-9.7,2.2c-2.5,1.2-8.1,3.1-9.7,5.9c-1.6,2.8,0.6,4.3,2.7,5.4    c4.1,2.1,8.3,3.9,12.6,5.5c4.9,1.7,6.2-1.3,6.3-5.2c8.5,0.5,17,0.4,25.5-0.1c5.7-0.4,15.5,0.6,19.2-4.9S883.7,196.2,881.5,190.9z"
   class="st0" />
		<path
   id="path2413"
   d="M827.2,174.8c-0.3-0.3-0.9-0.6-4.6-0.6l0,0h-3v-2.4c0-2.8-0.4-3.6-0.7-4l0,0c-0.8-0.8-2.1-0.8-3,0    c-0.3,0.3-0.5,0.8-0.6,4v2.3h-1.2c-0.6,0.1-1.2,0.1-1.7,0c-1.9,0.2-3.9-0.1-5.7-0.8c0,0,0-0.1,0-0.8c0-0.6,0-0.5,0-0.9    s0-1,0.1-1.8c0.1-0.8,0-1.5,0.2-2.2c0.4-5.2,0.9-12.2,1.2-20.7l0.3-7.8l-0.6-0.4c-0.9-0.9-1.6-1.3-2.1-1.3c-1.3,0-1.6,1.7-1.7,2.3    c-0.2,1.1-0.4,3.4-0.6,6.9c0,2.5-0.3,4.4-0.4,5.9l0,0c-0.8,10.3-1.1,17-1.1,20.2c-0.1,1,0,2,0.4,3c0.9,1,2.1,1.6,3.4,1.8    c2.8,0.5,5.6,0.9,8.5,1h1v2c0,5.4,0.5,6.6,0.9,7.1c0.4,0.4,0.9,0.7,1.5,0.7h0.7c0.8-0.2,1.4-1,1.4-1.8v-8h2.3    c1.3,0,2.6-0.1,3.9-0.4c0.7-0.3,1.2-0.8,1.5-1.4C827.9,176.1,827.8,175.3,827.2,174.8z"
   class="st1" />
		
		
		
		
	</g>
	<g
   id="Calque_1_6_">
		<path
   id="path2424"
   d="M150.5,214c-7,0.8-14,1.2-21,1.2c-4.8,0-12.6,0-12.1-6.7c0.5-3.4,1.4-6.7,2.7-9.9c1-3.1,2.1-6.3,3.2-9.4    c1.9-5.4,4-10.8,6.2-16c2.3,1.1,5.1,0.8,7.1-0.8c1.1-1.4,1.6-3.3,1.4-5.1c0-3.4,0.2-6.8,0.2-10.2c0-2.7-0.8-7.1-4.7-5.6    c-2.3,1.3-4.3,3.1-5.9,5.1c-1.3,1.3-2.5,2.7-3.6,4.1c-1.2,1.3-2.2,2.7-3.1,4.1c-2,3.2-0.4,4.9,2.6,5.9c-2.5,6.1-4.9,12.2-7.1,18.5    c-1.5,4.2-3,8.5-4.2,12.7c-1.5,3.6-1.8,7.6-0.9,11.3c2,5.9,8.2,8,13.8,8.5c8.5,0.5,16.9,0.1,25.3-1    C154.7,220.1,154.8,213.5,150.5,214z"
   class="st0" />
		<path
   id="path2426"
   d="M218,143.9c0-0.4,0-0.7,0-1.1c0.1-0.7,0.1-1.5,0-2.2c0-3-0.2-6.1-0.5-9.2c-0.2-2.5-0.4-5.4-3-6.6    c-2.2-0.8-4.6-0.4-6.4,1.1c-3.7-5.9-7.4-11.8-11.2-17.7c-4.6-6.8-10.3-15.7-18.7-18.3c-9-2.7-14.3,4.6-18.6,11.2    c-5.6,8.9-10.6,18.1-15.1,27.5c-1.8,3.8,3.9,7.2,5.7,3.3c3.6-7.6,7.5-15,11.8-22.3c3.5-5.8,8.4-17.4,16.7-12.3    c6.8,4.1,11.2,12.1,15.2,18.5c2.8,4.4,5.7,8.9,8.5,13.3c-0.6,0.4-1.3,0.9-1.8,1.4c-1.8,1.3-2.6,3.5-2.2,5.7    c0.8,2.7,4.1,4.1,6.3,5.4c2.2,1.3,7.6,5.3,10.8,4.8c0.8,0.1,1.6-0.3,2-1c0-0.1,0-0.2,0-0.3C217.8,144.8,218,144.3,218,143.9z"
   class="st0" />
		<path
   id="path2428"
   d="M242.9,192.9c-3.4-8.2-7.3-16.2-11.8-23.9c-1-1.5-3.1-1.9-4.6-0.9c-1.4,0.9-1.9,2.8-1.1,4.3    c3.6,6.1,6.9,12.3,9.7,18.8c1.5,3.4,3,6.8,4.1,10.3c0.6,1.4,1.2,2.9,1.6,4.5c0.4,2.1,0,2.7-1.8,3.8c-6.4,2.9-13.4,4.5-20.5,4.5    c-6.1,0.4-12.3,0.4-18.5,0.5c0-4.7-0.8-9.8-6.5-7.5c-3.8,1.7-7.4,3.9-10.7,6.5c-1.8,1.3-5.2,3.2-4,5.9c0.1,0.3,0.3,0.5,0.4,0.7    c0.3,0.7,0.9,1.2,1.6,1.4c2.5,1.6,5.2,2.7,8.1,3.3c2.4,0.9,6.3,3.4,8.9,1.8c1.6-1.4,2.3-3.5,2-5.6c7.9-0.2,15.8,0,23.6-0.9    c4.1-0.4,8.1-1.2,12-2.4c3.7-0.8,7.1-2.5,10-5C250.4,207.6,245.2,198.5,242.9,192.9z"
   class="st0" />
		<path
   id="path2430"
   d="M180,166c-0.2-25.8-0.3-26.3-0.3-26.6l0,0c-0.5-2.1-1.7-2.5-2.7-2.5h-0.5h-0.2h-0.2c-0.3,0-0.6,0.1-3.5,3    c-1.3,1.2-2.6,2.6-3.7,4c-0.4,0.6-0.7,1.2-0.7,2c-0.1,1,0.6,2,1.7,2.1c0.1,0,0.2,0,0.4,0c0.6,0,1.4-0.3,3.5-2.7    c0.7-0.7,1.1-1.2,1.4-1.6c0,2.3,0,8.5,0.2,23.3l0.3,24.6l0.7,0.8c0.4,0.5,0.9,0.8,1.5,0.8c0.3,0,0.7-0.1,0.9-0.4    c0.8-0.6,1.3-1.6,1.3-2.6L180,166z"
   class="st1" />
		<path
   d="m 149.99609,277.87109 c -0.0584,-0.002 -0.12844,0.0108 -0.20898,0.0391 -0.0491,0.0172 -0.0931,0.0429 -0.14063,0.0625 0.10731,0.31877 0.26315,0.60262 0.48829,0.84961 0.17168,-0.54394 0.16574,-0.94241 -0.13868,-0.95118 z"
   id="path2432" />
		
		
	</g>
</g>
<g
   id="g2486">
	<g
   id="Calque_1_2_">
		<path
   id="path2441"
   d="m 292.1,452.4 c -1.4,-2.2 -3.3,-4.1 -5.6,-5.5 -1.7,-0.9 -3.5,-1.4 -5.3,-1.5 h -0.6 v -12.5 h 0.7 c 1,-0.1 2,-0.2 3,-0.2 3,0 4.3,-0.8 4.3,-2.3 0.1,-1 -0.5,-2 -1.4,-2.3 -1.4,-0.2 -2.8,-0.3 -4.2,-0.1 -1.6,-0.1 -3.1,0 -4.7,0.2 -1.1,0.2 -2,0.9 -2.3,1.9 -0.1,0.4 -0.4,0.9 -0.5,9.2 v 4.5 c 0,3.7 0.3,4.8 0.8,5.3 0.5,0.6 1.7,1.1 3.7,1.3 2.4,0 4.6,1 6.3,2.7 2.4,2.5 3.7,5.8 3.5,9.3 0,1 0,1.8 0,2.4 -1,8.3 -4.9,13.4 -12.1,15.9 -1.6,0.5 -3.6,1.4 -3.6,3.1 0,0.7 0.4,1.4 1.1,1.7 0.5,0.3 1.1,0.5 1.7,0.6 2.2,-0.2 4.2,-0.9 6.1,-1.9 5.3,-2.7 9.2,-7.4 11,-13.1 0.8,-2.5 1.2,-5.1 1.2,-7.8 -0.3,-3.9 -1.2,-7.6 -3.1,-10.9 z"
   class="st2" />
		<path
   id="path2443"
   d="m 257.1,500.6 c -6.9,0.1 -13.8,-0.1 -20.7,-0.8 -3,-0.3 -7.8,0 -10.3,-2.3 -2,-2.5 -2.6,-5.8 -1.6,-8.9 2,-6.7 4.7,-13.2 8.1,-19.4 2,-4.2 4,-8.4 6.2,-12.6 l 0.6,0.3 c 2,1.1 4.5,2.3 6.2,0.7 1.1,-0.7 1.9,-1.9 2.1,-3.3 0.7,-3.3 4,-22.2 -4.1,-19.6 -3.9,1.8 -7.4,4.4 -10.3,7.6 -2.2,2 -5.5,4.2 -3.9,7.6 0.8,1.5 2,2.7 3.5,3.5 -2.7,5.6 -5.5,11.1 -8.1,16.8 -3.3,7 -8.1,15.5 -7.2,23.6 0.8,7.3 5.9,11.2 12.8,12.1 8.8,1.1 17.7,1.6 26.6,1.4 1.9,0 3.4,-1.5 3.5,-3.4 0.1,-1.7 -1.5,-3.3 -3.4,-3.3 z"
   class="st0" />
		<path
   id="path2445"
   d="m 324.1,419.3 c -1.9,-2.6 -4.7,-1.7 -7.1,-0.6 -7.8,-14.1 -14.1,-29.8 -27.2,-39.9 -3,-2.4 -6.6,-4.9 -10.6,-3 -4,1.9 -6.6,6.8 -9.1,10.2 -6.1,8.5 -11.4,17.6 -15.9,27.1 -1.8,3.8 3.9,7.2 5.7,3.3 3.7,-7.9 8,-15.5 12.9,-22.7 2.2,-3.9 4.8,-7.6 7.9,-10.8 3,-2.5 7.2,2.7 9.4,4.9 9.2,9.3 14.4,21.8 20.7,33.3 -1.9,0.7 -3.5,1.9 -4.6,3.6 -0.7,1.3 -0.4,3 0.7,4 1.1,3.1 5.1,5.5 7.2,7.7 2.1,2.3 5.1,6.1 8.5,4.5 3.4,-1.6 2.7,-6.4 3,-9.1 0.1,-3.5 0.9,-9.3 -1.5,-12.5 z"
   class="st0" />
		<path
   id="path2447"
   d="m 350.5,483.1 c -3.5,-8.3 -7.5,-16.4 -11.8,-24.4 -2,-3.7 -7.7,-0.4 -5.7,3.3 3.6,6.7 7,13.4 10,20.4 1.6,3.5 3,7 4.5,10.5 0.4,1 0.9,1.5 0.4,2.4 -0.4,0.9 -2.4,1.2 -3,1.4 -2,0.7 -4,1.1 -6.1,1.4 -11.1,1.5 -22.5,1.4 -33.7,2.2 -0.3,-3.5 -1.5,-6.7 -4.7,-7.1 -3.2,-0.4 -6.2,1.9 -8.6,3.2 -2.4,1.3 -6.8,3.2 -8.2,5.9 -3.3,6.6 9.5,8.6 13.2,9.5 2.4,0.5 5.6,1.8 7.5,-0.6 0.8,-1.3 1.1,-2.9 0.9,-4.5 6.1,-0.4 12.3,-0.7 18.4,-1.1 7.7,-0.4 16.1,-0.3 23.4,-3 3.3,-1.2 7.8,-3.2 7.9,-7.3 0.5,-3.7 -2.8,-8.6 -4.4,-12.2 z"
   class="st0" />
		
		
	<g
   style="font-style:normal;font-weight:normal;font-size:40px;line-height:1.25;font-family:sans-serif;white-space:pre;shape-inside:url(#rect2837);fill:#1e1e1c;fill-opacity:1;stroke:none"
   id="text2835"
   transform="matrix(0.61275403,0,0,1.785486,678.56712,-730.78845)"
   aria-label="TOOLPATH"><path
     id="path126"
     style="font-style:normal;font-variant:normal;font-weight:normal;font-stretch:normal;font-family:'This is nu jazz';-inkscape-font-specification:'This is nu jazz';fill:#1e1e1c;fill-opacity:1"
     d="m 138.49805,539.28598 q 0.72265,0 2.03125,0.0781 3.125,-0.0781 3.90625,-0.0781 4.29687,0.17578 6.64062,0.17578 h 0.23438 q 2.8125,0 2.8125,1.05469 v 0.74218 q 0,1.52344 -4.0625,1.99219 -2.34375,0 -2.89063,0.82031 -0.23437,0.80079 -0.23437,1.83594 0,1.52344 0.23437,3.37891 -0.0781,4.78515 -0.0781,6.01562 0,0.6836 0.15625,2.65625 -0.56641,8.4961 -1.01563,8.4961 -0.9375,1.40625 -1.875,1.40625 h -0.78125 q -0.58594,0 -0.70312,-0.82032 v -0.2539 q 0.23437,-4.7461 0.625,-6.26953 -0.17578,-17.08985 -1.09375,-17.08985 -0.60547,-0.42968 -1.25,-0.42968 -4.19922,0.42968 -4.76563,0.42968 -1.875,-0.3125 -1.875,-1.73828 v -0.58594 q 0,-1.58203 3.98438,-1.8164 z" /><path
     id="path128"
     style="font-style:normal;font-variant:normal;font-weight:normal;font-stretch:normal;font-family:'This is nu jazz';-inkscape-font-specification:'This is nu jazz';fill:#1e1e1c;fill-opacity:1"
     d="m 165.97852,539.38363 q 3.47656,0 6.01562,1.85547 1.15234,0.13672 2.89063,2.08985 2.8125,3.41797 2.8125,7.16797 0.0976,0 0.23437,1.21093 0,9.90235 -1.79687,11.36719 -1.81641,1.89453 -8.04688,4.57031 -1.83594,0.48828 -2.96875,0.48828 -2.10937,0 -6.48437,-1.93359 -2.57813,-1.93359 -3.04688,-3.86719 -0.70312,-1.60156 -1.09375,-8.76953 v -0.41015 q 0.68359,-5.78125 1.40625,-7.2461 1.09375,-2.83203 3.51563,-3.94531 4.3164,-2.57813 6.48437,-2.57813 z m -7.65625,11.75782 q 0.0781,1.85547 0.0781,3.3789 v 0.15625 q 0,1.26953 -0.0781,2.59766 0.35156,3.57422 1.17187,4.82422 1.79688,2.24609 8.20313,2.24609 4.25781,0 5.54687,-3.04687 0.52734,-1.32813 0.85938,-6.13282 v -1.60156 q 0,-6.75781 -2.34375,-8.22265 -1.75782,-2.08985 -6.17188,-2.08985 -2.75391,0 -4.76562,1.19141 -1.03516,0.80078 -2.26563,5.01953 -0.15625,0.76172 -0.23437,1.67969 z" /><path
     id="path130"
     style="font-style:normal;font-variant:normal;font-weight:normal;font-stretch:normal;font-family:'This is nu jazz';-inkscape-font-specification:'This is nu jazz';fill:#1e1e1c;fill-opacity:1"
     d="m 193.79102,539.38363 q 3.47656,0 6.01562,1.85547 1.15234,0.13672 2.89063,2.08985 2.8125,3.41797 2.8125,7.16797 0.0976,0 0.23437,1.21093 0,9.90235 -1.79687,11.36719 -1.81641,1.89453 -8.04688,4.57031 -1.83594,0.48828 -2.96875,0.48828 -2.10937,0 -6.48437,-1.93359 -2.57813,-1.93359 -3.04688,-3.86719 -0.70312,-1.60156 -1.09375,-8.76953 v -0.41015 q 0.68359,-5.78125 1.40625,-7.2461 1.09375,-2.83203 3.51563,-3.94531 4.3164,-2.57813 6.48437,-2.57813 z m -7.65625,11.75782 q 0.0781,1.85547 0.0781,3.3789 v 0.15625 q 0,1.26953 -0.0781,2.59766 0.35156,3.57422 1.17187,4.82422 1.79688,2.24609 8.20313,2.24609 4.25781,0 5.54687,-3.04687 0.52734,-1.32813 0.85938,-6.13282 v -1.60156 q 0,-6.75781 -2.34375,-8.22265 -1.75782,-2.08985 -6.17188,-2.08985 -2.75391,0 -4.76562,1.19141 -1.03516,0.80078 -2.26563,5.01953 -0.15625,0.76172 -0.23437,1.67969 z" /><path
     id="path132"
     style="font-style:normal;font-variant:normal;font-weight:normal;font-stretch:normal;font-family:'This is nu jazz';-inkscape-font-specification:'This is nu jazz';fill:#1e1e1c;fill-opacity:1"
     d="m 214.08398,539.4227 h 0.54688 q 1.01562,0.21484 1.01562,1.48437 v 3.4961 q 0,0.50781 -0.0781,1.21093 0.3125,2.32422 0.3125,3.1836 v 2.20703 q 0,0.0781 -0.0781,0.0781 0,0.0781 0.0781,0.0781 -0.46875,3.6914 -0.46875,8.65234 0,3.65235 1.17187,3.65235 0,0.19531 5,0.2539 1.69922,-0.15625 2.34375,-0.15625 h 3.67188 q 1.17187,0 1.17187,0.89844 v 0.48828 q -0.27343,2.03125 -4.76562,2.34375 -3.39844,0 -9.45313,0.50781 h -0.3125 q -1.8164,0 -2.5,-1.79687 -0.23437,-0.83985 -0.23437,-2.53906 v -5.60547 q 0.46875,-4.25782 0.46875,-9.21875 v -0.82032 q 0.23437,-1.44531 0.23437,-2.4414 0,-0.6836 -0.23437,-2.51953 v -0.97657 q 0,-1.67968 1.64062,-2.38281 z" /><path
     id="path134"
     style="font-style:normal;font-variant:normal;font-weight:normal;font-stretch:normal;font-family:'This is nu jazz';-inkscape-font-specification:'This is nu jazz';fill:#1e1e1c;fill-opacity:1"
     d="m 241.81836,539.09067 q 4.96094,0 7.42187,2.46093 2.26563,3.30078 2.26563,5.09766 0.39062,0.91797 0.39062,2.57812 0,2.8125 -3.04687,4.25782 -5.9375,3.73047 -9.92188,3.73047 -1.97265,0.19531 -2.26562,0.72265 -0.42969,0.23438 -0.54688,1.81641 0.15625,4.21875 0.15625,6.17187 -0.50781,1.81641 -2.1875,1.81641 h -0.3125 q -1.25,0 -1.25,-2.63672 v -0.58594 q 0,-1.32812 -0.23437,-3.6914 v -1.71875 l 0.3125,-2.32422 q -0.0781,-2.07031 -0.0781,-3.30078 v -0.97657 q 0.15625,-2.65625 0.15625,-2.89062 -0.3125,-3.32031 -0.46875,-7.07031 -0.0781,0 -0.0781,-0.58594 v -0.56641 q 0.0586,-2.05078 4.14062,-2.05078 3.8086,-0.2539 5.54688,-0.2539 z m -3.67188,4.04296 q -1.95312,0 -1.95312,1.71875 v 0.50782 q 0.39062,5.2539 0.39062,6.99218 0.25391,0.72266 1.01563,1.05469 0.64453,0 0.70312,0.0781 6.75782,-0.25391 7.5,-0.97657 2.26563,-1.09375 2.26563,-3.20312 v -0.58594 q 0,-3.02734 -1.71875,-4.76562 -1.46484,-0.91797 -4.45313,-0.91797 -2.26562,0.0977 -3.75,0.0977 z" /><path
     id="path136"
     style="font-style:normal;font-variant:normal;font-weight:normal;font-stretch:normal;font-family:'This is nu jazz';-inkscape-font-specification:'This is nu jazz';fill:#1e1e1c;fill-opacity:1"
     d="m 265.29492,539.26645 h 0.64453 q 1.15235,0 1.97266,2.73437 1.44531,1.875 4.19922,10.46875 1.25,2.57813 1.25,4.17969 2.22656,7.03125 2.53906,8.69141 v 1.13281 q 0,1.01562 -1.26953,1.44531 h -1.11328 q -0.95703,0 -1.58203,-3.69141 -0.15625,-0.19531 -1.48438,-4.58984 -0.58594,-0.74219 -1.26953,-0.74219 h -1.11328 q -2.59766,0.74219 -3.71094,0.74219 h -1.34765 q -3.86719,0.0977 -3.86719,0.80078 -0.41016,0 -1.58203,3.94531 -1.66016,3.06641 -3.08594,3.06641 h -0.64453 q -0.54688,0 -0.54688,-0.58594 v -0.625 q 0,-1.73828 4.98047,-14.49218 0.39063,-0.54688 2.28516,-7.98829 1.03515,-3.04687 2.38281,-3.61328 1.52344,-0.8789 2.36328,-0.8789 z m -3.86719,14.64843 v 0.64454 q 0,1.28906 1.81641,1.28906 5.29297,0 5.29297,-0.82031 0.15625,-0.625 0.15625,-0.95704 0,-1.23046 -1.66016,-5.3125 -0.89843,-2.8125 -2.05078,-2.8125 h -0.23437 q -1.19141,0 -1.58203,2.73438 -1.73829,4.98047 -1.73829,5.23437 z" /><path
     id="path138"
     style="font-style:normal;font-variant:normal;font-weight:normal;font-stretch:normal;font-family:'This is nu jazz';-inkscape-font-specification:'This is nu jazz';fill:#1e1e1c;fill-opacity:1"
     d="m 281.07617,539.28598 q 0.72266,0 2.03125,0.0781 3.125,-0.0781 3.90625,-0.0781 4.29688,0.17578 6.64063,0.17578 h 0.23437 q 2.8125,0 2.8125,1.05469 v 0.74218 q 0,1.52344 -4.0625,1.99219 -2.34375,0 -2.89062,0.82031 -0.23438,0.80079 -0.23438,1.83594 0,1.52344 0.23438,3.37891 -0.0781,4.78515 -0.0781,6.01562 0,0.6836 0.15625,2.65625 -0.5664,8.4961 -1.01562,8.4961 -0.9375,1.40625 -1.875,1.40625 h -0.78125 q -0.58594,0 -0.70313,-0.82032 v -0.2539 q 0.23438,-4.7461 0.625,-6.26953 -0.17578,-17.08985 -1.09375,-17.08985 -0.60547,-0.42968 -1.25,-0.42968 -4.19922,0.42968 -4.76562,0.42968 -1.875,-0.3125 -1.875,-1.73828 v -0.58594 q 0,-1.58203 3.98437,-1.8164 z" /><path
     id="path140"
     style="font-style:normal;font-variant:normal;font-weight:normal;font-stretch:normal;font-family:'This is nu jazz';-inkscape-font-specification:'This is nu jazz';fill:#1e1e1c;fill-opacity:1"
     d="m 318.06836,539.22738 h 0.70312 q 0.76172,0 1.01563,1.54297 0.3125,2.34375 0.3125,3.26172 v 3.10547 q -0.15625,2.91016 -0.15625,3.26172 v 0.3125 l 0.46875,11.52344 v 3.08593 q 0,1.66016 -1.875,2.36329 h -0.78125 q -1.01563,0 -1.01563,-2.10938 -0.23437,-0.78125 -0.46875,-9.21875 0,-1.01562 -1.79687,-1.23047 l -2.34375,0.23438 q -2.85156,-0.0781 -4.53125,-0.0781 -4.6875,0 -4.6875,0.82031 -0.3125,0.58594 -0.3125,1.3086 v 1.23047 q 0,1.01562 -0.0391,5.05859 v 1.875 q 0,1.48438 -1.875,2.20703 -0.0977,0.0781 -0.54688,0.0781 h -0.3125 q -1.01562,0 -1.01562,-1.21094 v -2.05078 q 0.11718,-3.33985 0.11718,-3.67188 -0.3125,-4.04297 -0.46875,-8.88672 v -0.33203 q 0,-2.87109 0.3125,-6.44531 -0.0781,-2.63672 -0.0781,-3.57422 0.54687,-2.38281 2.10937,-2.38281 h 0.3125 q 1.32813,0 1.32813,2.85156 0.15625,2.91016 0.15625,3.33985 -0.23438,2.53906 -0.23438,3.26171 v 0.56641 q 0,1.5625 0.9375,2.05078 0.82032,0.23438 1.64063,0.23438 h 0.23437 q 0.52735,0 2.26563,-0.23438 h 1.01562 q 2.38282,0 5.46875,0.15625 2.1875,0 2.1875,-2.36328 v -6.60156 q 0,-2.40235 1.09375,-3.00781 0.41016,-0.33204 0.85938,-0.33204 z" /></g></g>
	<g
   id="Calque_1_5_">
		<path
   id="path2454"
   d="m 756.5,430.9 c 0.5,-4 0.2,-8 -0.9,-11.8 -1.3,-3.1 -4.7,-2.4 -8.2,-0.6 -4.1,-7.3 -8.7,-14.3 -13.7,-21 -4.9,-7.2 -10.7,-13.8 -17.2,-19.7 -5.9,-4.6 -13.2,-5.2 -17.9,1.3 -2.3,3.8 -4.3,7.7 -5.9,11.8 l -6.8,13.7 c -1.8,3.8 3.8,7.2 5.7,3.3 3.4,-7.1 6.8,-14.2 10.3,-21.3 1.4,-3 3.1,-6.8 6.9,-5.7 3.3,1.5 6.1,3.8 8.2,6.7 9.6,10.5 17.9,22 24.8,34.4 l -3,2.3 c -0.4,0.3 -0.6,0.7 -0.6,1.2 -0.3,0.7 -0.4,1.6 -0.2,2.4 0.8,3 5.2,5.2 7.5,6.8 2.3,1.6 6.4,5.5 9,4.3 2.8,-1.3 2,-6.1 2,-8.1 z"
   class="st0" />
		<path
   id="path2456"
   d="m 778.7,483.9 c -1.2,-8.7 -5.9,-17.2 -8.9,-25.3 -1.5,-3.9 -7.9,-2.2 -6.4,1.8 2.6,6.7 5.6,13.4 7.8,20.3 2,6.2 1.8,13.8 -5.9,15 -6.1,0.7 -12.2,0.9 -18.3,0.7 -5.5,0 -11,0 -16.4,-0.5 0,-1.2 0.1,-2.5 0.1,-3.7 0,-2.4 -0.3,-4.3 -3,-4.5 -3.7,-0.3 -7.8,1.8 -11.1,3.1 -2.4,0.9 -7.3,1.8 -8.2,4.8 -0.9,2.9 1.2,3.7 3,4.8 3.9,2.4 8,4.6 12.2,6.7 1.9,0.9 4.2,2.1 5.7,0 0.7,-1.4 1.1,-2.9 1,-4.4 6.9,0.5 13.8,0.6 20.7,0.4 6.5,-0.2 14.8,0.8 20.7,-2.4 5.9,-3.2 7.9,-10.5 7,-16.8 z"
   class="st0" />
		<path
   id="path2458"
   d="m 688.8,496.7 c -6.4,0.8 -12.9,1 -19.3,0.4 -4.4,-0.5 -13.8,-1.8 -16,-6.2 -1.4,-2.6 1.7,-7.5 2.7,-10 l 4.3,-10.6 6.2,-15.6 c 2.4,1 5.3,2.1 7,0.2 1.7,-2 1.4,-7.1 1.3,-9.7 -0.1,-2.7 0,-8.2 -2,-10.9 -0.6,-1 -1.8,-1.5 -3,-1.3 -0.5,-0.1 -1.1,0 -1.5,0.4 -3.3,2.7 -6.3,5.7 -8.9,9.1 -1.3,1.7 -4.4,4.7 -3.2,7.2 1.1,1.5 2.6,2.5 4.3,3 -2.8,6.6 -5.5,13.3 -8.2,20 -1.7,4.3 -3.8,8.7 -5.2,13.1 -1.2,3.1 -0.8,6.6 1,9.3 3.7,5.2 11.8,7.3 17.7,8.3 7.6,1 15.3,1 22.9,0 4.1,-0.5 4.2,-7.1 -0.1,-6.7 z"
   class="st0" />
		<path
   id="path2460"
   d="m 726,424.9 c -0.8,-0.4 -1.7,-0.6 -2.5,-0.5 h -1.6 -2.9 -3.5 c -6.2,0.2 -6.8,0.3 -7,0.3 h -0.4 c -0.7,0.2 -1.3,0.8 -1.4,1.6 -0.2,0.8 0.1,1.6 0.6,2.2 0.2,0.2 0.5,0.3 0.8,0.3 h 7 6.1 c -0.6,1.6 -2.6,6.1 -8.1,17.7 -3.8,8 -6.7,14.3 -8.6,18.9 -1.2,2.3 -2.1,4.8 -2.6,7.4 0,2.4 1.6,2.7 2.3,2.7 1.7,0 2.5,-2.3 2.7,-3 0.5,-1.8 1.2,-3.6 1.9,-5.3 1.9,-4.6 3.4,-8 4.3,-9.9 3,-6.1 5.9,-12.3 8.7,-18.4 4.8,-11 4.9,-11.8 5,-12.2 -0.1,-0.7 -0.4,-1.4 -0.8,-1.8 z"
   class="st1" />
		<path
   id="path2462"
   d="m 676.5,528 c -0.9,-3.9 -3.5,-7.1 -7.1,-8.9 -1.2,-0.5 -2.5,-0.7 -3.8,-0.6 -0.7,0 -1.4,0 -2,0 v 0 c -2,0.2 -3.9,1.1 -5.3,2.6 -2.4,2.5 -3.9,5.8 -4,9.3 -0.3,2.9 -0.4,5.7 -0.4,8.6 -0.1,0.7 0,1.4 0.2,2.1 0,0.3 0,1.1 0,3.7 0.1,3.4 0.5,6.8 1.4,10.1 0.4,2 1.2,3.8 2.1,5.6 0.9,1.4 2.1,2.6 3.5,3.4 1.5,0.9 3.3,1.4 5.1,1.4 2.5,0.1 4.9,-0.8 6.7,-2.5 2.3,-2.3 3.8,-5.2 4.4,-8.4 0.7,-3.7 1,-7.4 0.9,-11.2 0,-4.1 -0.2,-7.2 -0.4,-9.2 -0.2,-2 -0.7,-4 -1.3,-6 z m -3,11 c -0.1,1.3 0,2.6 0.2,3.8 v 0.2 c 0,3.3 -0.2,6.5 -0.8,9.8 -0.4,2.4 -1.5,4.6 -3.1,6.4 -1,0.9 -2.4,1.4 -3.8,1.4 -0.8,0 -1.5,-0.1 -2.3,-0.4 -1.4,-0.8 -2.5,-2.1 -3,-3.7 -1.1,-2.9 -1.7,-5.9 -2,-9 -0.3,-2.3 -0.3,-5.3 -0.3,-9.1 -0.1,-2.9 0.1,-5.8 0.4,-8.6 0.1,-3.2 2.2,-5.9 5.3,-6.8 0.4,0 0.8,0 1.2,0 1.5,0 3,0.6 4.1,1.7 v 0 c 1.5,1.6 2.5,3.5 3,5.6 0.8,2.8 1.2,5.8 1.1,8.7 z"
   class="st0" />
		<path
   id="path2464"
   d="m 701.2,520.4 c -1.5,0 -3,0 -4.3,0 -3.9,-0.1 -7.8,0.1 -11.6,0.5 -1.1,0.3 -1.7,1.4 -1.4,2.5 0.2,0.6 0.5,1 1,1.3 1.5,0.4 3,0.6 4.6,0.4 h 2.4 v 12.8 c 0,6.2 0,12.5 0,19 0,7 0.2,7.3 0.5,7.6 0.4,0.6 1.1,1 1.8,0.9 0.3,0 1.2,0 1.6,-0.6 0.4,-0.6 0.5,-0.5 0.6,-21 0,-12.4 0,-17.2 0,-18.9 h 0.7 l 3.5,-0.2 c 0.8,0 1.6,-0.1 2.4,-0.3 0.7,-0.3 1.2,-0.8 1.4,-1.5 0.2,-0.7 0,-1.5 -0.6,-2 -0.5,-0.3 -1.2,-0.5 -2.6,-0.5 z"
   class="st0" />
		<path
   id="path2466"
   d="m 727,521.1 c -0.6,-0.9 -1.9,-1.1 -2.8,-0.5 v 0 c -0.7,0.7 -1,1.6 -0.9,2.6 0,0.5 0,2.4 0.4,5.7 0.3,4.4 0.4,7.3 0.4,8.5 v 1.7 h -10 v -7.4 c 0,-8.7 -0.2,-9.2 -0.4,-9.6 -0.3,-0.7 -1,-1.2 -1.8,-1.2 -1,0 -1.8,0.6 -2.1,1.6 -0.1,0.3 -0.2,0.6 -0.2,21 v 20.7 l 0.3,0.3 c 0.5,0.6 1.3,1 2.1,1 0.6,-0.1 1.1,-0.4 1.5,-0.9 0.2,-0.4 0.4,-0.6 0.5,-11.3 V 544 h 10.6 c 0,0.4 0,1 0,1.8 0,1.9 0.2,4.9 0.3,9 0.1,4.2 0.2,7.4 0.4,8.5 0.1,1.2 0.6,2.2 1.5,3 0.3,0.2 0.7,0.3 1.1,0.4 0.2,0 0.3,0 0.5,0 0.6,-0.2 1,-0.7 1.2,-1.2 v -0.3 c 0,-0.4 0,-0.7 0,-1.1 0,-1.9 -0.5,-11.4 -1.5,-29.1 -0.4,-12.9 -0.7,-13.5 -1.1,-13.9 z"
   class="st0" />
		<path
   id="path2468"
   d="m 742.5,523.5 c 4.1,0 5,-0.3 5.3,-1 0.8,-0.8 0.7,-2 -0.1,-2.8 -0.1,-0.1 -0.1,-0.1 -0.2,-0.2 -0.4,-0.4 -1.2,-0.4 -3.5,-0.4 -1.2,0 -2.3,0 -3.3,0 h -1.1 -1.1 c -0.6,0 -1.1,0 -1.7,0 l -0.4,0.1 c -0.3,0.1 -0.6,0.2 -0.8,0.4 -0.2,0.2 -0.4,0.4 -0.5,0.6 v 0.4 c -0.3,2.1 -0.3,4.2 -0.2,6.3 0,6.2 0,13.7 0.2,22.4 0.3,13.3 0.5,13.8 0.7,14.2 0.3,0.8 1,1.4 1.8,1.5 1.5,0.1 3,0.1 4.4,0 v 0 h 5 l 0.3,-0.6 c 0.5,-0.6 0.7,-1.4 0.6,-2.2 -0.2,-0.8 -0.8,-1.4 -1.6,-1.5 -1.2,-0.1 -2.4,-0.2 -3.7,-0.2 H 740 c 0,-0.5 -0.1,-1.6 -0.3,-3.7 0,-3 -0.2,-5.4 -0.2,-7.8 0,-1.2 0,-2 0,-2.5 v -0.8 c 1,0 2.5,-0.3 3,-1.3 0.2,-0.4 0.4,-0.8 0.4,-1.2 0,-0.8 -0.4,-2.2 -3.4,-2.2 v 0 0 c 0,-0.2 0,-1.8 -0.2,-9.5 v -7.7 h 0.3 c 1.1,-0.2 2,-0.3 2.9,-0.3 z"
   class="st0" />
		<path
   id="path2470"
   d="m 770.4,557.9 c -0.8,-2.6 -1.8,-5.1 -3,-7.5 -0.7,-1.7 -1.9,-3.2 -3.3,-4.4 l -1.1,-0.9 v 0 c 1.6,-0.9 3,-2.1 4.1,-3.6 1.2,-1.4 2,-3.1 2.4,-4.9 0.1,-0.6 0.1,-1.3 0,-1.9 0,-1.9 -0.2,-3.9 -0.6,-5.8 -0.6,-2.9 -2,-5.5 -4.1,-7.5 -1.6,-1.7 -3.7,-3 -5.9,-3.8 -0.9,-0.4 -1.8,-0.6 -2.7,-0.6 -0.7,0 -1.4,0.3 -1.8,0.8 l -0.2,0.3 v 0 c -0.5,2.7 -0.6,5.5 -0.4,8.3 0,5.5 0,10.8 -0.2,15.8 0,1.7 0,4.1 0,7.1 0,3.7 0,6.3 0,7.9 0,3.3 0.2,5.3 0.3,5.9 0,1 0.6,1.8 1.4,2.3 0.3,0.1 0.6,0.2 0.9,0.2 0.8,0 1.5,-0.5 1.9,-1.2 0,-0.3 0.2,-0.4 0.2,-2.8 0,-2.4 0,-4.6 0,-6.6 0,-2.7 0,-5.4 0,-7.8 l 0.5,0.3 c 2.1,1.5 3.8,3.5 4.9,5.9 0.6,1.4 1.3,3.3 2.1,5.6 1.7,5.2 2.1,5.4 2.3,5.5 0.8,0.8 2.1,0.8 3,0 0.4,-0.4 0.7,-1 0.7,-1.7 -0.3,-1.7 -0.7,-3.4 -1.4,-4.9 z m -8.9,-17.4 -2.3,0.9 -0.9,0.3 v -1.2 c 0,-7.1 0,-12.5 0,-16.5 0,-0.7 0,-1.1 0,-1.5 4.3,2.2 6.9,6.7 6.5,11.5 0.1,0.8 0.1,1.5 0,2.3 -0.3,0.7 -0.6,1.3 -1.1,1.8 -0.5,0.9 -1.3,1.7 -2.2,2.4 z"
   class="st0" />
	</g>
	<g
   id="Calque_1_7_">
		<path
   id="path2473"
   d="m 515.2,453.5 c -1.1,-2.1 -2.7,-3.8 -4.7,-5.1 -2,-1.5 -4.2,-2.5 -6.6,-3 -0.5,-0.1 -1,-0.1 -1.5,0 -2.7,0.1 -5.2,1.3 -7,3.3 v 0 c 0.2,-3.2 0.6,-6.4 1.2,-9.5 0.6,-3.3 1.4,-6.6 2.5,-9.8 1.9,-4.6 4.3,-6.9 7.2,-6.9 1.3,0.1 2.6,-0.2 3.6,-1 v 0 c 0.4,-0.5 0.6,-1.2 0.3,-1.8 -0.2,-0.7 -0.8,-1.1 -1.5,-1.3 -0.8,-0.2 -1.5,-0.3 -2.3,-0.2 -0.8,0 -1.7,0.1 -2.5,0.2 -4.1,1.2 -7.4,4.3 -8.9,8.2 -2.3,5.7 -3.7,11.6 -4.3,17.7 -0.3,2.8 -0.5,5.6 -0.4,8.5 -0.1,3.1 0.1,6.1 0.5,9.2 0.4,4 2,7.7 4.5,10.8 1.7,1.7 3.9,2.9 6.2,3.5 1,0.3 2.1,0.4 3.2,0.4 3,-0.2 5.7,-1.6 7.6,-4 1.1,-1.2 2,-2.6 2.6,-4.1 0.6,-2 0.9,-4 1,-6.1 0.1,-2.3 0.2,-3.7 0.2,-4.3 0.1,-1.4 -0.3,-3.1 -0.9,-4.7 z m -3.7,5.4 c 0,1.2 -0.1,2.3 -0.3,3.5 -0.2,1.8 -0.5,3.7 -1,5.4 -0.5,1.1 -1.2,2.1 -2.1,3 -0.9,1 -2.1,1.7 -3.5,1.8 -0.7,0 -1.3,-0.1 -1.9,-0.3 -2.5,-0.6 -4.5,-2.4 -5.5,-4.7 -0.6,-1.2 -0.8,-2.4 -0.9,-3.7 0,-0.2 0,-1.2 0.4,-3.9 0.3,-2.5 0.9,-4.9 1.9,-7.2 0.5,-1.2 1.5,-2.1 2.8,-2.5 0.4,-0.1 0.8,-0.2 1.2,-0.2 0.8,0 1.6,0.2 2.3,0.6 1.9,0.7 3.6,1.9 5,3.3 1.1,1.3 1.6,3.1 1.6,4.9 z"
   class="st1" />
		<path
   id="path2475"
   d="m 543,419.6 c -0.8,-4.5 -4.6,-3.8 -8.2,-2.1 -3.6,-8.3 -7.9,-16.3 -12.6,-23.9 -2.9,-4.7 -6,-9.3 -9.4,-13.6 -2.2,-3.5 -6.3,-5.4 -10.4,-4.8 -4.2,1 -6.4,5.1 -8.6,8.4 -3,4.6 -6.3,9.1 -9.5,13.6 -6,8 -11.6,16.4 -16.6,25 -2.1,3.7 3.6,7 5.7,3.3 4.1,-7.1 8.6,-14 13.5,-20.5 5.1,-7.1 9.8,-14.5 14.9,-21.5 1.4,-1.8 2.5,-2.6 4.5,-1 1.5,1.4 2.8,3.1 3.9,4.8 2.7,3.8 5.3,7.7 7.7,11.8 4.1,6.8 7.8,13.9 11,21.1 -1.8,0.6 -3.4,1.8 -4.4,3.4 -1,2.5 1.4,4.9 3,6.6 2.2,2.7 4.7,5.1 7.5,7.1 1.6,1.2 4.1,3.3 6.1,1.7 2,-1.6 1.7,-5.7 1.9,-7.8 0.5,-3.7 0.5,-7.7 0,-11.6 z"
   class="st0" />
		<path
   id="path2477"
   d="m 565.3,482 c -2.9,-7.9 -6.3,-15.6 -10.2,-23.1 -2,-3.8 -7.7,-0.4 -5.7,3.3 3.2,6.2 6.1,12.6 8.6,19.2 1.1,3 2.2,5.9 3.2,8.9 1.2,3.7 1.1,6.2 -3,7 -6.6,0.9 -13.2,1.3 -19.8,1.4 -5.1,0.3 -10.1,0.8 -15.2,1 0,-0.9 0,-1.8 0,-2.6 -0.2,-2.5 -0.6,-5.9 -3.6,-6.2 -3,-0.3 -7.1,2 -9.9,3.3 -2.8,1.3 -7.6,2.7 -9,5.4 -1.2,2.3 0.4,4.3 2.3,5.3 3.9,1.9 8,3.6 12.1,5 1.9,0.8 5,2.3 6.5,0 v -0.2 0 c 0.1,-0.1 0.1,-0.2 0.2,-0.3 0.4,-1 0.7,-2 0.9,-3.1 6.9,-0.3 13.8,-0.9 20.7,-1.4 4.4,-0.3 8.9,-0.4 13.2,-0.9 3,-0.1 6,-1 8.5,-2.6 6.4,-4.8 2.4,-13.4 0.2,-19.4 z"
   class="st0" />
		<path
   id="path2479"
   d="m 475.7,499.6 c -8.1,0.1 -16.1,-0.4 -24.1,-1.7 -3.8,-0.5 -7.4,-1.5 -10.9,-3 -4.6,-2.3 -3.6,-6.5 -1.6,-10.4 3.9,-7.6 8.4,-14.8 12.5,-22.2 1.4,0.8 2.9,1.5 4.5,1.9 1.6,0.7 3.5,0.1 4.2,-1.5 0.2,-0.3 0.3,-0.7 0.3,-1.1 0.7,-2.2 1.1,-4.6 1,-6.9 0.6,-3.3 0.9,-6.6 1.1,-9.9 0.2,-1.4 -0.6,-2.8 -2,-3.2 -1.8,-0.6 -3.8,0.7 -5.3,1.4 -2.9,1.5 -5.8,3.2 -8.5,5.1 -2.6,1.8 -6.6,4 -3.8,7.5 0.9,1.1 1.9,2.1 3,3 -1.7,3.2 -3.5,6.3 -5.3,9.5 -3.6,6.5 -9.9,14.1 -10.1,21.8 -0.3,9.2 8.9,12.1 16.2,13.8 9.5,1.8 19.1,2.7 28.8,2.5 1.8,0 3.3,-1.5 3.3,-3.3 0,-1.8 -1.5,-3.3 -3.3,-3.3 z"
   class="st0" />
		
		
	<g
   style="font-style:normal;font-weight:normal;font-size:40px;line-height:1.25;font-family:sans-serif;white-space:pre;shape-inside:url(#rect2843);fill:#1e1e1c;fill-opacity:1;stroke:none"
   id="text2841"
   transform="matrix(0.72193728,0,0,1.71029,-52.779348,-385.48474)"
   aria-label="GCODE"><path
     id="path143"
     style="font-style:normal;font-variant:normal;font-weight:normal;font-stretch:normal;font-family:'This is nu jazz';-inkscape-font-specification:'This is nu jazz';fill:#1e1e1c;fill-opacity:1"
     d="m 417.89844,533.53793 h 0.46875 q 3.51562,0.56641 6.17187,2.71485 1.64063,1.28906 1.64063,2.22656 v 0.41015 q 0,1.17188 -1.48438,1.40625 h -0.85937 q -0.625,0 -1.95313,-1.48437 -1.8164,-1.40625 -4.14062,-1.40625 -6.07422,0 -7.26563,3.22266 -1.79687,4.88281 -1.79687,8.88671 0,0.9375 0.625,4.60938 0,3.14453 2.34375,4.29687 5.91797,1.38672 8.28125,1.38672 2.71484,0 3.82812,-3.20312 0.23438,-0.87891 0.23438,-2.30469 0,-2.8125 -1.5625,-2.8125 -0.58594,-0.21484 -4.45313,-0.33203 -1.875,-0.60547 -1.875,-1.5625 v -0.48828 q 0,-1.60156 3.90625,-2.28516 h 5.23438 q 1.93359,0 2.5,5.33203 v 2.71485 q 0,1.67968 -1.17188,3.96484 -0.9375,1.40625 -7.1875,4.375 -0.70312,0.15625 -1.01562,0.15625 h -1.875 q -2.79297,0 -6.875,-1.97266 -2.16797,-1.09375 -2.73438,-2.30468 -1.09375,-0.95703 -1.875,-8.75 v -2.36328 q 0,-1.79688 1.17188,-5.3711 0.625,-3.10547 1.25,-3.78906 1.89453,-2.05078 8.04687,-4.6875 1.6211,-0.58594 2.42188,-0.58594 z" /><path
     id="path145"
     style="font-style:normal;font-variant:normal;font-weight:normal;font-stretch:normal;font-family:'This is nu jazz';-inkscape-font-specification:'This is nu jazz';fill:#1e1e1c;fill-opacity:1"
     d="m 445.08594,534.1434 h 1.01562 q 2.03125,0 4.6875,2.01172 1.71875,1.89453 1.71875,2.87109 v 0.64453 q 0,1.13282 -1.32812,1.28907 -0.13672,0.0781 -0.3125,0.0781 -1.07422,0 -1.95313,-1.60156 -1.01562,-1.44531 -3.28125,-1.44531 h -1.95312 q -5.56641,0 -7.03125,3.76953 -0.9375,3.22265 -0.9375,5.37109 v 1.28906 q 0.60547,5.9961 1.01562,5.9961 0.97656,4.08203 3.59375,4.08203 h 2.5 q 5.15625,-0.52734 5.15625,-0.95703 2.42188,-0.9375 2.73438,-0.9375 h 1.32812 q 0.625,0.42969 0.625,0.85937 v 1.36719 q 0,1.38672 -6.64062,4.25781 -0.50782,0.15625 -0.70313,0.15625 h -0.78125 l -2.5,-0.5664 q -2.07031,0 -4.76562,-0.87891 -1.44532,-1.09375 -2.34375,-2.8125 -2.07032,-3.37891 -2.5,-6.40625 -0.15625,-0.60547 -0.46875,-3.35937 v -2.40235 q 0,-2.69531 1.5625,-6.73828 1.07422,-1.48437 2.8125,-2.42187 5.44922,-3.14454 8.75,-3.51563 z" /><path
     id="path147"
     style="font-style:normal;font-variant:normal;font-weight:normal;font-stretch:normal;font-family:'This is nu jazz';-inkscape-font-specification:'This is nu jazz';fill:#1e1e1c;fill-opacity:1"
     d="m 467.42969,534.49496 q 3.47656,0 6.01562,1.85547 1.15235,0.13672 2.89063,2.08985 2.8125,3.41796 2.8125,7.16796 0.0976,0 0.23437,1.21094 0,9.90235 -1.79687,11.36719 -1.81641,1.89453 -8.04688,4.57031 -1.83594,0.48828 -2.96875,0.48828 -2.10937,0 -6.48437,-1.93359 -2.57813,-1.93359 -3.04688,-3.86719 -0.70312,-1.60156 -1.09375,-8.76953 v -0.41016 q 0.6836,-5.78125 1.40625,-7.24609 1.09375,-2.83203 3.51563,-3.94531 4.3164,-2.57813 6.48437,-2.57813 z m -7.65625,11.75782 q 0.0781,1.85546 0.0781,3.3789 v 0.15625 q 0,1.26953 -0.0781,2.59766 0.35156,3.57422 1.17187,4.82422 1.79688,2.24609 8.20313,2.24609 4.25781,0 5.54687,-3.04687 0.52735,-1.32813 0.85938,-6.13282 v -1.60156 q 0,-6.75781 -2.34375,-8.22266 -1.75782,-2.08984 -6.17188,-2.08984 -2.7539,0 -4.76562,1.19141 -1.03516,0.80078 -2.26563,5.01953 -0.15625,0.76172 -0.23437,1.67969 z" /><path
     id="path149"
     style="font-style:normal;font-variant:normal;font-weight:normal;font-stretch:normal;font-family:'This is nu jazz';-inkscape-font-specification:'This is nu jazz';fill:#1e1e1c;fill-opacity:1"
     d="m 495.53516,534.18246 1.93359,0.11719 q 5.60547,0.33203 7.03125,2.89063 2.65625,4.80468 2.48047,7.65625 0.46875,3.57421 0.41015,4.41406 l -0.0586,0.9375 q -0.17578,2.77344 -1.54297,5.80078 -0.0586,0.89844 -1.32812,2.48047 -1.75782,1.42578 -6.64063,3.18359 -3.0664,0.83985 -8.35937,0.9961 -0.66407,0.0586 -1.01563,0.0195 -3.49609,-0.21485 -3.3789,-2.1875 l 0.0195,-0.3125 q 0.52734,-3.24219 0.8789,-6.25 l 0.0781,-1.28907 q 0.17578,-7.73437 -0.0781,-9.86328 0.0586,-0.78125 -0.17578,-4.47265 l 0.0781,-1.26953 q 0.13672,-2.10938 4.14062,-2.22657 l 4.04297,-0.625 q 0.74219,-0.0391 1.48438,0 z m -5.83985,5.625 0.29297,7.51953 -0.0977,1.48438 q -0.0976,3.94531 -0.13671,4.47266 l -0.17579,2.69531 q -0.13671,2.16797 0.46875,2.65625 0.41016,0.42969 1.36719,0.48828 h 0.0781 q 0.48828,0.0195 4.08203,-0.23438 3.18359,0.21485 5.48828,-1.32812 1.34766,-1.26953 1.67969,-2.94922 0.82031,-4.14062 0.85937,-4.88281 l 0.0391,-0.46875 q 0.0391,-0.50781 -0.39062,-4.80469 0.13672,-2.22656 -1.71875,-5.11719 -0.46875,-0.97656 -4.76563,-1.25 -0.27343,-0.0977 -0.85937,-0.13672 -5.54688,-0.13671 -5.56641,0.3125 -0.44922,-0.0391 -0.64453,1.54297 z" /><path
     id="path151"
     style="font-style:normal;font-variant:normal;font-weight:normal;font-stretch:normal;font-family:'This is nu jazz';-inkscape-font-specification:'This is nu jazz';fill:#1e1e1c;fill-opacity:1"
     d="m 528.73828,534.41684 q 1.40625,0 1.40625,0.95703 v 0.42969 q 0,0.9375 -1.875,1.60156 -2.12891,1.23047 -8.51562,1.03516 -2.1875,0 -2.1875,2.30468 0.29296,5.17578 1.09375,5.17578 0.37109,0.15625 0.9375,0.25391 4.33593,-0.0781 7.03125,-0.25391 h 0.625 q 2.73437,0.23438 2.73437,1.3086 v 0.82031 q 0,1.19141 -1.95312,1.52344 h -1.17188 q -2.12891,0.35156 -8.04687,0.48828 -2.03125,0 -2.03125,2.67578 v 2.26563 q 0,1.03515 -0.0781,2.26562 0,1.85547 1.79688,1.85547 h 0.23437 l 4.14063,-0.3125 q 0.44921,0 1.95312,0.0977 1.71875,-0.17579 3.28125,-0.17579 h 0.15625 q 2.73438,0 2.73438,0.74219 v 0.95703 q 0,1.21094 -4.6875,2.20703 -4.49219,0.0781 -8.28125,0.39063 h -0.85938 q -2.83203,0 -3.67187,-1.52344 -0.46875,-1.03515 -0.46875,-1.71875 v -2.4414 q 0,-0.19532 -0.15625,-2.57813 v -0.0781 q 0.39062,-2.65625 1.01562,-10.85938 -0.39062,-5.56641 -0.78125,-5.56641 -0.39062,-0.54687 -0.39062,-1.05468 v -0.72266 q 0,-1.01562 2.73437,-1.875 0.0781,-0.0781 0.625,-0.0781 h 2.03125 q 0.48828,0 1.17188,0.0781 l 2.8125,-0.11719 q 4.51171,-0.0781 6.64062,-0.0781 z" /></g></g>
</g>
<text
   style="font-style:normal;font-weight:normal;font-size:40px;line-height:1.25;font-family:sans-serif;white-space:pre;shape-inside:url(#rect2497);fill:#000000;fill-opacity:1;stroke:none;"
   id="text2495"
   xml:space="preserve"><tspan
     style="visibility:hidden"
     x="148.59961"
     y="315.58984"><tspan>c</tspan></tspan></text><text
   transform="matrix(1.0043194,0,0,2.0140146,333.45857,27.060555)"
   style="font-style:normal;font-weight:normal;font-size:40px;line-height:1.25;font-family:sans-serif;white-space:pre;shape-inside:url(#rect2652);fill:#1e1e1c;fill-opacity:1;stroke:none;"
   id="text2650"
   xml:space="preserve"><tspan
     x="134.43555"
     y="270.75863"><tspan
       style="font-style:normal;font-variant:normal;font-weight:normal;font-stretch:normal;font-family:'This is nu jazz';-inkscape-font-specification:'This is nu jazz';fill:#1e1e1c;fill-opacity:1">cnc</tspan></tspan></text><g
   style="font-style:normal;font-weight:normal;font-size:40px;line-height:0;font-family:sans-serif;white-space:pre;shape-inside:url(#rect2702);fill:#1e1e1c;fill-opacity:1;stroke:none"
   id="text2700"
   transform="matrix(0.71248027,0,0,1.7129442,355.03953,-215.34122)"
   aria-label="MODEL"><path
     id="path115"
     style="font-style:normal;font-variant:normal;font-weight:normal;font-stretch:normal;line-height:1.25;font-family:'Comic Sans MS';-inkscape-font-specification:'Comic Sans MS';fill:#1e1e1c;fill-opacity:1"
     d="m 313.46289,291.02235 q -1.05469,0 -1.73828,-1.09375 -0.58594,-0.9375 -1.05469,-3.125 l -0.70312,-3.35938 q -0.80078,-3.125 -2.53907,-13.78906 l -3.90625,11.77734 -1.15234,3.71094 q -0.70312,2.20703 -1.46484,3.61328 -0.82032,1.48438 -2.20703,1.48438 -1.15235,0 -1.81641,-1.25 -0.42969,-0.82032 -0.78125,-2.08985 l -0.56641,-2.16797 q -1.97265,-6.89453 -3.47656,-14.76562 l -0.70312,3.49609 -2.51954,10.3125 q -0.15625,1.81641 -0.97656,5.3711 -0.58594,1.52343 -1.93359,1.52343 -0.95703,0 -1.52344,-0.68359 -0.48828,-0.58594 -0.48828,-1.44531 0,-3.26172 1.34766,-8.00781 l 2.14843,-7.8711 1.13282,-6.15234 q 0.85937,-4.31641 1.8164,-5.64453 0.78125,-1.13282 1.9336,-1.13282 1.26953,0 1.89453,1.44532 0.76172,1.73828 1.64062,7.08984 1.03516,6.42578 3.22266,13.90625 2.89062,-7.51953 5,-15.66406 l 0.58594,-2.85156 q 0.35156,-1.71875 0.91796,-2.77344 0.76172,-1.44531 2.08985,-1.44531 1.67969,0 2.55859,3.24218 0.3125,1.11328 0.76172,4.60938 1.15234,8.82812 2.87109,15.07812 l 0.95704,3.35938 q 0.74218,2.69531 0.74218,3.32031 0,0.83984 -0.64453,1.40625 -0.625,0.56641 -1.42578,0.56641 z" /><path
     id="path117"
     style="font-style:normal;font-variant:normal;font-weight:normal;font-stretch:normal;line-height:1.25;font-family:'Comic Sans MS';-inkscape-font-specification:'Comic Sans MS';fill:#1e1e1c;fill-opacity:1"
     d="m 332.70117,290.59266 q -5.50781,0 -9.33594,-3.30078 -4.0625,-3.51563 -4.0625,-9.0625 0,-6.75781 4.00391,-12.28516 4.47266,-6.13281 11.15234,-6.13281 6.42579,0 9.55079,2.89062 3.26171,3.00782 3.26171,9.49219 0,6.75781 -3.67187,12.1875 -4.21875,6.21094 -10.89844,6.21094 z m 1.75781,-26.77734 q -4.78515,0 -8.10546,4.76562 -3.06641,4.375 -3.06641,9.64844 0,3.76953 2.79297,6.13281 2.67578,2.22656 6.62109,2.22656 4.7461,0 7.83203,-4.78515 2.75391,-4.27735 2.75391,-9.60938 0,-4.66797 -2.08984,-6.5625 -1.99219,-1.8164 -6.73829,-1.8164 z" /><path
     id="path119"
     style="font-style:normal;font-variant:normal;font-weight:normal;font-stretch:normal;line-height:1.25;font-family:'Comic Sans MS';-inkscape-font-specification:'Comic Sans MS';fill:#1e1e1c;fill-opacity:1"
     d="m 370.00586,289.26453 q -3.02734,2.07032 -8.69141,2.07032 -1.42578,0 -3.26172,-0.44922 -2.20703,-0.52735 -3.32031,-1.36719 h -0.19531 q -0.83984,0 -1.40625,-0.58594 -0.56641,-0.58593 -0.56641,-1.42578 0,-2.05078 0.17578,-6.13281 0.19532,-4.10156 0.19532,-6.15234 0,-2.28516 -0.0977,-6.81641 -0.0781,-4.55078 -0.0781,-6.83594 0,-0.80078 0.82031,-1.67969 0.82031,-0.8789 1.64062,-0.8789 0.46875,0 3.125,1.30859 3.00782,1.46485 3.47657,1.6211 5.54687,1.89453 9.45312,5.82031 4.58984,4.6289 4.58984,10.17578 0,3.33984 -1.58203,6.40625 -1.5625,3.06641 -4.27734,4.92187 z m -4.10156,-20.66406 q -1.99219,-1.30859 -9.19922,-4.49219 l 0.0976,5.625 0.0586,5.60547 -0.3125,10.66407 q 0.13672,0.0586 0.41015,0.2539 1.71875,1.15235 4.33594,1.15235 4.45313,0 6.48438,-1.36719 1.89453,-1.28906 3.00781,-3.45703 1.13281,-2.1875 1.13281,-4.55078 0,-5.50782 -6.01562,-9.4336 z" /><path
     id="path121"
     style="font-style:normal;font-variant:normal;font-weight:normal;font-stretch:normal;line-height:1.25;font-family:'Comic Sans MS';-inkscape-font-specification:'Comic Sans MS';fill:#1e1e1c;fill-opacity:1"
     d="m 399.67383,263.11219 q -0.27344,0 -0.60547,-0.0977 -3.30078,-0.9375 -6.36719,-0.9375 -1.60156,0 -3.49609,0.29297 -1.89453,0.29297 -4.08203,0.89844 0.17578,1.26953 0.17578,2.03125 0,2.71484 -0.33203,7.46094 l 8.55468,-0.82031 q 3.76954,-0.39063 4.62891,-0.39063 0.85938,0 1.44531,0.54688 0.58594,0.54687 0.58594,1.46484 0,1.77734 -1.79687,1.99219 l -4.64844,0.41015 -9.02344,0.82032 q -0.0781,1.38671 -0.13672,2.63671 -0.0391,1.23047 -0.0391,2.30469 0,4.31641 0.625,5.07813 0.46875,0.54687 3.06641,0.54687 1.21093,0 3.63281,-0.0586 2.4414,-0.0781 3.67187,-0.0781 0.39063,0 1.15235,-0.11718 0.76172,-0.13672 1.13281,-0.13672 2.07031,0 2.07031,2.03125 0,1.64062 -1.66015,1.97265 -1.83594,0.3711 -7.94922,0.3711 -6.05469,0 -7.77344,-1.60157 -1.875,-1.73828 -1.875,-8.00781 0,-1.25 0.0586,-2.73437 0.0586,-1.48438 0.15625,-3.20313 -0.21484,-0.44922 -0.21484,-0.95703 0,-0.66406 0.37109,-1.19141 0.39063,-5.64453 0.39063,-8.33984 0,-0.72266 -0.19531,-2.10937 -0.19532,-1.40625 -0.19532,-2.12891 0,-2.32422 1.95313,-2.32422 0.82031,0 1.40625,0.56641 2.34375,-0.625 4.41406,-0.9375 2.08984,-0.3125 3.92578,-0.3125 4.7461,0 7.57813,1.13281 1.30859,0.52734 1.30859,1.875 0,0.78125 -0.50781,1.38672 -0.56641,0.66406 -1.40625,0.66406 z" /><path
     id="path123"
     style="font-style:normal;font-variant:normal;font-weight:normal;font-stretch:normal;line-height:1.25;font-family:'Comic Sans MS';-inkscape-font-specification:'Comic Sans MS';fill:#1e1e1c;fill-opacity:1"
     d="m 422.91602,288.60047 q -2.20704,1.03516 -6.9336,1.85547 -4.35547,0.76172 -7.10937,0.76172 -1.97266,0 -2.83203,-0.60547 -1.17188,-0.82031 -1.17188,-3.00781 l 0.39063,-6.46485 q 0.50781,-8.94531 0.50781,-19.84375 0,-0.83984 0.54687,-1.42578 0.56641,-0.58593 1.38672,-0.58593 0.83985,0 1.38672,0.58593 0.56641,0.58594 0.56641,1.42578 0,11.03516 -0.52735,20.07813 l -0.2539,2.96875 q -0.15625,1.62109 -0.11719,2.87109 5.09766,0.0586 12.89062,-2.40234 0.33204,-0.0977 0.625,-0.0977 0.83985,0 1.40625,0.66407 0.48829,0.60546 0.48829,1.38671 0,1.25 -1.25,1.83594 z" /></g><g
   style="font-style:normal;font-weight:normal;font-size:40px;line-height:1.25;font-family:sans-serif;white-space:pre;shape-inside:url(#rect2725);fill:#1e1e1c;fill-opacity:1;stroke:none"
   id="text2723"
   transform="matrix(0.66360104,0,0,1.7662234,39.770538,-231.32384)"
   aria-label="SKETCH"><path
     id="path95"
     style="font-style:normal;font-variant:normal;font-weight:normal;font-stretch:normal;font-family:'This is nu jazz';-inkscape-font-specification:'This is nu jazz';fill:#1e1e1c;fill-opacity:1"
     d="m 472.9707,263.44809 q 3.82813,0 6.5625,3.3789 0.23438,0.33204 0.23438,1.13282 0,1.60156 -1.875,1.60156 -0.9961,0 -1.875,-1.36719 -1.01563,-0.97656 -3.90625,-0.97656 -5.48828,0 -6.09375,2.10937 -0.85938,1.32813 -0.85938,2.65625 v 0.3125 q 0,2.32422 4.0625,3.14454 4.86328,0.42968 6.5625,0.8789 3.16407,1.25 4.45313,4.17969 0.78125,2.55859 0.78125,3.32031 v 0.46875 q 0,3.47656 -1.01563,4.25781 -2.07031,1.9336 -6.48437,3.53516 -1.48438,0.33203 -2.96875,0.41016 -2.28516,0 -6.09375,-2.08985 -2.34375,-2.08984 -2.34375,-3.14453 v -0.80078 q 0,-0.68359 1.01562,-0.97656 h 0.78125 q 0.70313,0 2.42188,1.77734 1.97265,1.54297 7.10937,1.54297 h 0.85938 q 2.96875,-0.29297 2.96875,-2.73437 v -1.36719 q 0,-3.65235 -2.1875,-4.60938 -1.81641,-0.625 -5.70313,-0.625 -4.51172,-1.44531 -5.78125,-2.8125 -2.34375,-1.85547 -2.34375,-3.86718 v -0.80079 q 0.80078,-3.14453 2.03125,-4.25781 3.28125,-2.55859 7.8125,-4.02344 0.6836,-0.17578 1.875,-0.2539 z" /><path
     id="path97"
     style="font-style:normal;font-variant:normal;font-weight:normal;font-stretch:normal;font-family:'This is nu jazz';-inkscape-font-specification:'This is nu jazz';fill:#1e1e1c;fill-opacity:1"
     d="m 488.14648,263.54574 q 1.03516,0 1.40625,1.07422 0.54688,2.59766 0.54688,4.16016 v 0.15625 q 0,1.67969 -0.0781,4.16016 0.21485,1.25 1.01563,1.25 h 0.39062 q 1.01563,0 3.67188,-3.08594 2.20703,-1.81641 3.125,-3.55469 2.61719,-3.86719 4.10156,-3.08594 h 0.625 q 0.23438,0.0781 0.23438,0.48828 v 0.52735 q 0,0.60547 -1.79688,2.91015 -1.23047,1.95313 -3.71094,4.80469 -3.28125,2.85156 -3.28125,3.4961 l -0.0781,0.5664 q 0,1.60156 5.46875,6.48438 2.28516,2.1875 4.60937,5.39062 0.85938,0.58594 0.85938,1.17188 v 0.66406 q 0,1.03516 -1.40625,1.25 h -0.625 q -1.15234,0 -3.75,-3.57422 -0.0977,0 -2.26563,-2.73437 -3.24218,-2.61719 -4.21875,-3.73047 -1.05468,-1.60157 -2.03125,-1.60157 h -0.15625 q -1.25,0 -1.25,2.57813 v 0.17578 q 0.15625,3.84766 0.15625,4.39453 v 1.17188 q 0,2.1875 -2.10937,2.83203 h -0.85938 q -0.9375,0 -0.9375,-1.07422 v -0.35156 q -0.15625,-4.1211 -0.15625,-4.64844 v -1.50391 l 0.23438,-2.73437 q -0.15625,-2.36328 -0.15625,-3.98438 l 0.625,-5.33203 q 0.0781,-0.50781 0.0781,-2.14844 v -0.0781 l -0.15625,-5.05859 q 0.29297,-1.42579 1.875,-1.42579 z" /><path
     id="path99"
     style="font-style:normal;font-variant:normal;font-weight:normal;font-stretch:normal;font-family:'This is nu jazz';-inkscape-font-specification:'This is nu jazz';fill:#1e1e1c;fill-opacity:1"
     d="m 524.47461,263.87778 q 1.40625,0 1.40625,0.95703 v 0.42968 q 0,0.9375 -1.875,1.60157 -2.12891,1.23047 -8.51563,1.03515 -2.1875,0 -2.1875,2.30469 0.29297,5.17578 1.09375,5.17578 0.3711,0.15625 0.9375,0.25391 4.33594,-0.0781 7.03125,-0.25391 h 0.625 q 2.73438,0.23438 2.73438,1.3086 v 0.82031 q 0,1.1914 -1.95313,1.52344 h -1.17187 q -2.12891,0.35156 -8.04688,0.48828 -2.03125,0 -2.03125,2.67578 v 2.26562 q 0,1.03516 -0.0781,2.26563 0,1.85547 1.79687,1.85547 h 0.23438 l 4.14062,-0.3125 q 0.44922,0 1.95313,0.0976 1.71875,-0.17578 3.28125,-0.17578 h 0.15625 q 2.73437,0 2.73437,0.74219 v 0.95703 q 0,1.21094 -4.6875,2.20703 -4.49218,0.0781 -8.28125,0.39063 h -0.85937 q -2.83203,0 -3.67188,-1.52344 -0.46875,-1.03516 -0.46875,-1.71875 v -2.44141 q 0,-0.19531 -0.15625,-2.57812 v -0.0781 q 0.39063,-2.65625 1.01563,-10.85937 -0.39063,-5.56641 -0.78125,-5.56641 -0.39063,-0.54687 -0.39063,-1.05469 v -0.72265 q 0,-1.01563 2.73438,-1.875 0.0781,-0.0781 0.625,-0.0781 h 2.03125 q 0.48828,0 1.17187,0.0781 l 2.8125,-0.11719 q 4.51172,-0.0781 6.64063,-0.0781 z" /><path
     id="path101"
     style="font-style:normal;font-variant:normal;font-weight:normal;font-stretch:normal;font-family:'This is nu jazz';-inkscape-font-specification:'This is nu jazz';fill:#1e1e1c;fill-opacity:1"
     d="m 532.24805,263.85824 q 0.72265,0 2.03125,0.0781 3.125,-0.0781 3.90625,-0.0781 4.29687,0.17579 6.64062,0.17579 h 0.23438 q 2.8125,0 2.8125,1.05468 v 0.74219 q 0,1.52344 -4.0625,1.99219 -2.34375,0 -2.89063,0.82031 -0.23437,0.80078 -0.23437,1.83594 0,1.52344 0.23437,3.3789 -0.0781,4.78516 -0.0781,6.01563 0,0.68359 0.15625,2.65625 -0.56641,8.49609 -1.01563,8.49609 -0.9375,1.40625 -1.875,1.40625 h -0.78125 q -0.58594,0 -0.70312,-0.82031 v -0.25391 q 0.23437,-4.74609 0.625,-6.26953 -0.17578,-17.08984 -1.09375,-17.08984 -0.60547,-0.42969 -1.25,-0.42969 -4.19922,0.42969 -4.76563,0.42969 -1.875,-0.3125 -1.875,-1.73828 v -0.58594 q 0,-1.58203 3.98438,-1.81641 z" /><path
     id="path103"
     style="font-style:normal;font-variant:normal;font-weight:normal;font-stretch:normal;font-family:'This is nu jazz';-inkscape-font-specification:'This is nu jazz';fill:#1e1e1c;fill-opacity:1"
     d="m 561.36914,263.60434 h 1.01563 q 2.03125,0 4.6875,2.01172 1.71875,1.89453 1.71875,2.87109 v 0.64453 q 0,1.13281 -1.32813,1.28906 -0.13672,0.0781 -0.3125,0.0781 -1.07422,0 -1.95312,-1.60156 -1.01563,-1.44532 -3.28125,-1.44532 h -1.95313 q -5.56641,0 -7.03125,3.76954 -0.9375,3.22265 -0.9375,5.37109 v 1.28906 q 0.60547,5.9961 1.01563,5.9961 0.97656,4.08203 3.59375,4.08203 h 2.5 q 5.15625,-0.52735 5.15625,-0.95703 2.42187,-0.9375 2.73437,-0.9375 h 1.32813 q 0.625,0.42968 0.625,0.85937 v 1.36719 q 0,1.38672 -6.64063,4.25781 -0.50781,0.15625 -0.70312,0.15625 h -0.78125 l -2.5,-0.56641 q -2.07032,0 -4.76563,-0.8789 -1.44531,-1.09375 -2.34375,-2.8125 -2.07031,-3.37891 -2.5,-6.40625 -0.15625,-0.60547 -0.46875,-3.35938 v -2.40234 q 0,-2.69531 1.5625,-6.73828 1.07422,-1.48438 2.8125,-2.42188 5.44922,-3.14453 8.75,-3.51562 z" /><path
     id="path105"
     style="font-style:normal;font-variant:normal;font-weight:normal;font-stretch:normal;font-family:'This is nu jazz';-inkscape-font-specification:'This is nu jazz';fill:#1e1e1c;fill-opacity:1"
     d="m 593.22461,263.79965 h 0.70312 q 0.76172,0 1.01563,1.54297 0.3125,2.34375 0.3125,3.26172 v 3.10547 q -0.15625,2.91015 -0.15625,3.26172 v 0.3125 l 0.46875,11.52343 v 3.08594 q 0,1.66016 -1.875,2.36328 h -0.78125 q -1.01563,0 -1.01563,-2.10937 -0.23437,-0.78125 -0.46875,-9.21875 0,-1.01563 -1.79687,-1.23047 l -2.34375,0.23437 q -2.85156,-0.0781 -4.53125,-0.0781 -4.6875,0 -4.6875,0.82031 -0.3125,0.58594 -0.3125,1.30859 v 1.23047 q 0,1.01563 -0.0391,5.0586 v 1.875 q 0,1.48437 -1.875,2.20703 -0.0977,0.0781 -0.54688,0.0781 h -0.3125 q -1.01562,0 -1.01562,-1.21093 v -2.05079 q 0.11718,-3.33984 0.11718,-3.67187 -0.3125,-4.04297 -0.46875,-8.88672 v -0.33203 q 0,-2.87109 0.3125,-6.44531 -0.0781,-2.63672 -0.0781,-3.57422 0.54687,-2.38281 2.10937,-2.38281 h 0.3125 q 1.32813,0 1.32813,2.85156 0.15625,2.91015 0.15625,3.33984 -0.23438,2.53906 -0.23438,3.26172 v 0.56641 q 0,1.5625 0.9375,2.05078 0.82032,0.23437 1.64063,0.23437 h 0.23437 q 0.52735,0 2.26563,-0.23437 h 1.01562 q 2.38282,0 5.46875,0.15625 2.1875,0 2.1875,-2.36328 v -6.60157 q 0,-2.40234 1.09375,-3.00781 0.41016,-0.33203 0.85938,-0.33203 z" /></g><g
   style="font-style:normal;font-weight:normal;font-size:40px;line-height:1.25;font-family:sans-serif;white-space:pre;shape-inside:url(#rect2825);fill:#1e1e1c;fill-opacity:1;stroke:none"
   id="text2823"
   transform="matrix(1,0,0,1.7561078,-608.62809,-186.69512)"
   aria-label="IDE"><path
     id="path108"
     style="font-style:normal;font-variant:normal;font-weight:normal;font-stretch:normal;font-family:'This is nu jazz';-inkscape-font-specification:'This is nu jazz';fill:#1e1e1c;fill-opacity:1"
     d="m 759.27539,244.94028 h 1.01563 q 1.11328,0 1.32812,3.96484 v 0.23437 q 0,1.42579 -0.0781,3.57422 0.0781,3.35938 0.0781,5.56641 -0.39062,4.55078 -0.39062,5.74219 l 0.3125,6.54297 v 0.33203 q 0,1.77734 -1.71875,2.51953 l -0.46875,0.0781 h -0.46875 q -1.09375,0 -1.09375,-3.24218 0,-0.52735 -0.23438,-3.30079 v -5.66406 q 0.3125,-3.28125 0.3125,-4.60937 v -0.33203 q 0,-0.3711 -0.23437,-2.75391 0.0781,-3.125 0.0781,-4.6875 0,-0.42969 -0.0781,-1.54297 0,-2.03125 1.64062,-2.42187 z" /><path
     id="path110"
     style="font-style:normal;font-variant:normal;font-weight:normal;font-stretch:normal;font-family:'This is nu jazz';-inkscape-font-specification:'This is nu jazz';fill:#1e1e1c;fill-opacity:1"
     d="m 778.10352,244.94028 1.93359,0.11718 q 5.60547,0.33203 7.03125,2.89063 2.65625,4.80469 2.48047,7.65625 0.46875,3.57422 0.41015,4.41406 l -0.0586,0.9375 q -0.17578,2.77344 -1.54297,5.80078 -0.0586,0.89844 -1.32812,2.48047 -1.75782,1.42578 -6.64063,3.18359 -3.0664,0.83985 -8.35937,0.9961 -0.66407,0.0586 -1.01563,0.0195 -3.49609,-0.21484 -3.3789,-2.1875 l 0.0195,-0.3125 q 0.52734,-3.24219 0.8789,-6.25 l 0.0781,-1.28906 q 0.17578,-7.73438 -0.0781,-9.86328 0.0586,-0.78125 -0.17578,-4.47266 l 0.0781,-1.26953 q 0.13672,-2.10938 4.14062,-2.22656 l 4.04297,-0.625 q 0.74219,-0.0391 1.48438,0 z m -5.83985,5.625 0.29297,7.51953 -0.0977,1.48437 q -0.0977,3.94531 -0.13671,4.47266 l -0.17579,2.69531 q -0.13671,2.16797 0.46875,2.65625 0.41016,0.42969 1.36719,0.48828 h 0.0781 q 0.48828,0.0195 4.08203,-0.23437 3.18359,0.21484 5.48828,-1.32813 1.34766,-1.26953 1.67969,-2.94922 0.82031,-4.14062 0.85937,-4.88281 l 0.0391,-0.46875 q 0.0391,-0.50781 -0.39062,-4.80469 0.13672,-2.22656 -1.71875,-5.11718 -0.46875,-0.97657 -4.76563,-1.25 -0.27343,-0.0977 -0.85937,-0.13672 -5.54688,-0.13672 -5.56641,0.3125 -0.44922,-0.0391 -0.64453,1.54297 z" /><path
     id="path112"
     style="font-style:normal;font-variant:normal;font-weight:normal;font-stretch:normal;font-family:'This is nu jazz';-inkscape-font-specification:'This is nu jazz';fill:#1e1e1c;fill-opacity:1"
     d="m 811.30664,245.17465 q 1.40625,0 1.40625,0.95703 v 0.42969 q 0,0.9375 -1.875,1.60156 -2.12891,1.23047 -8.51562,1.03516 -2.1875,0 -2.1875,2.30469 0.29296,5.17578 1.09375,5.17578 0.37109,0.15625 0.9375,0.2539 4.33593,-0.0781 7.03125,-0.2539 h 0.625 q 2.73437,0.23437 2.73437,1.30859 v 0.82031 q 0,1.19141 -1.95312,1.52344 h -1.17188 q -2.12891,0.35156 -8.04687,0.48828 -2.03125,0 -2.03125,2.67578 v 2.26563 q 0,1.03515 -0.0781,2.26562 0,1.85547 1.79688,1.85547 h 0.23437 l 4.14063,-0.3125 q 0.44921,0 1.95312,0.0977 1.71875,-0.17578 3.28125,-0.17578 h 0.15625 q 2.73438,0 2.73438,0.74218 v 0.95704 q 0,1.21093 -4.6875,2.20703 -4.49219,0.0781 -8.28125,0.39062 h -0.85938 q -2.83203,0 -3.67187,-1.52344 -0.46875,-1.03515 -0.46875,-1.71875 v -2.4414 q 0,-0.19531 -0.15625,-2.57813 v -0.0781 q 0.39062,-2.65625 1.01562,-10.85938 -0.39062,-5.5664 -0.78125,-5.5664 -0.39062,-0.54688 -0.39062,-1.05469 v -0.72266 q 0,-1.01562 2.73437,-1.875 0.0781,-0.0781 0.625,-0.0781 h 2.03125 q 0.48828,0 1.17188,0.0781 l 2.8125,-0.11718 q 4.51171,-0.0781 6.64062,-0.0781 z" /></g><text
   style="fill:black;fill-opacity:1;line-height:1.25;stroke:none;font-family:sans-serif;font-style:normal;font-weight:normal;font-size:40px;white-space:pre;shape-inside:url(#rect3961);"
   id="text3959"
   xml:space="preserve" /></svg>
