<?xml version="1.0" encoding="UTF-8" standalone="no"?>
<svg
   xmlns:dc="http://purl.org/dc/elements/1.1/"
   xmlns:cc="http://creativecommons.org/ns#"
   xmlns:rdf="http://www.w3.org/1999/02/22-rdf-syntax-ns#"
   xmlns:svg="http://www.w3.org/2000/svg"
   xmlns="http://www.w3.org/2000/svg"
   xmlns:sodipodi="http://sodipodi.sourceforge.net/DTD/sodipodi-0.dtd"
   xmlns:inkscape="http://www.inkscape.org/namespaces/inkscape"
   inkscape:version="1.0 (4035a4fb49, 2020-05-01)"
   sodipodi:docname="thermoplasticthermoset.svg"
   xml:space="preserve"
   style="enable-background:new 0 0 1000 225.2;"
   viewBox="0 0 1000 225.2"
   y="0px"
   x="0px"
   id="Calque_1"
   version="1.1"><metadata
   id="metadata723"><rdf:RDF><cc:Work
       rdf:about=""><dc:format>image/svg+xml</dc:format><dc:type
         rdf:resource="http://purl.org/dc/dcmitype/StillImage" /></cc:Work></rdf:RDF></metadata><defs
   id="defs721"><rect
     id="rect733"
     height="68.470973"
     width="282.2028"
     y="97.907093"
     x="373.71073" /><rect
     id="rect727"
     height="48.41629"
     width="159.72851"
     y="87.782805"
     x="251.58371" /></defs><sodipodi:namedview
   inkscape:current-layer="g716"
   inkscape:window-maximized="1"
   inkscape:window-y="-8"
   inkscape:window-x="-8"
   inkscape:cy="89.805727"
   inkscape:cx="505.28615"
   inkscape:zoom="1.562706"
   showgrid="false"
   id="namedview719"
   inkscape:window-height="745"
   inkscape:window-width="1304"
   inkscape:pageshadow="2"
   inkscape:pageopacity="0"
   guidetolerance="10"
   gridtolerance="10"
   objecttolerance="10"
   borderopacity="1"
   bordercolor="#666666"
   pagecolor="#ffffff" />
<style
   id="style632"
   type="text/css">
	.st0{fill:#1E1E1C;}
	.st1{fill:#1E1E1C;stroke:#1E1E1C;stroke-width:0.25;stroke-miterlimit:10;}
	.st2{fill:#1E1E1C;stroke:#1E1E1C;stroke-width:0.15;stroke-miterlimit:10;}
	.st3{fill:#FFFFFF;}
	.st4{stroke:#1E1E1C;stroke-miterlimit:10;}
	.st5{fill:none;stroke:#1E1E1C;stroke-width:3;stroke-linecap:round;stroke-linejoin:round;stroke-miterlimit:10;}
</style>
<g
   id="g716">
	
	<g
   id="g660">
		<path
   id="path656"
   d="M468.5,110.1c0.1-0.1,0.2-0.2,0.3-0.2c0.2,0,0.3,0.1,0.4,0.2c0.1,0.1,0.1,0.3,0.1,0.4c0,0.4-0.3,1.7-0.9,3.7    c-2.7,9-4.2,13.8-4.6,14.5c-0.1,0.3-0.3,0.5-0.6,0.5c-0.1,0-0.2,0-0.4-0.1c-0.2-0.2-0.9-1.7-2-4.4s-2.3-6-3.6-9.6    c-0.1-0.3-0.3-0.7-0.5-1.4c-0.3-0.7-0.4-1.1-0.5-1.4c-0.4-0.9-0.5-1.4-0.5-1.6c0-0.4,0.2-0.5,0.5-0.5c0.1,0,0.3,0.1,0.4,0.2    c0.2,0.2,1.7,3.9,4.4,11.2c1.1,3,1.8,4.7,1.9,4.9c0.1,0.3,0.2,0.4,0.2,0.4c0,0,0,0,0.1-0.1c0.5-1.3,1.9-5.8,4.3-13.7    c0.3-1,0.5-1.8,0.6-2.2C468.3,110.5,468.4,110.2,468.5,110.1z"
   class="st4" />
		<path
   id="path658"
   d="M476.2,107.7c0.2-0.1,0.4-0.1,0.6-0.1c0.3,0,0.5,0.1,0.5,0.4c0,0.1,0,0.2-0.1,0.3c-0.1,0.1-0.3,0.2-0.7,0.3    c-0.7,0.3-1.2,0.6-1.6,1c-0.6,0.6-0.9,1.4-0.9,2.2c0,0.4,0.1,0.8,0.2,1.2c0.1,0.3,1,1.2,2.7,2.8c1,1,1.6,1.6,1.7,1.7    c1,1.3,1.5,3,1.5,5c0,1.7-0.6,3.1-1.9,4.4c-0.4,0.4-0.9,0.8-1.4,1c-0.3,0.1-0.7,0.3-1.3,0.5c-0.6,0.2-1,0.3-1.1,0.3    c-0.3,0.1-0.7,0.2-1.2,0.2c-0.2,0-0.4,0-0.4-0.1c-0.1-0.1-0.1-0.2-0.1-0.4c0-0.2,0-0.3,0.1-0.4c0.1-0.1,0.9-0.3,2.1-0.6    c0.9-0.2,1.7-0.6,2.3-1.3c0.7-0.7,1.2-1.5,1.4-2.3c0.1-0.3,0.1-0.8,0.1-1.4c0-1.1-0.1-2-0.4-2.7c-0.2-0.5-0.4-1-0.7-1.3    c-0.3-0.4-0.8-0.9-1.5-1.7c-1.1-1.1-1.7-1.7-1.9-1.9c-0.8-0.7-1.3-1.6-1.4-2.5c0-0.1,0-0.3,0-0.6c0-1,0.3-1.9,1-2.6    C474.6,108.5,475.3,108,476.2,107.7z"
   class="st4" />
	</g>
	
	<rect
   id="rect690"
   height="80.1"
   width="208.2"
   class="st5"
   y="70"
   x="217.8" />
	<g
   id="g696">
		<g
   id="g694">
			<path
   id="path692"
   d="M515.9,78.8c-1.5,4.6-2.8,9.2-3.3,14c-0.5,4.1-0.2,8.3,0.6,12.3c0.9,4.8,2.6,9.4,3.8,14.1     c1.2,4.7,1.8,9.5,2,14.4c0.2,5.4,0,10.9-0.8,16.2c-0.2,1.6,2.2,2.3,2.4,0.7c1.4-9.4,1.4-19.2-0.4-28.6c-1-4.8-2.8-9.4-3.9-14.2     c-1-4.1-1.6-8.3-1.4-12.6c0.3-5.4,1.7-10.6,3.4-15.6C518.8,77.9,516.4,77.2,515.9,78.8L515.9,78.8z"
   class="st0" />
		</g>
	</g>
	<g
   id="g702">
		<g
   id="g700">
			<path
   id="path698"
   d="M519.1,151.3c5.7,1.9,11.9,2.4,18,2.4c6.9,0,13.9-0.7,20.7-1.6c14-1.9,27.8-5.3,41.8-6.8     c17.5-1.9,35.2-1.5,52.7,0.1c17.8,1.7,35.4,4.8,52.9,8.1c8.6,1.6,17.1,2.8,25.8,1.4c8-1.3,15.9-4.1,24.1-4c2,0,4,0.3,6,0.7     c1.6,0.4,2.2-2,0.7-2.4c-7.9-1.9-15.9,0-23.7,1.8c-4.1,0.9-8.2,1.8-12.3,2.1c-4.5,0.3-8.9-0.1-13.3-0.8     c-8.8-1.3-17.5-3.2-26.2-4.7c-8.7-1.5-17.4-2.8-26.1-3.8c-17.5-2-35.2-2.9-52.7-1.6c-14.7,1.1-29,4.3-43.4,6.6     c-7,1.1-14,2-21,2.4c-6.3,0.3-12.8,0.3-19.1-1.1c-1.4-0.3-2.7-0.7-4-1.1C518.2,148.4,517.5,150.8,519.1,151.3L519.1,151.3z"
   class="st0" />
		</g>
	</g>
	<g
   id="g708">
		<g
   id="g706">
			<path
   id="path704"
   d="M762.6,150.7c1.6-10,1.2-20.2,0.2-30.1c-1.2-10.7-3.2-21.2-6-31.6c-1.4-5.3-3.1-10.5-5-15.6     c-0.6-1.5-3-0.8-2.4,0.7c3.5,9.2,6.2,18.9,8.1,28.5c2.1,10.4,3.5,21,3.7,31.6c0.1,5.3-0.1,10.6-0.9,15.9     C759.9,151.6,762.3,152.3,762.6,150.7L762.6,150.7z"
   class="st0" />
		</g>
	</g>
	<g
   id="g714">
		<g
   id="g712">
			<path
   id="path710"
   d="M517.1,80.4c31.6,1.4,62.7-5.2,94.1-6.7c30.1-1.5,60,2.9,90.1,4c16.5,0.6,33.2,0.3,49.5-2.7     c1.6-0.3,0.9-2.7-0.7-2.4c-29.4,5.5-59.6,2.2-89.2,0c-14.8-1.1-29.6-2-44.4-1.6c-15.7,0.5-31.4,2.4-47,4.1     c-17.4,1.9-34.9,3.6-52.4,2.8C515.5,77.8,515.5,80.3,517.1,80.4L517.1,80.4z"
   class="st0" />
		</g>
	</g>
<text
   transform="matrix(1.0939876,0,0,0.97081027,-1.7767954,5.5041251)"
   style="font-style:normal;font-variant:normal;font-weight:500;font-stretch:normal;font-size:40px;line-height:1.25;font-family:DeeDeeStretch;-inkscape-font-specification:'DeeDeeStretch, Medium';font-variant-ligatures:normal;font-variant-caps:normal;font-variant-numeric:normal;font-variant-east-asian:normal;white-space:pre;shape-inside:url(#rect727);fill:#000000;fill-opacity:1;stroke:none;"
   id="text725"
   xml:space="preserve"><tspan
     x="251.58398"
     y="124.7832"><tspan
       style="font-style:normal;font-variant:normal;font-weight:500;font-stretch:normal;font-size:40px;font-family:DeeDeeStretch;-inkscape-font-specification:'DeeDeeStretch, Medium';font-variant-ligatures:normal;font-variant-caps:normal;font-variant-numeric:normal;font-variant-east-asian:normal">BEBAN</tspan></tspan></text><text
   transform="translate(212.45199,-9.5987343)"
   style="font-style:normal;font-weight:normal;font-size:40px;line-height:1.25;font-family:sans-serif;white-space:pre;shape-inside:url(#rect733);fill:#000000;fill-opacity:1;stroke:none;"
   id="text731"
   xml:space="preserve"><tspan
     x="373.71094"
     y="134.90625"><tspan
       style="font-style:normal;font-variant:normal;font-weight:normal;font-stretch:normal;font-family:DeeDeeStretch;-inkscape-font-specification:DeeDeeStretch">MATERIAL</tspan></tspan></text></g>
</svg>
