<?xml version="1.0" encoding="UTF-8" standalone="no"?>
<svg
   xmlns:dc="http://purl.org/dc/elements/1.1/"
   xmlns:cc="http://creativecommons.org/ns#"
   xmlns:rdf="http://www.w3.org/1999/02/22-rdf-syntax-ns#"
   xmlns:svg="http://www.w3.org/2000/svg"
   xmlns="http://www.w3.org/2000/svg"
   xmlns:sodipodi="http://sodipodi.sourceforge.net/DTD/sodipodi-0.dtd"
   xmlns:inkscape="http://www.inkscape.org/namespaces/inkscape"
   viewBox="0 0 47.27 64.67"
   version="1.1"
   id="svg976"
   sodipodi:docname="type-ldpe.svg"
   inkscape:version="1.0 (4035a4fb49, 2020-05-01)">
  <metadata
     id="metadata982">
    <rdf:RDF>
      <cc:Work
         rdf:about="">
        <dc:format>image/svg+xml</dc:format>
        <dc:type
           rdf:resource="http://purl.org/dc/dcmitype/StillImage" />
      </cc:Work>
    </rdf:RDF>
  </metadata>
  <defs
     id="defs980">
    <rect
       x="134.43591"
       y="531.22559"
       width="289.24094"
       height="116.51113"
       id="rect2837" />
    <rect
       x="134.43591"
       y="531.22559"
       width="289.24094"
       height="116.51113"
       id="rect815" />
  </defs>
  <sodipodi:namedview
     inkscape:document-rotation="0"
     pagecolor="#ffffff"
     bordercolor="#666666"
     borderopacity="1"
     objecttolerance="10"
     gridtolerance="10"
     guidetolerance="10"
     inkscape:pageopacity="0"
     inkscape:pageshadow="2"
     inkscape:window-width="1304"
     inkscape:window-height="745"
     id="namedview978"
     showgrid="false"
     inkscape:zoom="8.5939268"
     inkscape:cx="21.303427"
     inkscape:cy="47.353587"
     inkscape:window-x="-8"
     inkscape:window-y="-8"
     inkscape:window-maximized="1"
     inkscape:current-layer="Calque_1" />
  <title
     id="title957">icon plastic type ldpe</title>
  <g
     id="Calque_1"
     data-name="Calque 1">
    <path
       d="M13.66,40.83a40.65,40.65,0,0,1-6.8-.29c-1.67-.19-5.28,0-4.5-2.66a14.16,14.16,0,0,1,1.52-2.81c.55-.92,1.08-1.85,1.59-2.78.86-1.57,1.66-3.17,2.43-4.77a3.16,3.16,0,0,0,1.93.16c.84-.29.9-1,.95-1.81.1-1.34.28-2.73.26-4.07a1.59,1.59,0,0,0-.42-1.17.52.52,0,0,0-.39-.37c-1-.28-1.78.55-2.51,1.1a21,21,0,0,0-2.67,2.31c-.48.51-1.16,1.21-.79,2a2.82,2.82,0,0,0,1.53,1.1c-1,2-1.95,3.91-3,5.81s-3.13,4.31-2.7,6.8,2.6,2.89,4.63,3.15a49,49,0,0,0,9,.56C15.09,43,15.1,40.75,13.66,40.83Z"
       style="fill:#1d1d1b"
       id="path959" />
    <path
       d="M35.34,15.41a6.93,6.93,0,0,0-.24-1.92.65.65,0,0,0-.06-.3c-.5-1.06-1.45-.64-2.26-.19a49.68,49.68,0,0,0-3.3-6.71c-1.2-2-2.7-5.12-5-6-2.53-1-4.18,1.41-5.45,3.21C17.18,6,15.7,8.8,14.14,11.52a1.12,1.12,0,0,0,1.93,1.13c1.22-2.13,2.4-4.28,3.71-6.36A29.09,29.09,0,0,1,21.7,3.52c.76-1,1.42-1.73,2.56-.78C25.85,4.06,27,6.42,28,8.2a48.89,48.89,0,0,1,2.83,5.88,3.87,3.87,0,0,0-1.55,1.47c-.53,1.11.62,1.92,1.35,2.55a21.1,21.1,0,0,0,1.85,1.42,3.72,3.72,0,0,0,1.63.88c1.16.07,1.28-1.59,1.32-2.4A22.34,22.34,0,0,0,35.34,15.41Z"
       style="fill:#1d1d1b"
       id="path961" />
    <path
       d="M45.87,34.45a54.55,54.55,0,0,0-3.79-7.27,1.12,1.12,0,0,0-1.93,1.13,62.66,62.66,0,0,1,3.16,5.8,24.53,24.53,0,0,1,1.14,3c.21.7.93,2.46.34,3.06s-2.18.39-2.8.44c-1.13.08-2.26.16-3.39.22a66.13,66.13,0,0,1-7,0,2.84,2.84,0,0,0-.67-2.43c-.9-.69-2.42.34-3.28.74s-2.73,1.06-3.28,2,.19,1.46.91,1.82a33.7,33.7,0,0,0,4.28,1.85c1.65.57,2.09-.44,2.12-1.76A69.57,69.57,0,0,0,40.3,43c1.92-.13,5.23.2,6.48-1.67S46.61,36.26,45.87,34.45Z"
       style="fill:#1d1d1b"
       id="path963" />
    <path
       d="M27.51,29c-.11-.11-.3-.21-1.57-.21h0l-1,0,0-.8c0-.95-.14-1.22-.24-1.35l0,0a.74.74,0,0,0-1,0c-.1.1-.17.26-.2,1.35l0,.79-.39,0a3.06,3.06,0,0,1-.59,0,4.08,4.08,0,0,1-1.93-.27s0-.05,0-.26,0-.18,0-.31,0-.34.05-.61,0-.51.06-.74c.15-1.77.29-4.13.41-7l.1-2.63L21,16.84c-.32-.32-.53-.45-.72-.45-.45,0-.54.58-.56.78-.06.37-.13,1.16-.21,2.35,0,.83-.09,1.5-.13,2h0C19.11,25,19,27.27,19,28.37a2,2,0,0,0,.14,1,1.83,1.83,0,0,0,1.15.61,20.71,20.71,0,0,0,2.86.35l.33,0V31c0,1.83.16,2.24.31,2.39a.62.62,0,0,0,.5.23l.23,0A.62.62,0,0,0,25,33v-2.7l.77,0a4.49,4.49,0,0,0,1.33-.15,1,1,0,0,0,.52-.49A.54.54,0,0,0,27.51,29Z"
       style="fill:#1d1d1b;stroke:#1d1d1b;stroke-miterlimit:10;stroke-width:0.25px"
       id="path965" />
    <g
       style="font-style:normal;font-weight:normal;font-size:40px;line-height:1.25;font-family:sans-serif;white-space:pre;shape-inside:url(#rect2837);fill:#1e1e1c;fill-opacity:1;stroke:none"
       id="text2835"
       transform="matrix(0.34247847,0,0,0.48165089,-41.933756,-212.31062)"
       aria-label="TOOLPATH">
      <path
         id="path19"
         style="font-style:normal;font-variant:normal;font-weight:normal;font-stretch:normal;font-family:DeeDeeStretch;-inkscape-font-specification:DeeDeeStretch;fill:#1e1e1c;fill-opacity:1"
         d="m 140.35555,541.90656 q -2.44,0.04 -3.76,0.08 -0.48,0 -0.88,-0.32 -0.36,-0.36 -0.36,-0.84 0,-0.48 0.32,-0.84 0.36,-0.4 0.84,-0.4 1.32,-0.04 4.12,-0.08 0.36,-0.48 1,-0.48 0.56,0 0.92,0.48 2.48,-0.04 4.24,-0.16 0.48,-0.04 0.84,0.32 0.4,0.32 0.44,0.8 0.04,0.48 -0.32,0.88 -0.32,0.36 -0.8,0.4 -1.76,0.12 -4.2,0.16 -0.08,3.8 0,12.8 0.12,8.96 -0.04,12.76 0,0.48 -0.4,0.8 -0.36,0.36 -0.84,0.36 -0.48,0 -0.84,-0.4 -0.32,-0.36 -0.32,-0.84 0.16,-3.76 0.04,-12.72 -0.08,-9 0,-12.76 z" />
      <path
         id="path21"
         style="font-style:normal;font-variant:normal;font-weight:normal;font-stretch:normal;font-family:DeeDeeStretch;-inkscape-font-specification:DeeDeeStretch;fill:#1e1e1c;fill-opacity:1"
         d="m 156.7893,539.50656 q 0.4,-0.16 0.8,-0.04 0.44,0.12 0.68,0.48 1.4,2.12 2.24,5.08 0.88,2.96 1.16,6.08 0.28,3.12 0.2,6.04 -0.04,2.88 -0.36,5.44 -0.32,2.24 -1.32,3.92 -0.96,1.68 -2.52,2.36 -1.72,0.72 -3.48,-0.08 -1.76,-0.8 -3.2,-2.88 -2.44,-3.4 -2.6,-10.04 -0.12,-5.56 1.16,-10.12 1,-3.48 2.4,-5.2 1.2,-1.48 2.64,-1.6 1.12,-0.12 2.2,0.56 z m -0.6,2.64 q -0.8,-0.88 -1.36,-0.84 -0.48,0.04 -1.04,0.72 -1.08,1.36 -1.92,4.36 -1.2,4.24 -1.08,9.4 0.12,5.92 2.12,8.76 2.04,2.84 3.84,2.08 0.8,-0.32 1.44,-1.44 0.68,-1.16 0.92,-2.92 0.36,-3.16 0.4,-6.52 0.08,-3.4 -0.6,-7.08 -0.64,-3.68 -1.92,-6.16 -0.48,-0.04 -0.8,-0.36 z" />
      <path
         id="path23"
         style="font-style:normal;font-variant:normal;font-weight:normal;font-stretch:normal;font-family:DeeDeeStretch;-inkscape-font-specification:DeeDeeStretch;fill:#1e1e1c;fill-opacity:1"
         d="m 170.61742,539.50656 q 0.4,-0.16 0.8,-0.04 0.44,0.12 0.68,0.48 1.4,2.12 2.24,5.08 0.88,2.96 1.16,6.08 0.28,3.12 0.2,6.04 -0.04,2.88 -0.36,5.44 -0.32,2.24 -1.32,3.92 -0.96,1.68 -2.52,2.36 -1.72,0.72 -3.48,-0.08 -1.76,-0.8 -3.2,-2.88 -2.44,-3.4 -2.6,-10.04 -0.12,-5.56 1.16,-10.12 1,-3.48 2.4,-5.2 1.2,-1.48 2.64,-1.6 1.12,-0.12 2.2,0.56 z m -0.6,2.64 q -0.8,-0.88 -1.36,-0.84 -0.48,0.04 -1.04,0.72 -1.08,1.36 -1.92,4.36 -1.2,4.24 -1.08,9.4 0.12,5.92 2.12,8.76 2.04,2.84 3.84,2.08 0.8,-0.32 1.44,-1.44 0.68,-1.16 0.92,-2.92 0.36,-3.16 0.4,-6.52 0.08,-3.4 -0.6,-7.08 -0.64,-3.68 -1.92,-6.16 -0.48,-0.04 -0.8,-0.36 z" />
      <path
         id="path25"
         style="font-style:normal;font-variant:normal;font-weight:normal;font-stretch:normal;font-family:DeeDeeStretch;-inkscape-font-specification:DeeDeeStretch;fill:#1e1e1c;fill-opacity:1"
         d="m 180.80555,541.14656 q -0.28,2.68 -0.2,13.24 0.04,4.68 0.2,8.08 0.08,1.8 0.2,2.8 l 0.16,1 q 0.2,0.4 1.56,0.4 0.56,0 1.6,-0.08 1.16,-0.12 1.52,-0.12 0.48,0 0.84,0.36 0.36,0.36 0.36,0.84 0,0.48 -0.36,0.84 -0.36,0.36 -0.84,0.36 -0.28,0 -1.32,0.08 -1.12,0.12 -1.8,0.12 -2.84,-0.04 -3.72,-1.68 -0.24,-0.48 -0.4,-1.88 -0.12,-1.04 -0.2,-2.92 -0.16,-3.44 -0.2,-8.2 -0.08,-10.68 0.2,-13.48 0.04,-0.48 0.44,-0.8 0.4,-0.32 0.88,-0.28 0.48,0.04 0.8,0.44 0.32,0.4 0.28,0.88 z" />
      <path
         id="path27"
         style="font-style:normal;font-variant:normal;font-weight:normal;font-stretch:normal;font-family:DeeDeeStretch;-inkscape-font-specification:DeeDeeStretch;fill:#1e1e1c;fill-opacity:1"
         d="m 191.77367,547.74656 q -0.08,3.44 -0.08,6.8 2.4,-0.84 3.72,-2.16 0.68,-0.64 1.36,-2.24 0.68,-1.64 1,-3.52 0.32,-2.04 0.08,-3.48 -0.24,-1.44 -0.96,-1.96 -0.16,-0.16 -1.4,0.12 -1.72,0.4 -2.36,1.76 -0.64,1.24 -0.56,3.52 0.04,0.88 -0.8,1.16 z m -0.08,9.04 q 0.04,5.08 0.32,9.84 0.04,0.52 -0.32,0.88 -0.32,0.36 -0.84,0.4 -0.48,0.04 -0.84,-0.28 -0.36,-0.36 -0.4,-0.84 -0.72,-12.68 0.12,-27 0.04,-0.48 0.4,-0.8 0.36,-0.36 0.84,-0.32 0.52,0.04 0.84,0.4 0.36,0.36 0.32,0.88 l -0.04,0.52 q 1.12,-1.08 2.84,-1.48 0.04,0 0.24,-0.04 0.2,-0.08 0.32,-0.12 0.12,-0.04 0.4,-0.08 0.28,-0.04 0.48,-0.04 0.2,0 0.48,0.04 0.28,0 0.52,0.08 0.24,0.04 0.52,0.16 0.28,0.12 0.52,0.28 0.96,0.8 1.44,2.16 0.52,1.36 0.48,2.76 0,1.4 -0.2,2.8 -0.36,2.16 -1.2,4.16 -0.8,1.96 -1.84,3 -1.72,1.64 -4.6,2.64 -0.4,0.16 -0.8,0 z" />
      <path
         id="path29"
         style="font-style:normal;font-variant:normal;font-weight:normal;font-stretch:normal;font-family:DeeDeeStretch;-inkscape-font-specification:DeeDeeStretch;fill:#1e1e1c;fill-opacity:1"
         d="m 210.01492,550.50656 2.12,-0.4 -0.36,-3.08 -0.12,-1.24 -0.68,1.84 z m -7.68,17.6 q 3.08,-11.52 6.4,-21.28 l 1.92,-5.64 v -0.08 q 0,-0.08 -0.04,-0.2 0,-0.16 0,-0.24 0,-0.48 0.16,-0.8 0.16,-0.44 0.56,-0.64 0.4,-0.24 0.88,-0.2 0.56,0.08 0.88,0.6 0.08,0.12 0.12,0.24 0.08,0.16 0.12,0.36 0.04,0.28 0.12,0.76 0.12,0.76 0.28,2.16 0.04,0.16 0.44,3.64 l 0.6,4.96 0.6,5.28 q 0.24,2.08 0.48,4.92 0.24,2.8 0.32,5.2 0,0.48 -0.36,0.88 -0.32,0.36 -0.8,0.36 -0.48,0 -0.88,-0.32 -0.36,-0.36 -0.36,-0.84 -0.16,-5.04 -1.36,-14.72 -1.88,0.36 -3.24,0.52 -2.16,6.84 -4.52,15.72 -0.12,0.48 -0.56,0.72 -0.44,0.24 -0.92,0.12 -0.48,-0.12 -0.72,-0.56 -0.24,-0.44 -0.12,-0.92 z" />
      <path
         id="path31"
         style="font-style:normal;font-variant:normal;font-weight:normal;font-stretch:normal;font-family:DeeDeeStretch;-inkscape-font-specification:DeeDeeStretch;fill:#1e1e1c;fill-opacity:1"
         d="m 222.0743,541.90656 q -2.44,0.04 -3.76,0.08 -0.48,0 -0.88,-0.32 -0.36,-0.36 -0.36,-0.84 0,-0.48 0.32,-0.84 0.36,-0.4 0.84,-0.4 1.32,-0.04 4.12,-0.08 0.36,-0.48 1,-0.48 0.56,0 0.92,0.48 2.48,-0.04 4.24,-0.16 0.48,-0.04 0.84,0.32 0.4,0.32 0.44,0.8 0.04,0.48 -0.32,0.88 -0.32,0.36 -0.8,0.4 -1.76,0.12 -4.2,0.16 -0.08,3.8 0,12.8 0.12,8.96 -0.04,12.76 0,0.48 -0.4,0.8 -0.36,0.36 -0.84,0.36 -0.48,0 -0.84,-0.4 -0.32,-0.36 -0.32,-0.84 0.16,-3.76 0.04,-12.72 -0.08,-9 0,-12.76 z" />
      <path
         id="path33"
         style="font-style:normal;font-variant:normal;font-weight:normal;font-stretch:normal;font-family:DeeDeeStretch;-inkscape-font-specification:DeeDeeStretch;fill:#1e1e1c;fill-opacity:1"
         d="m 243.82805,540.58656 q 0,1.76 -0.16,8.24 -0.12,6.48 0,10.68 0.16,4.16 0.76,8 0.08,0.48 -0.24,0.88 -0.28,0.4 -0.8,0.48 -0.48,0.08 -0.88,-0.24 -0.4,-0.28 -0.48,-0.8 -0.96,-6.28 -0.76,-17.68 -2.84,0.4 -6.64,0.48 -0.2,3.96 -0.28,5.72 -0.08,1.76 -0.04,4.92 0.08,3.12 0.4,5.6 0.04,0.48 -0.28,0.88 -0.28,0.4 -0.76,0.48 -0.48,0.04 -0.88,-0.24 -0.4,-0.32 -0.48,-0.8 -0.32,-2.48 -0.4,-5.44 -0.04,-3 0.04,-5.08 0.08,-2.12 0.24,-5.56 0.2,-3.44 0.24,-5.08 0.04,-0.72 0,-2.96 0,-1.96 0.08,-3.12 0.04,-0.52 0.4,-0.84 0.4,-0.32 0.88,-0.28 0.52,0.04 0.84,0.44 0.32,0.36 0.28,0.84 -0.08,1.08 -0.08,2.92 0.04,2.16 0,3.08 -0.04,0.96 -0.08,2.12 3.56,-0.12 6.2,-0.48 h 0.36 q 0.12,-5 0.12,-7.16 0,-0.48 0.36,-0.84 0.36,-0.36 0.84,-0.36 0.48,0 0.84,0.36 0.36,0.36 0.36,0.84 z" />
    </g>
  </g>
</svg>
