<?xml version="1.0" encoding="UTF-8" standalone="no"?>
<svg
   xmlns:dc="http://purl.org/dc/elements/1.1/"
   xmlns:cc="http://creativecommons.org/ns#"
   xmlns:rdf="http://www.w3.org/1999/02/22-rdf-syntax-ns#"
   xmlns:svg="http://www.w3.org/2000/svg"
   xmlns="http://www.w3.org/2000/svg"
   xmlns:sodipodi="http://sodipodi.sourceforge.net/DTD/sodipodi-0.dtd"
   xmlns:inkscape="http://www.inkscape.org/namespaces/inkscape"
   viewBox="0 0 45.29 65.06"
   version="1.1"
   id="svg169"
   sodipodi:docname="type-hdpe.svg"
   inkscape:version="1.0 (4035a4fb49, 2020-05-01)">
  <metadata
     id="metadata175">
    <rdf:RDF>
      <cc:Work
         rdf:about="">
        <dc:format>image/svg+xml</dc:format>
        <dc:type
           rdf:resource="http://purl.org/dc/dcmitype/StillImage" />
      </cc:Work>
    </rdf:RDF>
  </metadata>
  <defs
     id="defs173">
    <rect
       x="459.74741"
       y="255.79932"
       width="205.67647"
       height="88.723183"
       id="rect2725" />
    <rect
       x="459.74741"
       y="255.79932"
       width="205.67647"
       height="88.723183"
       id="rect112" />
  </defs>
  <sodipodi:namedview
     inkscape:document-rotation="0"
     pagecolor="#ffffff"
     bordercolor="#666666"
     borderopacity="1"
     objecttolerance="10"
     gridtolerance="10"
     guidetolerance="10"
     inkscape:pageopacity="0"
     inkscape:pageshadow="2"
     inkscape:window-width="1304"
     inkscape:window-height="745"
     id="namedview171"
     showgrid="false"
     inkscape:zoom="6.0403966"
     inkscape:cx="26.987579"
     inkscape:cy="48.027767"
     inkscape:window-x="-8"
     inkscape:window-y="-8"
     inkscape:window-maximized="1"
     inkscape:current-layer="svg169" />
  <title
     id="title150">icon plastic type hdpe</title>
  <g
     id="Calque_1"
     data-name="Calque 1">
    <path
       d="M25.79,32.65a12.14,12.14,0,0,0-3.26-.27c-.59,0-2,0-2.69-.08a55,55,0,0,0,3.27-5.2,35,35,0,0,0,2.82-4.74,9.25,9.25,0,0,0,.36-2.44v-.39c0-1.9-.74-3.17-2.2-3.75a3.7,3.7,0,0,0-1.52-.25,4.41,4.41,0,0,0-2.4.55l0,0a.89.89,0,0,0-.37.6c0,.22.1.57.83.57a1.78,1.78,0,0,0,.7-.14,1.33,1.33,0,0,1,.43-.11.45.45,0,0,0,.36-.13h.15a4.72,4.72,0,0,1,1,.12,1.41,1.41,0,0,1,1,.66,3.78,3.78,0,0,1,.4,2A8.69,8.69,0,0,1,24.3,22,42.67,42.67,0,0,1,21,27.5c-3.46,5.15-3.46,5.25-3.46,5.39a.81.81,0,0,0,.64.84c.23.07,1.47.11,4,.17l1,0,1.94,0a1.63,1.63,0,0,0,.79-.1c.11-.07.47-.28.45-.61S25.94,32.72,25.79,32.65Z"
       style="fill:#1d1d1b;stroke:#1d1d1b;stroke-miterlimit:10;stroke-width:0.25px"
       id="path152" />
    <path
       d="M13.11,40.17a55.37,55.37,0,0,1-6.57-.31c-1.14-.13-2.28-.31-3.41-.52-.77-.15-1,0-.78-.81a12.51,12.51,0,0,1,.49-1.46,95.89,95.89,0,0,1,4.78-9.84,11.78,11.78,0,0,0,1.87.53.64.64,0,0,0,.79-.6,39.37,39.37,0,0,0-.11-4.61c-.06-.81-.07-2.11-1-2.47s-1.4.53-1.84,1.12c-.24.3-.46.61-.69.92S5.87,23,5.5,23.43a4.86,4.86,0,0,0-.91,1.33.71.71,0,0,0-.07.68,1.77,1.77,0,0,0,.59.51l.51.33C4.71,28,3.82,29.72,3,31.47,1.87,33.75.4,36.22,0,38.76c-.4,2.75,2.56,2.79,4.58,3.08a53.51,53.51,0,0,0,8.49.56A1.12,1.12,0,0,0,13.11,40.17Z"
       style="fill:#1d1d1b"
       id="path154" />
    <path
       d="M44.3,35c-1-2.47-2-4.92-3-7.38-.54-1.31-2.7-.74-2.16.6l2.3,5.67c.36.9.75,1.79,1.07,2.7.16.46.84,2.13.38,2.56a4.72,4.72,0,0,1-1.23.25l-1.43.25c-1.17.18-2.35.32-3.53.41a51.57,51.57,0,0,1-5.83.12c-.06-.79,0-1.92-.72-2.45s-1.57-.08-2.26.29a40.89,40.89,0,0,0-3.82,2.41c-.12.08-1.31.67-.43,1.69a20.92,20.92,0,0,0,2.41,1.27,14.52,14.52,0,0,0,3.73,1.48,1.08,1.08,0,0,0,1.26-.89,6.66,6.66,0,0,0,.05-1.56,50.74,50.74,0,0,0,7.29-.29c1.22-.13,2.43-.31,3.64-.53a4.39,4.39,0,0,0,2.67-1C46,39.09,44.89,36.46,44.3,35Z"
       style="fill:#1d1d1b"
       id="path156" />
    <path
       d="M37.23,17.62a12.4,12.4,0,0,0-1.12-3.84.93.93,0,0,0-1.46-.27c-.13.08-.25.19-.38.29a1.29,1.29,0,0,0-.4.08c-1.61-2.94-3.3-5.83-5.12-8.65C27.29,3,25.38-1.5,22,.51c-2.18,1.31-3.71,4-5.05,6.1C15.44,9,14,11.48,12.64,14c-.7,1.26,1.23,2.39,1.93,1.13,2.21-4,4.42-8.3,7.5-11.68.35-.39.93-1.08,1.48-1.18.74-.12,1.25,1.08,1.59,1.59q1.32,1.94,2.56,3.91c1.52,2.42,2.94,4.88,4.32,7.38A3.15,3.15,0,0,0,31,17c-.26.8.47,1.35,1.07,1.81.91.7,4.15,3.23,5.26,1.74C37.91,19.84,37.4,18.41,37.23,17.62Z"
       style="fill:#1d1d1b"
       id="path158" />
  </g>
  <g
     style="font-style:normal;font-weight:normal;font-size:40px;line-height:1.25;font-family:sans-serif;white-space:pre;shape-inside:url(#rect2725);fill:#1e1e1c;fill-opacity:1;stroke:none"
     id="text2723"
     transform="matrix(0.47775201,0,0,0.48977351,-214.4859,-82.162171)"
     aria-label="sketch">
    <path
       id="path19"
       style="font-style:normal;font-variant:normal;font-weight:normal;font-stretch:normal;font-family:DeeDeeStretch;-inkscape-font-specification:DeeDeeStretch"
       d="m 469.90805,276.11883 q -0.56,-1.44 -1.56,-1.8 -0.8,-0.32 -1.72,0.08 -0.92,0.4 -1.28,1.16 -0.28,0.52 0,0.96 0.2,0.28 0.92,0.24 0.04,0 0.44,0 0.44,-0.04 0.72,-0.04 0.28,0 0.72,0.08 0.44,0.08 0.76,0.2 2.44,1.12 3.4,4.96 0.72,2.92 0.32,5.56 -0.2,1.36 -1.2,3 -1.52,2.56 -3.24,3 -1.8,0.52 -3.2,-1.08 -1,-1.12 -1.6,-2.96 -0.56,-1.88 -0.6,-3.6 0,-0.52 0.32,-0.88 0.36,-0.36 0.84,-0.36 0.52,0 0.88,0.36 0.36,0.32 0.36,0.8 0.04,1.4 0.48,2.88 0.44,1.44 1.12,2.16 0.4,0.48 0.76,0.4 0.8,-0.24 1.8,-1.92 0.76,-1.28 0.88,-2.12 0.36,-2.2 -0.24,-4.68 -0.64,-2.68 -2.04,-3.28 -0.16,-0.08 -1.64,-0.08 -1.96,0.04 -2.88,-1.28 -1.16,-1.56 -0.24,-3.4 0.76,-1.52 2.44,-2.28 1.84,-0.8 3.56,-0.16 2,0.76 2.96,3.2 0.16,0.44 -0.04,0.92 -0.16,0.44 -0.64,0.64 -0.44,0.16 -0.92,0 -0.44,-0.2 -0.64,-0.68 z" />
    <path
       id="path21"
       style="font-style:normal;font-variant:normal;font-weight:normal;font-stretch:normal;font-family:DeeDeeStretch;-inkscape-font-specification:DeeDeeStretch"
       d="m 477.63867,280.67883 -1.28,2.88 q -0.12,4.4 -0.12,7.76 0,0.48 -0.36,0.84 -0.36,0.36 -0.84,0.36 -0.48,0 -0.84,-0.36 -0.36,-0.36 -0.36,-0.84 0,-4.44 0.28,-13.32 0.32,-8.92 0.32,-13.36 0,-0.48 0.36,-0.84 0.36,-0.36 0.84,-0.36 0.48,0 0.84,0.36 0.36,0.36 0.36,0.84 0,4.4 -0.28,12.4 1.08,-2.48 1.96,-4.08 0.2,-0.44 0.68,-0.56 0.48,-0.16 0.92,0.08 0.44,0.2 0.56,0.68 0.16,0.48 -0.08,0.92 -0.76,1.44 -1.64,3.44 1.4,3.16 2.56,8.04 0.2,0.72 0.4,1.88 0.2,1.16 0.4,2 0.24,0.8 0.56,1.56 0.16,0.48 -0.04,0.96 -0.16,0.44 -0.64,0.64 -0.44,0.16 -0.92,0 -0.44,-0.2 -0.64,-0.64 -0.36,-0.88 -0.64,-1.88 -0.24,-1.04 -0.48,-2.24 -0.2,-1.24 -0.32,-1.72 -0.8,-3.28 -1.56,-5.44 z" />
    <path
       id="path23"
       style="font-style:normal;font-variant:normal;font-weight:normal;font-stretch:normal;font-family:DeeDeeStretch;-inkscape-font-specification:DeeDeeStretch"
       d="m 495.63117,276.79883 q 0,-0.04 -0.12,-0.16 -0.16,-0.24 -0.24,-0.4 -1.12,-1.88 -3.12,-2.48 -1.92,-0.56 -3.24,0.84 -0.68,0.76 -1.04,2.56 1.12,-0.04 3.88,-0.16 l 3,-0.16 z m 0.12,0 0.2,-0.04 q -0.12,-0.04 -0.2,0.04 z m -8.12,2.8 q -0.04,0.84 -0.04,1.76 0.08,2.24 0.48,4.28 0.4,2 0.96,2.96 0.72,1.28 1.56,1.96 0.84,0.64 1.6,0.72 1.72,0.12 2.88,-2.4 0.2,-0.48 0.64,-0.64 0.48,-0.16 0.92,0.04 0.48,0.2 0.64,0.68 0.16,0.44 -0.04,0.88 -0.88,1.96 -2.2,2.96 -1.36,1 -3,0.88 -1.52,-0.12 -2.84,-1.16 -1.32,-1.04 -2.24,-2.72 -0.76,-1.32 -1.24,-3.6 -0.44,-2.32 -0.52,-4.8 -0.16,-6.12 1.96,-8.4 1.16,-1.28 2.72,-1.64 1.6,-0.4 3,0.12 1.36,0.4 2.52,1.36 1.2,0.92 1.96,2.2 0.04,0.04 0.12,0.2 0.2,0.24 0.28,0.36 0.4,0.68 0.36,1.36 -0.04,0.68 -0.48,1.24 -0.4,0.56 -0.96,0.84 l -0.32,0.12 h -0.04 -0.04 -0.04 -0.04 -0.08 -0.28 l -0.96,0.08 -3,0.16 q -3,0.12 -4.24,0.2 z" />
    <path
       id="path25"
       style="font-style:normal;font-variant:normal;font-weight:normal;font-stretch:normal;font-family:DeeDeeStretch;-inkscape-font-specification:DeeDeeStretch"
       d="m 501.18742,272.67883 q -1.16,0.08 -2.08,0.08 -0.48,0 -0.84,-0.36 -0.36,-0.36 -0.36,-0.84 0,-0.48 0.36,-0.84 0.36,-0.36 0.84,-0.36 1,0 2.16,-0.12 0.08,-2.92 0.08,-5.6 0,-0.48 0.36,-0.84 0.36,-0.36 0.84,-0.36 0.48,0 0.84,0.36 0.36,0.36 0.36,0.84 0,2.56 -0.08,5.36 0.76,-0.08 1.28,-0.12 0.52,-0.04 0.88,0.28 0.4,0.32 0.44,0.84 0.04,0.48 -0.28,0.88 -0.32,0.36 -0.8,0.4 -0.6,0.04 -1.6,0.16 -0.08,2.4 -0.2,5.16 l -0.24,3.28 q -0.12,2.08 -0.24,3.4 -0.08,1.32 -0.08,3.08 0.04,1.76 0.24,3.24 0.04,0.48 -0.28,0.88 -0.28,0.4 -0.76,0.48 -0.48,0.04 -0.88,-0.24 -0.4,-0.32 -0.48,-0.8 -0.2,-1.56 -0.24,-3.44 0,-1.92 0.08,-3.32 l 0.28,-3.48 q 0.12,-1.76 0.2,-3.16 0.12,-2.6 0.2,-4.84 z" />
    <path
       id="path27"
       style="font-style:normal;font-variant:normal;font-weight:normal;font-stretch:normal;font-family:DeeDeeStretch;-inkscape-font-specification:DeeDeeStretch"
       d="m 516.39242,277.43883 q 0.04,-1.64 -0.96,-2.8 -0.84,-0.92 -1.36,-0.76 -0.6,0.2 -1.32,1.48 -0.68,1.2 -1.16,2.88 -0.44,1.64 -0.52,2.64 -0.44,5.6 1.4,8.56 1.2,2 2.32,1.6 0.52,-0.2 0.96,-0.92 0.48,-0.76 0.64,-2.08 0.08,-0.48 0.44,-0.76 0.4,-0.32 0.88,-0.24 0.52,0.04 0.8,0.44 0.32,0.36 0.28,0.88 -0.24,1.8 -1.08,3.16 -0.8,1.32 -2.08,1.76 -1.44,0.52 -2.84,-0.2 -1.36,-0.72 -2.4,-2.36 -2.24,-3.64 -1.72,-10 0.12,-1.28 0.64,-3.16 0.52,-1.92 1.36,-3.4 1.16,-2.04 2.64,-2.56 2,-0.64 3.88,1.44 1.68,1.84 1.6,4.48 0,0.48 -0.4,0.84 -0.36,0.32 -0.84,0.32 -0.48,0 -0.84,-0.36 -0.32,-0.4 -0.32,-0.88 z" />
    <path
       id="path29"
       style="font-style:normal;font-variant:normal;font-weight:normal;font-stretch:normal;font-family:DeeDeeStretch;-inkscape-font-specification:DeeDeeStretch"
       d="m 523.13242,281.35883 q 0.16,5.36 0.72,9.48 0.04,0.48 -0.28,0.88 -0.28,0.4 -0.76,0.48 -0.48,0.04 -0.88,-0.24 -0.4,-0.32 -0.48,-0.8 -0.72,-5.36 -0.8,-13.4 0,-0.68 -0.04,-5.64 -0.04,-5 -0.12,-7.6 0,-0.48 0.32,-0.84 0.36,-0.4 0.84,-0.4 0.48,0 0.84,0.36 0.4,0.32 0.4,0.8 0.08,2.16 0.12,11.08 l 0.16,-0.2 q 0.96,-1.4 2.24,-1.92 1.52,-0.68 3.28,0 1.24,0.44 2.12,1.52 0.92,1.04 1.4,2.28 0.56,1.44 0.84,3.32 0.32,1.88 0.32,3.56 0.04,1.64 0.04,3.44 v 3.16 q 0,0.52 -0.36,0.88 -0.32,0.36 -0.84,0.36 -0.48,0 -0.84,-0.32 -0.36,-0.36 -0.36,-0.84 -0.08,-2.4 0,-4.44 0.08,-2.04 -0.16,-4.32 -0.2,-2.28 -0.88,-3.92 -0.76,-1.92 -2.08,-2.44 -0.92,-0.32 -1.56,-0.04 -0.6,0.24 -1.2,1.08 -0.76,1.12 -1.76,4.24 -0.08,0.24 -0.24,0.44 z" />
  </g>
</svg>
