<?xml version="1.0" encoding="UTF-8" standalone="no"?>
<svg
   xmlns:dc="http://purl.org/dc/elements/1.1/"
   xmlns:cc="http://creativecommons.org/ns#"
   xmlns:rdf="http://www.w3.org/1999/02/22-rdf-syntax-ns#"
   xmlns:svg="http://www.w3.org/2000/svg"
   xmlns="http://www.w3.org/2000/svg"
   xmlns:sodipodi="http://sodipodi.sourceforge.net/DTD/sodipodi-0.dtd"
   xmlns:inkscape="http://www.inkscape.org/namespaces/inkscape"
   viewBox="0 0 46.28 64.7"
   version="1.1"
   id="svg191"
   sodipodi:docname="type-pet.svg"
   inkscape:version="1.0 (4035a4fb49, 2020-05-01)">
  <metadata
     id="metadata197">
    <rdf:RDF>
      <cc:Work
         rdf:about="">
        <dc:format>image/svg+xml</dc:format>
        <dc:type
           rdf:resource="http://purl.org/dc/dcmitype/StillImage" />
      </cc:Work>
    </rdf:RDF>
  </metadata>
  <defs
     id="defs195">
    <rect
       x="754.4707"
       y="237.09608"
       width="140.13927"
       height="93.697762"
       id="rect2825" />
    <rect
       x="754.4707"
       y="237.09608"
       width="140.13927"
       height="93.697762"
       id="rect4816" />
  </defs>
  <sodipodi:namedview
     inkscape:document-rotation="0"
     pagecolor="#ffffff"
     bordercolor="#666666"
     borderopacity="1"
     objecttolerance="10"
     gridtolerance="10"
     guidetolerance="10"
     inkscape:pageopacity="0"
     inkscape:pageshadow="2"
     inkscape:window-width="1304"
     inkscape:window-height="745"
     id="namedview193"
     showgrid="false"
     inkscape:zoom="3.9940257"
     inkscape:cx="-8.0611154"
     inkscape:cy="44.565915"
     inkscape:window-x="-8"
     inkscape:window-y="-8"
     inkscape:window-maximized="1"
     inkscape:current-layer="svg191" />
  <title
     id="title174">icon plastic type pet</title>
  <g
     transform="matrix(0.33241368,0,0,0.33241368,-36.037532,-29.692251)"
     id="Calque_1_6_">
    <path
       class="st0"
       d="m 150.5,214 c -7,0.8 -14,1.2 -21,1.2 -4.8,0 -12.6,0 -12.1,-6.7 0.5,-3.4 1.4,-6.7 2.7,-9.9 1,-3.1 2.1,-6.3 3.2,-9.4 1.9,-5.4 4,-10.8 6.2,-16 2.3,1.1 5.1,0.8 7.1,-0.8 1.1,-1.4 1.6,-3.3 1.4,-5.1 0,-3.4 0.2,-6.8 0.2,-10.2 0,-2.7 -0.8,-7.1 -4.7,-5.6 -2.3,1.3 -4.3,3.1 -5.9,5.1 -1.3,1.3 -2.5,2.7 -3.6,4.1 -1.2,1.3 -2.2,2.7 -3.1,4.1 -2,3.2 -0.4,4.9 2.6,5.9 -2.5,6.1 -4.9,12.2 -7.1,18.5 -1.5,4.2 -3,8.5 -4.2,12.7 -1.5,3.6 -1.8,7.6 -0.9,11.3 2,5.9 8.2,8 13.8,8.5 8.5,0.5 16.9,0.1 25.3,-1 4.3,-0.6 4.4,-7.2 0.1,-6.7 z"
       id="path2424" />
    <path
       class="st0"
       d="m 218,143.9 c 0,-0.4 0,-0.7 0,-1.1 0.1,-0.7 0.1,-1.5 0,-2.2 0,-3 -0.2,-6.1 -0.5,-9.2 -0.2,-2.5 -0.4,-5.4 -3,-6.6 -2.2,-0.8 -4.6,-0.4 -6.4,1.1 -3.7,-5.9 -7.4,-11.8 -11.2,-17.7 -4.6,-6.8 -10.3,-15.7 -18.7,-18.3 -9,-2.7 -14.3,4.6 -18.6,11.2 -5.6,8.9 -10.6,18.1 -15.1,27.5 -1.8,3.8 3.9,7.2 5.7,3.3 3.6,-7.6 7.5,-15 11.8,-22.3 3.5,-5.8 8.4,-17.4 16.7,-12.3 6.8,4.1 11.2,12.1 15.2,18.5 2.8,4.4 5.7,8.9 8.5,13.3 -0.6,0.4 -1.3,0.9 -1.8,1.4 -1.8,1.3 -2.6,3.5 -2.2,5.7 0.8,2.7 4.1,4.1 6.3,5.4 2.2,1.3 7.6,5.3 10.8,4.8 0.8,0.1 1.6,-0.3 2,-1 0,-0.1 0,-0.2 0,-0.3 0.3,-0.3 0.5,-0.8 0.5,-1.2 z"
       id="path2426" />
    <path
       class="st0"
       d="m 242.9,192.9 c -3.4,-8.2 -7.3,-16.2 -11.8,-23.9 -1,-1.5 -3.1,-1.9 -4.6,-0.9 -1.4,0.9 -1.9,2.8 -1.1,4.3 3.6,6.1 6.9,12.3 9.7,18.8 1.5,3.4 3,6.8 4.1,10.3 0.6,1.4 1.2,2.9 1.6,4.5 0.4,2.1 0,2.7 -1.8,3.8 -6.4,2.9 -13.4,4.5 -20.5,4.5 -6.1,0.4 -12.3,0.4 -18.5,0.5 0,-4.7 -0.8,-9.8 -6.5,-7.5 -3.8,1.7 -7.4,3.9 -10.7,6.5 -1.8,1.3 -5.2,3.2 -4,5.9 0.1,0.3 0.3,0.5 0.4,0.7 0.3,0.7 0.9,1.2 1.6,1.4 2.5,1.6 5.2,2.7 8.1,3.3 2.4,0.9 6.3,3.4 8.9,1.8 1.6,-1.4 2.3,-3.5 2,-5.6 7.9,-0.2 15.8,0 23.6,-0.9 4.1,-0.4 8.1,-1.2 12,-2.4 3.7,-0.8 7.1,-2.5 10,-5 5,-5.4 -0.2,-14.5 -2.5,-20.1 z"
       id="path2428" />
    <path
       class="st1"
       d="m 180,166 c -0.2,-25.8 -0.3,-26.3 -0.3,-26.6 v 0 c -0.5,-2.1 -1.7,-2.5 -2.7,-2.5 h -0.5 -0.2 -0.2 c -0.3,0 -0.6,0.1 -3.5,3 -1.3,1.2 -2.6,2.6 -3.7,4 -0.4,0.6 -0.7,1.2 -0.7,2 -0.1,1 0.6,2 1.7,2.1 0.1,0 0.2,0 0.4,0 0.6,0 1.4,-0.3 3.5,-2.7 0.7,-0.7 1.1,-1.2 1.4,-1.6 0,2.3 0,8.5 0.2,23.3 l 0.3,24.6 0.7,0.8 c 0.4,0.5 0.9,0.8 1.5,0.8 0.3,0 0.7,-0.1 0.9,-0.4 0.8,-0.6 1.3,-1.6 1.3,-2.6 z"
       id="path2430" />
    <path
       id="path2432"
       d="m 149.99609,277.87109 c -0.0584,-0.002 -0.12844,0.0108 -0.20898,0.0391 -0.0491,0.0172 -0.0931,0.0429 -0.14063,0.0625 0.10731,0.31877 0.26315,0.60262 0.48829,0.84961 0.17168,-0.54394 0.16574,-0.94241 -0.13868,-0.95118 z" />
  </g>
  <g
     style="font-style:normal;font-weight:normal;font-size:40px;line-height:1.25;font-family:sans-serif;white-space:pre;shape-inside:url(#rect2825);fill:#1e1e1c;fill-opacity:1;stroke:none"
     id="text2823"
     transform="matrix(0.59575857,0,0,0.42206237,-438.83343,-54.419056)"
     aria-label="IDE">
    <path
       id="path20"
       style="font-style:normal;font-variant:normal;font-weight:normal;font-stretch:normal;font-family:DeeDeeStretch;-inkscape-font-specification:DeeDeeStretch;fill:#1e1e1c;fill-opacity:1"
       d="m 755.5107,272.1357 q 1.96,0.04 3.52,0.04 0,-0.92 0.28,-13 0.16,-7.68 -0.08,-12.12 -2.12,0.04 -3.92,0.08 -0.52,0 -0.88,-0.32 -0.36,-0.36 -0.36,-0.84 0,-0.52 0.36,-0.88 0.32,-0.36 0.8,-0.36 2.08,-0.04 4.68,-0.08 0.16,-0.08 0.36,-0.08 0.28,0 0.52,0.08 h 4.28 q 0.48,0 0.84,0.36 0.36,0.36 0.36,0.84 0,0.48 -0.36,0.84 -0.36,0.36 -0.84,0.36 h -3.44 q 0.24,4.52 0.08,12.2 -0.28,12 -0.28,12.88 1.36,-0.04 2.64,-0.12 0.48,-0.04 0.84,0.32 0.4,0.32 0.44,0.8 0.04,0.48 -0.32,0.88 -0.32,0.36 -0.8,0.4 -3.64,0.24 -8.8,0.12 -0.48,0 -0.84,-0.36 -0.32,-0.36 -0.32,-0.84 0,-0.52 0.36,-0.84 0.36,-0.36 0.88,-0.36 z" />
    <path
       id="path22"
       style="font-style:normal;font-variant:normal;font-weight:normal;font-stretch:normal;font-family:DeeDeeStretch;-inkscape-font-specification:DeeDeeStretch;fill:#1e1e1c;fill-opacity:1"
       d="m 771.38758,272.8957 q 0.04,0.24 0.08,0.52 0.04,0.48 -0.28,0.88 -0.28,0.4 -0.76,0.44 -0.48,0.08 -0.88,-0.24 -0.4,-0.28 -0.48,-0.76 -0.64,-4.8 -0.32,-13.92 0.32,-9.48 -0.08,-13.6 -0.04,-0.52 0.28,-0.88 0.32,-0.4 0.8,-0.44 0.52,-0.04 0.88,0.28 0.4,0.32 0.44,0.8 l 0.16,2.08 q 0.4,-0.56 0.88,-1.04 1.44,-1.44 3.2,-2.04 1.76,-0.6 3.48,-0.24 1.76,0.36 3.08,1.68 1.32,1.28 1.88,3.32 1,3.76 0.56,11.16 -0.44,7.48 -1.92,11 -1.12,2.52 -4.52,2.8 -2.68,0.24 -5,-0.84 -0.76,-0.36 -1.48,-0.96 z m -0.32,-3.76 q 0.36,0.12 0.56,0.4 1.28,1.68 2.28,2.16 1.72,0.8 3.76,0.6 1.96,-0.16 2.48,-1.36 1.36,-3.12 1.8,-10.2 0.4,-7 -0.52,-10.36 -0.4,-1.44 -1.24,-2.24 -0.8,-0.84 -1.88,-1.04 -2.4,-0.52 -4.52,1.6 -1.04,1.04 -2.04,3.28 -0.12,0.32 -0.44,0.52 0,2.04 -0.16,7.4 -0.2,6.28 -0.08,9.24 z" />
    <path
       id="path24"
       style="font-style:normal;font-variant:normal;font-weight:normal;font-stretch:normal;font-family:DeeDeeStretch;-inkscape-font-specification:DeeDeeStretch;fill:#1e1e1c;fill-opacity:1"
       d="m 787.95258,244.4957 q 1.56,-0.04 5.28,-0.04 0.48,0 0.84,0.36 0.36,0.36 0.36,0.84 0,0.48 -0.36,0.84 -0.36,0.36 -0.84,0.36 -3.28,0 -4.56,0.04 -0.08,4.36 -0.04,11.96 0.84,0.04 2.2,0 0.52,0 0.88,0.36 0.36,0.32 0.36,0.84 0,0.48 -0.36,0.84 -0.32,0.36 -0.8,0.36 -1.48,0.04 -2.28,0 0.04,3.28 0.04,5.32 v 0.56 q 0,0.48 -0.04,1.24 0,0.76 0,1.4 -0.04,1.28 -0.04,1.96 v 0.08 0.08 q 0.24,0.04 0.56,0.08 1,0.12 2.72,0.16 h 2.92 q 1.68,-0.04 2.12,0 0.48,0.04 0.8,0.4 0.36,0.36 0.32,0.88 -0.04,0.48 -0.4,0.8 -0.36,0.36 -0.88,0.32 -0.36,-0.04 -1.92,0 h -3 q -1.84,-0.04 -2.96,-0.2 -0.72,-0.08 -1.2,-0.2 -0.76,-0.24 -1.16,-0.64 -0.16,-0.2 -0.24,-0.44 0,-0.08 -0.04,-0.16 v -0.16 q 0,-0.12 -0.04,-0.28 v -0.72 q 0,-0.72 0.04,-2 0,-0.64 0,-1.4 0.04,-0.76 0.04,-1.2 v -0.56 q 0,-2.08 -0.04,-6.44 -0.04,-4.4 -0.04,-7.76 0.04,-3.4 0.12,-6.48 0,-0.4 0.24,-0.72 0.28,-0.32 0.68,-0.4 0.32,-0.28 0.72,-0.28 z" />
  </g>
</svg>
