<?xml version="1.0" encoding="UTF-8" standalone="no"?>
<svg
   xmlns:dc="http://purl.org/dc/elements/1.1/"
   xmlns:cc="http://creativecommons.org/ns#"
   xmlns:rdf="http://www.w3.org/1999/02/22-rdf-syntax-ns#"
   xmlns:svg="http://www.w3.org/2000/svg"
   xmlns="http://www.w3.org/2000/svg"
   xmlns:sodipodi="http://sodipodi.sourceforge.net/DTD/sodipodi-0.dtd"
   xmlns:inkscape="http://www.inkscape.org/namespaces/inkscape"
   inkscape:version="1.0 (4035a4fb49, 2020-05-01)"
   sodipodi:docname="type-ps.svg"
   id="svg1434"
   version="1.1"
   viewBox="0 0 46.65 64.65">
  <metadata
     id="metadata1440">
    <rdf:RDF>
      <cc:Work
         rdf:about="">
        <dc:format>image/svg+xml</dc:format>
        <dc:type
           rdf:resource="http://purl.org/dc/dcmitype/StillImage" />
      </cc:Work>
    </rdf:RDF>
  </metadata>
  <defs
     id="defs1438">
    <rect
       id="rect2652"
       height="70.884399"
       width="103.47492"
       y="234.65179"
       x="134.43591" />
    <rect
       id="rect1310"
       height="70.884399"
       width="103.47492"
       y="234.65179"
       x="134.43591" />
  </defs>
  <sodipodi:namedview
     inkscape:current-layer="Calque_1"
     inkscape:window-maximized="1"
     inkscape:window-y="-8"
     inkscape:window-x="-8"
     inkscape:cy="46.408867"
     inkscape:cx="33.996946"
     inkscape:zoom="8.2659471"
     showgrid="false"
     id="namedview1436"
     inkscape:window-height="745"
     inkscape:window-width="1304"
     inkscape:pageshadow="2"
     inkscape:pageopacity="0"
     guidetolerance="10"
     gridtolerance="10"
     objecttolerance="10"
     borderopacity="1"
     bordercolor="#666666"
     pagecolor="#ffffff"
     inkscape:document-rotation="0" />
  <title
     id="title1419">icon plastic type ps</title>
  <g
     data-name="Calque 1"
     id="Calque_1">
    <path
       id="path1421"
       style="fill:#1d1d1b;stroke:#1d1d1b;stroke-miterlimit:10;stroke-width:0.25px"
       d="M28.59,26.58A4.64,4.64,0,0,0,27,24.87a5.47,5.47,0,0,0-2.24-1,2.43,2.43,0,0,0-.52,0A3.17,3.17,0,0,0,21.88,25l0,0a21.7,21.7,0,0,1,.42-3.22,19.47,19.47,0,0,1,.86-3.31c.63-1.55,1.45-2.33,2.42-2.33a1.7,1.7,0,0,0,1.23-.35l0,0a.59.59,0,0,0,.11-.61.66.66,0,0,0-.5-.43,2.28,2.28,0,0,0-.79-.08,3.46,3.46,0,0,0-.85.08,4.57,4.57,0,0,0-3,2.79,21,21,0,0,0-1.45,6,22.46,22.46,0,0,0-.14,2.87,19.83,19.83,0,0,0,.18,3.11,7,7,0,0,0,1.53,3.67A4.75,4.75,0,0,0,24,34.39a4,4,0,0,0,1.08.15,3.55,3.55,0,0,0,2.57-1.35,4.22,4.22,0,0,0,.87-1.39,8.79,8.79,0,0,0,.35-2.06c.05-.79.07-1.26.07-1.45A4.23,4.23,0,0,0,28.59,26.58Zm-1.25,1.81a7.29,7.29,0,0,1-.1,1.17,9.42,9.42,0,0,1-.34,1.84,3.09,3.09,0,0,1-.72,1A1.77,1.77,0,0,1,25,33a2.34,2.34,0,0,1-.65-.1,2.75,2.75,0,0,1-1.85-1.6,3,3,0,0,1-.29-1.26c0-.08,0-.39.14-1.32A8.68,8.68,0,0,1,23,26.27a1.54,1.54,0,0,1,.94-.84,1.77,1.77,0,0,1,.39-.06,2.13,2.13,0,0,1,.79.19,4.67,4.67,0,0,1,1.68,1.12A2.6,2.6,0,0,1,27.34,28.39Z" />
    <path
       id="path1423"
       style="fill:#1d1d1b"
       d="M38,15.11c-.27-1.53-1.57-1.29-2.77-.72a65.88,65.88,0,0,0-4.27-8.1,44.32,44.32,0,0,0-3.19-4.6A3.58,3.58,0,0,0,24.25.07c-1.43.33-2.16,1.72-2.9,2.85-1,1.56-2.13,3.08-3.22,4.61A88.63,88.63,0,0,0,12.51,16c-.7,1.26,1.23,2.38,1.93,1.13A73.76,73.76,0,0,1,19,10.18c1.71-2.39,3.3-4.89,5.05-7.26.46-.62.86-.88,1.52-.33a8.38,8.38,0,0,1,1.33,1.64q1.38,1.93,2.61,4a62.21,62.21,0,0,1,3.73,7.15,2.79,2.79,0,0,0-1.5,1.14c-.34.84.48,1.66,1,2.25a13.81,13.81,0,0,0,2.55,2.4c.54.39,1.38,1.13,2.05.58s.56-1.92.64-2.65A14.52,14.52,0,0,0,38,15.11Z" />
    <path
       id="path1425"
       style="fill:#1d1d1b"
       d="M45.55,36.21a74.63,74.63,0,0,0-3.44-7.83c-.66-1.28-2.59-.15-1.94,1.13A66.35,66.35,0,0,1,43.07,36c.38,1,.76,2,1.08,3,.39,1.25.38,2.1-1,2.37a55.31,55.31,0,0,1-6.7.47c-1.71.11-3.43.27-5.15.35,0-.3,0-.6,0-.89-.07-.83-.21-2-1.22-2.1s-2.41.69-3.35,1.1-2.58.9-3.06,1.84c-.4.77.12,1.44.78,1.81a37.8,37.8,0,0,0,4.11,1.7c.64.26,1.68.79,2.19,0l0-.07h0a.6.6,0,0,0,.06-.11,6.33,6.33,0,0,0,.31-1.05c2.34-.09,4.68-.31,7-.46,1.48-.1,3-.15,4.45-.29a5.76,5.76,0,0,0,2.89-.88C47.65,41.14,46.3,38.25,45.55,36.21Z" />
    <path
       id="path1427"
       style="fill:#1d1d1b"
       d="M15.24,42.16A48.15,48.15,0,0,1,7.1,41.6a13.44,13.44,0,0,1-3.7-1c-1.54-.78-1.23-2.2-.55-3.52,1.31-2.56,2.84-5,4.24-7.51a7.38,7.38,0,0,0,1.52.65,1.07,1.07,0,0,0,1.52-.87A7.31,7.31,0,0,0,10.47,27a29.36,29.36,0,0,0,.38-3.35,1,1,0,0,0-.68-1.09c-.6-.19-1.29.23-1.81.48A21.26,21.26,0,0,0,5.5,24.77c-.89.62-2.23,1.37-1.27,2.55a7.62,7.62,0,0,0,1,1c-.59,1.07-1.2,2.14-1.8,3.2C2.21,33.73.09,36.28,0,38.89-.1,42,3,43,5.49,43.56a46.83,46.83,0,0,0,9.75.84A1.12,1.12,0,0,0,15.24,42.16Z" />
    <g
       style="font-style:normal;font-weight:normal;font-size:40px;line-height:1.25;font-family:sans-serif;white-space:pre;shape-inside:url(#rect2652);fill:#1e1e1c;fill-opacity:1;stroke:none"
       id="text2650"
       transform="matrix(0.72380335,0,0,0.64696425,-88.11414,-114.06845)"
       aria-label="cnc">
      <path
         id="path19"
         style="font-style:normal;font-variant:normal;font-weight:normal;font-stretch:normal;font-family:DeeDeeStretch;-inkscape-font-specification:DeeDeeStretch;fill:#1e1e1c;fill-opacity:1"
         d="m 144.59555,256.29234 q 0.04,-1.64 -0.96,-2.8 -0.84,-0.92 -1.36,-0.76 -0.6,0.2 -1.32,1.48 -0.68,1.2 -1.16,2.88 -0.44,1.64 -0.52,2.64 -0.44,5.6 1.4,8.56 1.2,2 2.32,1.6 0.52,-0.2 0.96,-0.92 0.48,-0.76 0.64,-2.08 0.08,-0.48 0.44,-0.76 0.4,-0.32 0.88,-0.24 0.52,0.04 0.8,0.44 0.32,0.36 0.28,0.88 -0.24,1.8 -1.08,3.16 -0.8,1.32 -2.08,1.76 -1.44,0.52 -2.84,-0.2 -1.36,-0.72 -2.4,-2.36 -2.24,-3.64 -1.72,-10 0.12,-1.28 0.64,-3.16 0.52,-1.92 1.36,-3.4 1.16,-2.04 2.64,-2.56 2,-0.64 3.88,1.44 1.68,1.84 1.6,4.48 0,0.48 -0.4,0.84 -0.36,0.32 -0.84,0.32 -0.48,0 -0.84,-0.36 -0.32,-0.4 -0.32,-0.88 z" />
      <path
         id="path21"
         style="font-style:normal;font-variant:normal;font-weight:normal;font-stretch:normal;font-family:DeeDeeStretch;-inkscape-font-specification:DeeDeeStretch;fill:#1e1e1c;fill-opacity:1"
         d="m 155.69555,253.17234 q -0.12,0.04 -0.28,0.16 -0.84,0.64 -1.68,2.2 l -0.8,1.52 q -0.48,1 -0.72,1.4 -0.2,0.4 -0.64,0.56 -0.08,6.48 -0.44,12.16 -0.04,0.48 -0.4,0.8 -0.36,0.36 -0.88,0.32 -0.48,-0.04 -0.84,-0.4 -0.32,-0.36 -0.28,-0.88 0.52,-8.52 0.52,-19.08 0,-0.48 0.36,-0.84 0.36,-0.36 0.84,-0.36 0.48,0 0.84,0.36 0.36,0.36 0.36,0.84 v 2.4 q 1.08,-2 2.32,-2.92 1.36,-1 2.52,-0.56 1,0.36 1.48,1.6 0.48,1.16 0.56,3.28 0.04,1.2 -0.16,7.8 -0.16,4.64 0.4,7.36 0.12,0.48 -0.16,0.88 -0.28,0.44 -0.76,0.52 -0.48,0.12 -0.92,-0.16 -0.4,-0.28 -0.48,-0.76 -0.64,-3.08 -0.48,-7.92 0.04,-0.56 0.12,-2.56 0.08,-2 0.08,-2.52 0,-0.56 -0.04,-2.56 -0.08,-1.72 -0.36,-2.48 z" />
      <path
         id="path23"
         style="font-style:normal;font-variant:normal;font-weight:normal;font-stretch:normal;font-family:DeeDeeStretch;-inkscape-font-specification:DeeDeeStretch;fill:#1e1e1c;fill-opacity:1"
         d="m 168.97055,256.29234 q 0.04,-1.64 -0.96,-2.8 -0.84,-0.92 -1.36,-0.76 -0.6,0.2 -1.32,1.48 -0.68,1.2 -1.16,2.88 -0.44,1.64 -0.52,2.64 -0.44,5.6 1.4,8.56 1.2,2 2.32,1.6 0.52,-0.2 0.96,-0.92 0.48,-0.76 0.64,-2.08 0.08,-0.48 0.44,-0.76 0.4,-0.32 0.88,-0.24 0.52,0.04 0.8,0.44 0.32,0.36 0.28,0.88 -0.24,1.8 -1.08,3.16 -0.8,1.32 -2.08,1.76 -1.44,0.52 -2.84,-0.2 -1.36,-0.72 -2.4,-2.36 -2.24,-3.64 -1.72,-10 0.12,-1.28 0.64,-3.16 0.52,-1.92 1.36,-3.4 1.16,-2.04 2.64,-2.56 2,-0.64 3.88,1.44 1.68,1.84 1.6,4.48 0,0.48 -0.4,0.84 -0.36,0.32 -0.84,0.32 -0.48,0 -0.84,-0.36 -0.32,-0.4 -0.32,-0.88 z" />
    </g>
  </g>
</svg>
