<?xml version="1.0" encoding="UTF-8" standalone="no"?>
<svg
   xmlns:dc="http://purl.org/dc/elements/1.1/"
   xmlns:cc="http://creativecommons.org/ns#"
   xmlns:rdf="http://www.w3.org/1999/02/22-rdf-syntax-ns#"
   xmlns:svg="http://www.w3.org/2000/svg"
   xmlns="http://www.w3.org/2000/svg"
   xmlns:sodipodi="http://sodipodi.sourceforge.net/DTD/sodipodi-0.dtd"
   xmlns:inkscape="http://www.inkscape.org/namespaces/inkscape"
   viewBox="0 0 46.91 64.8"
   version="1.1"
   id="svg782"
   sodipodi:docname="type-pvc.svg"
   inkscape:version="1.0 (4035a4fb49, 2020-05-01)">
  <metadata
     id="metadata788">
    <rdf:RDF>
      <cc:Work
         rdf:about="">
        <dc:format>image/svg+xml</dc:format>
        <dc:type
           rdf:resource="http://purl.org/dc/dcmitype/StillImage" />
      </cc:Work>
    </rdf:RDF>
  </metadata>
  <defs
     id="defs786">
    <rect
       x="281.72491"
       y="254.64706"
       width="197.61073"
       height="68.558823"
       id="rect2702" />
    <rect
       x="281.72491"
       y="254.64706"
       width="197.61073"
       height="68.558823"
       id="rect508" />
  </defs>
  <sodipodi:namedview
     inkscape:document-rotation="0"
     pagecolor="#ffffff"
     bordercolor="#666666"
     borderopacity="1"
     objecttolerance="10"
     gridtolerance="10"
     guidetolerance="10"
     inkscape:pageopacity="0"
     inkscape:pageshadow="2"
     inkscape:window-width="1304"
     inkscape:window-height="745"
     id="namedview784"
     showgrid="false"
     inkscape:zoom="4.2883426"
     inkscape:cx="37.4827"
     inkscape:cy="52.851129"
     inkscape:window-x="-8"
     inkscape:window-y="-8"
     inkscape:window-maximized="1"
     inkscape:current-layer="svg782" />
  <title
     id="title765">icon plastic type pvc</title>
  <g
     id="Calque_1"
     data-name="Calque 1">
    <path
       d="M36.82,16.94a10.14,10.14,0,0,0-.62-3.56A1,1,0,0,0,34.85,13a7.94,7.94,0,0,0-1,.48q-2.27-4.1-4.54-8.18C28.18,3.24,26.47-.12,23.65,0c-2.54.12-4.17,3.42-5.38,5.25a59.16,59.16,0,0,0-4.63,8.26C13,14.81,15,16,15.57,14.64A57.17,57.17,0,0,1,19.1,8.1q1-1.65,2.13-3.24c.53-.76,1.36-2.39,2.37-2.6s2.18,1.51,2.69,2.29c.7,1.07,1.29,2.2,1.91,3.31L32,14.71l-.39.27a1.47,1.47,0,0,0-.88.85,1.35,1.35,0,0,0,.61,1.63c1.07.86,2.24,1.66,3.38,2.42.57.37,1.42.75,2,.09S36.89,17.74,36.82,16.94Z"
       style="fill:#1d1d1b"
       id="path767" />
    <path
       d="M46,35c-1.3-3-2.86-5.85-4.29-8.75-.64-1.29-2.57-.16-1.94,1.13q1.73,3.47,3.43,6.94a14.22,14.22,0,0,1,1.38,3.38,3,3,0,0,1,0,1.66c-.26.55-.89.61-1.42.73a59.37,59.37,0,0,1-12.85,1.84.58.58,0,0,0-.14,0l-.06-.86a1.49,1.49,0,0,0-.29-1.22,1.39,1.39,0,0,0-1.76-.29,31.57,31.57,0,0,0-4.12,1.84c-.57.32-1.19.93-.84,1.65s2,1.35,2.8,1.72A10.3,10.3,0,0,0,29.15,46c.66,0,.93-.4,1-1a8.09,8.09,0,0,0,.07-.86h.07a49.17,49.17,0,0,0,7.75-.69c1.26-.22,2.51-.49,3.76-.77a10.67,10.67,0,0,0,3.77-1.15C47.71,40.06,46.84,36.94,46,35Z"
       style="fill:#1d1d1b"
       id="path769" />
    <path
       d="M13,40.89a37.34,37.34,0,0,1-6.76-.51,27,27,0,0,1-3-.51c-1.09-.29-1.11-1-.7-1.93a48.83,48.83,0,0,1,3.21-5.49q1.71-2.87,3.43-5.73l.51.21a1.5,1.5,0,0,0,1.11.29c.78-.1,1.07-.69,1.14-1.4A41.39,41.39,0,0,0,12,21.65c0-.65-.1-1.5-.87-1.68s-1.76.79-2.36,1.25a12.37,12.37,0,0,0-2.93,2.7.94.94,0,0,0,.33,1.4,5.41,5.41,0,0,0,.87.52c-1.39,2.32-2.77,4.64-4.16,7C1.81,34.67-.27,37.08,0,39.42s2.73,2.66,4.64,3a42.84,42.84,0,0,0,8.3.73C14.41,43.08,14.42,40.84,13,40.89Z"
       style="fill:#1d1d1b"
       id="path771" />
    <path
       d="M25.82,25.59c-.21-.21-.64-.6-1.28-1.16l-.43-.36-.28-.25.26-.32a5.36,5.36,0,0,0,1.24-3.6,6.54,6.54,0,0,0-.1-1.15,3.26,3.26,0,0,0-1.64-2.65,3.23,3.23,0,0,0-1.28-.27,2.1,2.1,0,0,0-.7.11c-.58.21-.87.53-.87.94a.62.62,0,0,0,.29.52,1,1,0,0,0,.83.09,2.59,2.59,0,0,1,.64-.09c.29,0,1.2,0,1.2,2.5a5.25,5.25,0,0,1-.12,1.44A3,3,0,0,1,22.33,23c-.53.33-.79.65-.79,1s.35.69,1.16,1.12a4.52,4.52,0,0,1,2.81,4.28,3.61,3.61,0,0,1-2.59,3.75,4.43,4.43,0,0,1-1.34.15c-.88,0-1.12.11-1.24.23a.68.68,0,0,0,0,1,1,1,0,0,0,.79.39h.88a3.39,3.39,0,0,0,1.56-.38l.05,0a7.28,7.28,0,0,0,2.6-1.92,4.93,4.93,0,0,0,.82-3.05A5.63,5.63,0,0,0,25.82,25.59Z"
       style="fill:#1d1d1b;stroke:#1d1d1b;stroke-miterlimit:10;stroke-width:0.25px"
       id="path773" />
  </g>
  <g
     style="font-style:normal;font-weight:normal;font-size:40px;line-height:0;font-family:sans-serif;white-space:pre;shape-inside:url(#rect2702);fill:#1e1e1c;fill-opacity:1;stroke:none"
     id="text2700"
     transform="matrix(0.4087177,0,0,0.38285317,-106.28163,-51.649401)"
     aria-label="MODEL">
    <path
       id="path19"
       style="font-style:normal;font-variant:normal;font-weight:normal;font-stretch:normal;line-height:1.25;font-family:DeeDeeStretch;-inkscape-font-specification:DeeDeeStretch;fill:#1e1e1c;fill-opacity:1"
       d="m 294.92461,263.60648 q 0,2.76 -0.36,17.56 0,0.44 -0.08,2.4 -0.08,1.96 -0.08,2.76 0,0.8 0.08,2.2 0.12,1.4 0.36,2.44 0.12,0.52 -0.16,0.92 -0.24,0.44 -0.76,0.52 -0.48,0.12 -0.92,-0.16 -0.4,-0.24 -0.48,-0.72 -0.28,-1.2 -0.4,-2.76 -0.12,-1.56 -0.12,-2.4 0,-0.88 0.08,-2.92 0.08,-2.04 0.08,-2.36 0,-0.52 0.12,-5.4 0.16,-4.92 0.2,-7.44 -1.24,5.16 -2.2,10.8 -0.08,0.48 -0.52,0.8 -0.4,0.28 -0.88,0.2 -0.44,-0.08 -0.72,-0.44 -0.44,0.12 -0.88,-0.12 -0.4,-0.24 -0.52,-0.72 -0.64,-2.24 -1.12,-5 -0.32,12.92 -0.32,16.52 0,0.48 -0.36,0.84 -0.36,0.36 -0.84,0.36 -0.48,0 -0.84,-0.36 -0.36,-0.36 -0.36,-0.84 0,-4.36 0.2,-13.12 0.24,-8.76 0.24,-13.12 0,-0.48 0.32,-0.84 0.36,-0.36 0.88,-0.36 0.28,-0.32 0.72,-0.4 0.48,-0.04 0.88,0.28 0.4,0.28 0.48,0.76 l 0.36,3.04 q 0.28,2 0.4,3.2 0.16,1.16 0.44,2.84 0.28,1.68 0.6,3.04 1.12,-6.04 2.72,-11.84 0.12,-0.48 0.56,-0.72 0.44,-0.24 0.92,-0.12 0.04,0 0.08,0.04 0.36,-0.56 1,-0.56 0.48,0 0.84,0.36 0.36,0.36 0.36,0.84 z" />
    <path
       id="path21"
       style="font-style:normal;font-variant:normal;font-weight:normal;font-stretch:normal;line-height:1.25;font-family:DeeDeeStretch;-inkscape-font-specification:DeeDeeStretch;fill:#1e1e1c;fill-opacity:1"
       d="m 303.60961,262.92648 q 0.4,-0.16 0.8,-0.04 0.44,0.12 0.68,0.48 1.4,2.12 2.24,5.08 0.88,2.96 1.16,6.08 0.28,3.12 0.2,6.04 -0.04,2.88 -0.36,5.44 -0.32,2.24 -1.32,3.92 -0.96,1.68 -2.52,2.36 -1.72,0.72 -3.48,-0.08 -1.76,-0.8 -3.2,-2.88 -2.44,-3.4 -2.6,-10.04 -0.12,-5.56 1.16,-10.12 1,-3.48 2.4,-5.2 1.2,-1.48 2.64,-1.6 1.12,-0.12 2.2,0.56 z m -0.6,2.64 q -0.8,-0.88 -1.36,-0.84 -0.48,0.04 -1.04,0.72 -1.08,1.36 -1.92,4.36 -1.2,4.24 -1.08,9.4 0.12,5.92 2.12,8.76 2.04,2.84 3.84,2.08 0.8,-0.32 1.44,-1.44 0.68,-1.16 0.92,-2.92 0.36,-3.16 0.4,-6.52 0.08,-3.4 -0.6,-7.08 -0.64,-3.68 -1.92,-6.16 -0.48,-0.04 -0.8,-0.36 z" />
    <path
       id="path23"
       style="font-style:normal;font-variant:normal;font-weight:normal;font-stretch:normal;line-height:1.25;font-family:DeeDeeStretch;-inkscape-font-specification:DeeDeeStretch;fill:#1e1e1c;fill-opacity:1"
       d="m 313.79773,290.44648 q 0.04,0.24 0.08,0.52 0.04,0.48 -0.28,0.88 -0.28,0.4 -0.76,0.44 -0.48,0.08 -0.88,-0.24 -0.4,-0.28 -0.48,-0.76 -0.64,-4.8 -0.32,-13.92 0.32,-9.48 -0.08,-13.6 -0.04,-0.52 0.28,-0.88 0.32,-0.4 0.8,-0.44 0.52,-0.04 0.88,0.28 0.4,0.32 0.44,0.8 l 0.16,2.08 q 0.4,-0.56 0.88,-1.04 1.44,-1.44 3.2,-2.04 1.76,-0.6 3.48,-0.24 1.76,0.36 3.08,1.68 1.32,1.28 1.88,3.32 1,3.76 0.56,11.16 -0.44,7.48 -1.92,11 -1.12,2.52 -4.52,2.8 -2.68,0.24 -5,-0.84 -0.76,-0.36 -1.48,-0.96 z m -0.32,-3.76 q 0.36,0.12 0.56,0.4 1.28,1.68 2.28,2.16 1.72,0.8 3.76,0.6 1.96,-0.16 2.48,-1.36 1.36,-3.12 1.8,-10.2 0.4,-7 -0.52,-10.36 -0.4,-1.44 -1.24,-2.24 -0.8,-0.84 -1.88,-1.04 -2.4,-0.52 -4.52,1.6 -1.04,1.04 -2.04,3.28 -0.12,0.32 -0.44,0.52 0,2.04 -0.16,7.4 -0.2,6.28 -0.08,9.24 z" />
    <path
       id="path25"
       style="font-style:normal;font-variant:normal;font-weight:normal;font-stretch:normal;line-height:1.25;font-family:DeeDeeStretch;-inkscape-font-specification:DeeDeeStretch;fill:#1e1e1c;fill-opacity:1"
       d="m 330.36273,262.04648 q 1.56,-0.04 5.28,-0.04 0.48,0 0.84,0.36 0.36,0.36 0.36,0.84 0,0.48 -0.36,0.84 -0.36,0.36 -0.84,0.36 -3.28,0 -4.56,0.04 -0.08,4.36 -0.04,11.96 0.84,0.04 2.2,0 0.52,0 0.88,0.36 0.36,0.32 0.36,0.84 0,0.48 -0.36,0.84 -0.32,0.36 -0.8,0.36 -1.48,0.04 -2.28,0 0.04,3.28 0.04,5.32 v 0.56 q 0,0.48 -0.04,1.24 0,0.76 0,1.4 -0.04,1.28 -0.04,1.96 v 0.08 0.08 q 0.24,0.04 0.56,0.08 1,0.12 2.72,0.16 h 2.92 q 1.68,-0.04 2.12,0 0.48,0.04 0.8,0.4 0.36,0.36 0.32,0.88 -0.04,0.48 -0.4,0.8 -0.36,0.36 -0.88,0.32 -0.36,-0.04 -1.92,0 h -3 q -1.84,-0.04 -2.96,-0.2 -0.72,-0.08 -1.2,-0.2 -0.76,-0.24 -1.16,-0.64 -0.16,-0.2 -0.24,-0.44 0,-0.08 -0.04,-0.16 v -0.16 q 0,-0.12 -0.04,-0.28 v -0.72 q 0,-0.72 0.04,-2 0,-0.64 0,-1.4 0.04,-0.76 0.04,-1.2 v -0.56 q 0,-2.08 -0.04,-6.44 -0.04,-4.4 -0.04,-7.76 0.04,-3.4 0.12,-6.48 0,-0.4 0.24,-0.72 0.28,-0.32 0.68,-0.4 0.32,-0.28 0.72,-0.28 z" />
    <path
       id="path27"
       style="font-style:normal;font-variant:normal;font-weight:normal;font-stretch:normal;line-height:1.25;font-family:DeeDeeStretch;-inkscape-font-specification:DeeDeeStretch;fill:#1e1e1c;fill-opacity:1"
       d="m 345.51648,264.56648 q -0.28,2.68 -0.2,13.24 0.04,4.68 0.2,8.08 0.08,1.8 0.2,2.8 l 0.16,1 q 0.2,0.4 1.56,0.4 0.56,0 1.6,-0.08 1.16,-0.12 1.52,-0.12 0.48,0 0.84,0.36 0.36,0.36 0.36,0.84 0,0.48 -0.36,0.84 -0.36,0.36 -0.84,0.36 -0.28,0 -1.32,0.08 -1.12,0.12 -1.8,0.12 -2.84,-0.04 -3.72,-1.68 -0.24,-0.48 -0.4,-1.88 -0.12,-1.04 -0.2,-2.92 -0.16,-3.44 -0.2,-8.2 -0.08,-10.68 0.2,-13.48 0.04,-0.48 0.44,-0.8 0.4,-0.32 0.88,-0.28 0.48,0.04 0.8,0.44 0.32,0.4 0.28,0.88 z" />
  </g>
</svg>
