<?xml version="1.0" encoding="UTF-8" standalone="no"?>
<svg
   xmlns:dc="http://purl.org/dc/elements/1.1/"
   xmlns:cc="http://creativecommons.org/ns#"
   xmlns:rdf="http://www.w3.org/1999/02/22-rdf-syntax-ns#"
   xmlns:svg="http://www.w3.org/2000/svg"
   xmlns="http://www.w3.org/2000/svg"
   xmlns:sodipodi="http://sodipodi.sourceforge.net/DTD/sodipodi-0.dtd"
   xmlns:inkscape="http://www.inkscape.org/namespaces/inkscape"
   inkscape:version="1.0 (4035a4fb49, 2020-05-01)"
   sodipodi:docname="type-pp.svg"
   id="svg1277"
   version="1.1"
   viewBox="0 0 46.59 64.7">
  <metadata
     id="metadata1283">
    <rdf:RDF>
      <cc:Work
         rdf:about="">
        <dc:format>image/svg+xml</dc:format>
        <dc:type
           rdf:resource="http://purl.org/dc/dcmitype/StillImage" />
      </cc:Work>
    </rdf:RDF>
  </metadata>
  <defs
     id="defs1281">
    <rect
       id="rect2843"
       height="77.402504"
       width="181.69218"
       y="526.33704"
       x="403.30777" />
    <rect
       id="rect1009"
       height="77.402504"
       width="181.69218"
       y="526.33704"
       x="403.30777" />
  </defs>
  <sodipodi:namedview
     inkscape:current-layer="Calque_1"
     inkscape:window-maximized="1"
     inkscape:window-y="-8"
     inkscape:window-x="-8"
     inkscape:cy="54.737541"
     inkscape:cx="23.295"
     inkscape:zoom="8.2595597"
     showgrid="false"
     id="namedview1279"
     inkscape:window-height="745"
     inkscape:window-width="1304"
     inkscape:pageshadow="2"
     inkscape:pageopacity="0"
     guidetolerance="10"
     gridtolerance="10"
     objecttolerance="10"
     borderopacity="1"
     bordercolor="#666666"
     pagecolor="#ffffff"
     inkscape:document-rotation="0" />
  <title
     id="title1262">icon plastic type pp</title>
  <g
     data-name="Calque 1"
     id="Calque_1">
    <path
       id="path1264"
       style="fill:#1d1d1b;stroke:#1d1d1b;stroke-miterlimit:10;stroke-width:0.15px"
       d="M25.21,26.27a5.79,5.79,0,0,0-1.9-1.86,4.48,4.48,0,0,0-1.81-.5h-.2V19.68h.22a9.69,9.69,0,0,1,1-.06c1,0,1.44-.27,1.44-.79a.71.71,0,0,0-.49-.78A6,6,0,0,0,22.06,18a8.51,8.51,0,0,0-1.59.07,1,1,0,0,0-.79.64c-.05.12-.13.3-.16,3.12v1.52c0,1.24.1,1.62.26,1.81s.57.38,1.24.44a3,3,0,0,1,2.13.92,4.28,4.28,0,0,1,1.19,3.14c0,.34,0,.61,0,.8C24,33.26,22.68,35,20.23,35.83,19.7,36,19,36.3,19,36.89a.68.68,0,0,0,.36.57,1,1,0,0,0,.56.19A5.67,5.67,0,0,0,22,37a7.4,7.4,0,0,0,3.71-4.43,8.47,8.47,0,0,0,.41-2.63A6.48,6.48,0,0,0,25.21,26.27Z" />
    <path
       id="path1266"
       style="fill:#1d1d1b"
       d="M13.4,42.59a60.76,60.76,0,0,1-7-.26c-1-.1-2.64,0-3.47-.79a3.18,3.18,0,0,1-.54-3,33.23,33.23,0,0,1,2.74-6.56q1-2.13,2.09-4.26l.21.11c.68.38,1.53.78,2.11.25a1.63,1.63,0,0,0,.7-1.1c.22-1.1,1.36-7.5-1.38-6.64a11.27,11.27,0,0,0-3.49,2.58c-.74.67-1.85,1.43-1.32,2.57a3.06,3.06,0,0,0,1.19,1.18c-.93,1.88-1.86,3.77-2.74,5.67-1.12,2.38-2.75,5.23-2.45,8,.27,2.48,2,3.79,4.34,4.1a60.46,60.46,0,0,0,9,.48A1.12,1.12,0,0,0,13.4,42.59Z" />
    <path
       id="path1268"
       style="fill:#1d1d1b"
       d="M36.06,15.08c-.64-.89-1.58-.56-2.41-.21C31,10.11,28.87,4.8,24.46,1.38c-1-.81-2.23-1.65-3.58-1s-2.24,2.31-3.07,3.45A58.39,58.39,0,0,0,12.43,13c-.61,1.29,1.32,2.43,1.94,1.13a56.93,56.93,0,0,1,4.36-7.67A18,18,0,0,1,21.4,2.8c1-.85,2.45.92,3.17,1.65,3.12,3.16,4.87,7.38,7,11.26A3.11,3.11,0,0,0,30,16.93a1.17,1.17,0,0,0,.22,1.36c.38,1.05,1.72,1.85,2.42,2.62s1.72,2.06,2.86,1.51.91-2.17,1-3.08C36.58,18.12,36.85,16.15,36.06,15.08Z" />
    <path
       id="path1270"
       style="fill:#1d1d1b"
       d="M45,36.66c-1.2-2.81-2.54-5.55-4-8.25-.68-1.26-2.61-.14-1.93,1.13,1.22,2.26,2.37,4.55,3.4,6.9C43,37.62,43.5,38.82,44,40c.14.33.3.51.15.82s-.81.4-1,.47a10.33,10.33,0,0,1-2.05.47c-3.77.52-7.6.49-11.39.75-.09-1.2-.5-2.26-1.59-2.39s-2.1.65-2.9,1.08-2.31,1.09-2.77,2c-1.11,2.25,3.23,2.92,4.48,3.22.8.18,1.91.61,2.53-.19a2.3,2.3,0,0,0,.31-1.51c2.08-.15,4.16-.25,6.24-.36,2.6-.15,5.46-.11,7.93-1,1.13-.41,2.64-1.08,2.67-2.46S45.52,37.88,45,36.66Z" />
    <g
       style="font-style:normal;font-weight:normal;font-size:40px;line-height:1.25;font-family:sans-serif;white-space:pre;shape-inside:url(#rect2843);fill:#1e1e1c;fill-opacity:1;stroke:none"
       id="text2841"
       transform="matrix(0.43185837,0,0,0.42956213,-168.7845,-180.75038)"
       aria-label="GCODE">
      <path
         id="path19"
         style="font-style:normal;font-variant:normal;font-weight:normal;font-stretch:normal;font-family:DeeDeeStretch;-inkscape-font-specification:DeeDeeStretch;fill:#1e1e1c;fill-opacity:1"
         d="m 411.22859,549.81789 q 0.96,0 2.72,0.04 1.76,0.04 2.32,0.04 2.96,0.04 4.92,-0.16 0.48,-0.04 0.88,0.28 0.4,0.32 0.44,0.8 0.04,0.48 -0.28,0.88 -0.32,0.4 -0.8,0.44 -0.96,0.08 -1.8,0.12 -0.36,4.08 1.2,9.96 0.12,0.48 -0.12,0.92 -0.24,0.44 -0.72,0.56 -0.48,0.12 -0.92,-0.12 -0.44,-0.24 -0.56,-0.72 -0.24,-0.84 -0.4,-1.64 -1.96,3.68 -6.56,3.32 -2.96,-0.24 -4.52,-2.28 -0.92,-1.2 -1.56,-2.96 -0.64,-1.8 -0.88,-3 -0.2,-1.24 -0.48,-3.12 -0.28,-2.6 -0.32,-5.28 -0.04,-2.72 0.6,-5.72 0.68,-3 2.04,-5.12 0.96,-1.56 2.64,-2.48 1.68,-0.92 3.48,-1.04 1.92,-0.08 3.52,0.92 1.6,1 2.2,3.08 0.12,0.44 -0.12,0.88 -0.24,0.44 -0.72,0.6 -0.44,0.12 -0.88,-0.12 -0.44,-0.24 -0.6,-0.72 -0.68,-2.36 -3.32,-2.24 -1.2,0.08 -2.36,0.72 -1.16,0.64 -1.84,1.68 -1.12,1.8 -1.72,4.4 -0.56,2.6 -0.52,5.12 0.04,2.48 0.32,5 0.36,2.72 0.88,4.64 0.52,1.96 1.56,3.32 0.88,1.16 2.76,1.32 3.52,0.28 4.64,-2.88 0.92,-2.6 0.36,-6.96 h -0.44 q -0.56,0 -2.32,-0.04 -1.76,-0.04 -2.72,-0.04 -0.48,0 -0.84,-0.36 -0.36,-0.36 -0.36,-0.84 0,-0.48 0.36,-0.84 0.36,-0.36 0.84,-0.36 z" />
      <path
         id="path21"
         style="font-style:normal;font-variant:normal;font-weight:normal;font-stretch:normal;font-family:DeeDeeStretch;-inkscape-font-specification:DeeDeeStretch;fill:#1e1e1c;fill-opacity:1"
         d="m 434.64922,538.93789 q -0.4,-1.4 -1.08,-1.96 -0.68,-0.56 -1.32,-0.52 -0.72,0.04 -1.44,0.8 -0.68,0.72 -1.08,2.2 -0.44,1.6 -0.56,3.56 -0.12,2 -0.08,3.72 0.08,1.72 -0.04,3.92 -0.04,0.64 -0.12,2.08 -0.08,1.4 -0.12,2.2 -0.04,0.76 -0.04,1.88 0.04,1.08 0.16,2 0.28,2.2 1.2,3.08 0.96,0.92 2.04,0.76 1.16,-0.16 2.2,-1.52 1.04,-1.36 1.28,-3.8 0.04,-0.48 0.44,-0.8 0.4,-0.32 0.88,-0.28 0.48,0.04 0.8,0.44 0.32,0.4 0.28,0.88 -0.32,3.08 -1.88,5.12 -1.52,2 -3.64,2.36 -2.28,0.32 -3.96,-1.32 -1.68,-1.64 -2.04,-4.6 -0.12,-1 -0.16,-2.24 0,-1.24 0.04,-2.08 0.04,-0.84 0.12,-2.28 0.08,-1.44 0.12,-1.96 0.12,-2.04 0.04,-3.76 -0.04,-1.76 0.08,-4 0.16,-2.24 0.64,-4 0.52,-2.04 1.76,-3.32 1.28,-1.32 2.88,-1.44 1.68,-0.12 3,1.04 1.32,1.12 1.92,3.2 0.12,0.48 -0.12,0.92 -0.24,0.4 -0.72,0.56 -0.48,0.12 -0.92,-0.12 -0.4,-0.24 -0.56,-0.72 z" />
      <path
         id="path23"
         style="font-style:normal;font-variant:normal;font-weight:normal;font-stretch:normal;font-family:DeeDeeStretch;-inkscape-font-specification:DeeDeeStretch;fill:#1e1e1c;fill-opacity:1"
         d="m 446.75609,534.61789 q 0.4,-0.16 0.8,-0.04 0.44,0.12 0.68,0.48 1.4,2.12 2.24,5.08 0.88,2.96 1.16,6.08 0.28,3.12 0.2,6.04 -0.04,2.88 -0.36,5.44 -0.32,2.24 -1.32,3.92 -0.96,1.68 -2.52,2.36 -1.72,0.72 -3.48,-0.08 -1.76,-0.8 -3.2,-2.88 -2.44,-3.4 -2.6,-10.04 -0.12,-5.56 1.16,-10.12 1,-3.48 2.4,-5.2 1.2,-1.48 2.64,-1.6 1.12,-0.12 2.2,0.56 z m -0.6,2.64 q -0.8,-0.88 -1.36,-0.84 -0.48,0.04 -1.04,0.72 -1.08,1.36 -1.92,4.36 -1.2,4.24 -1.08,9.4 0.12,5.92 2.12,8.76 2.04,2.84 3.84,2.08 0.8,-0.32 1.44,-1.44 0.68,-1.16 0.92,-2.92 0.36,-3.16 0.4,-6.52 0.08,-3.4 -0.6,-7.08 -0.64,-3.68 -1.92,-6.16 -0.48,-0.04 -0.8,-0.36 z" />
      <path
         id="path25"
         style="font-style:normal;font-variant:normal;font-weight:normal;font-stretch:normal;font-family:DeeDeeStretch;-inkscape-font-specification:DeeDeeStretch;fill:#1e1e1c;fill-opacity:1"
         d="m 456.94422,562.13789 q 0.04,0.24 0.08,0.52 0.04,0.48 -0.28,0.88 -0.28,0.4 -0.76,0.44 -0.48,0.08 -0.88,-0.24 -0.4,-0.28 -0.48,-0.76 -0.64,-4.8 -0.32,-13.92 0.32,-9.48 -0.08,-13.6 -0.04,-0.52 0.28,-0.88 0.32,-0.4 0.8,-0.44 0.52,-0.04 0.88,0.28 0.4,0.32 0.44,0.8 l 0.16,2.08 q 0.4,-0.56 0.88,-1.04 1.44,-1.44 3.2,-2.04 1.76,-0.6 3.48,-0.24 1.76,0.36 3.08,1.68 1.32,1.28 1.88,3.32 1,3.76 0.56,11.16 -0.44,7.48 -1.92,11 -1.12,2.52 -4.52,2.8 -2.68,0.24 -5,-0.84 -0.76,-0.36 -1.48,-0.96 z m -0.32,-3.76 q 0.36,0.12 0.56,0.4 1.28,1.68 2.28,2.16 1.72,0.8 3.76,0.6 1.96,-0.16 2.48,-1.36 1.36,-3.12 1.8,-10.2 0.4,-7 -0.52,-10.36 -0.4,-1.44 -1.24,-2.24 -0.8,-0.84 -1.88,-1.04 -2.4,-0.52 -4.52,1.6 -1.04,1.04 -2.04,3.28 -0.12,0.32 -0.44,0.52 0,2.04 -0.16,7.4 -0.2,6.28 -0.08,9.24 z" />
      <path
         id="path27"
         style="font-style:normal;font-variant:normal;font-weight:normal;font-stretch:normal;font-family:DeeDeeStretch;-inkscape-font-specification:DeeDeeStretch;fill:#1e1e1c;fill-opacity:1"
         d="m 473.50922,533.73789 q 1.56,-0.04 5.28,-0.04 0.48,0 0.84,0.36 0.36,0.36 0.36,0.84 0,0.48 -0.36,0.84 -0.36,0.36 -0.84,0.36 -3.28,0 -4.56,0.04 -0.08,4.36 -0.04,11.96 0.84,0.04 2.2,0 0.52,0 0.88,0.36 0.36,0.32 0.36,0.84 0,0.48 -0.36,0.84 -0.32,0.36 -0.8,0.36 -1.48,0.04 -2.28,0 0.04,3.28 0.04,5.32 v 0.56 q 0,0.48 -0.04,1.24 0,0.76 0,1.4 -0.04,1.28 -0.04,1.96 v 0.08 0.08 q 0.24,0.04 0.56,0.08 1,0.12 2.72,0.16 h 2.92 q 1.68,-0.04 2.12,0 0.48,0.04 0.8,0.4 0.36,0.36 0.32,0.88 -0.04,0.48 -0.4,0.8 -0.36,0.36 -0.88,0.32 -0.36,-0.04 -1.92,0 h -3 q -1.84,-0.04 -2.96,-0.2 -0.72,-0.08 -1.2,-0.2 -0.76,-0.24 -1.16,-0.64 -0.16,-0.2 -0.24,-0.44 0,-0.08 -0.04,-0.16 v -0.16 q 0,-0.12 -0.04,-0.28 v -0.72 q 0,-0.72 0.04,-2 0,-0.64 0,-1.4 0.04,-0.76 0.04,-1.2 v -0.56 q 0,-2.08 -0.04,-6.44 -0.04,-4.4 -0.04,-7.76 0.04,-3.4 0.12,-6.48 0,-0.4 0.24,-0.72 0.28,-0.32 0.68,-0.4 0.32,-0.28 0.72,-0.28 z" />
    </g>
  </g>
</svg>
